%TF.GenerationSoftware,KiCad,Pcbnew,(6.0.8)*%
%TF.CreationDate,2022-10-24T22:06:31+02:00*%
%TF.ProjectId,stm32,73746d33-322e-46b6-9963-61645f706362,rev?*%
%TF.SameCoordinates,Original*%
%TF.FileFunction,Copper,L2,Bot*%
%TF.FilePolarity,Positive*%
%FSLAX46Y46*%
G04 Gerber Fmt 4.6, Leading zero omitted, Abs format (unit mm)*
G04 Created by KiCad (PCBNEW (6.0.8)) date 2022-10-24 22:06:31*
%MOMM*%
%LPD*%
G01*
G04 APERTURE LIST*
%TA.AperFunction,ComponentPad*%
%ADD10O,2.000000X1.450000*%
%TD*%
%TA.AperFunction,ComponentPad*%
%ADD11O,1.800000X1.150000*%
%TD*%
%TA.AperFunction,ComponentPad*%
%ADD12R,1.700000X1.700000*%
%TD*%
%TA.AperFunction,ComponentPad*%
%ADD13O,1.700000X1.700000*%
%TD*%
%TA.AperFunction,ViaPad*%
%ADD14C,0.700000*%
%TD*%
%TA.AperFunction,Conductor*%
%ADD15C,0.500000*%
%TD*%
G04 APERTURE END LIST*
D10*
%TO.P,J2,6,Shield*%
%TO.N,N/C*%
X163345000Y-91475000D03*
D11*
X167145000Y-99075000D03*
X167145000Y-91325000D03*
D10*
X163345000Y-98925000D03*
%TD*%
D12*
%TO.P,J3,1,Pin_1*%
%TO.N,+3.3V*%
X143550000Y-109650000D03*
D13*
%TO.P,J3,2,Pin_2*%
%TO.N,/I2C2_SCL*%
X146090000Y-109650000D03*
%TO.P,J3,3,Pin_3*%
%TO.N,/I2C2_SDA*%
X148630000Y-109650000D03*
%TO.P,J3,4,Pin_4*%
%TO.N,GND*%
X151170000Y-109650000D03*
%TD*%
D12*
%TO.P,J4,1,Pin_1*%
%TO.N,+3.3V*%
X159250000Y-82700000D03*
D13*
%TO.P,J4,2,Pin_2*%
%TO.N,/SWDIO*%
X156710000Y-82700000D03*
%TO.P,J4,3,Pin_3*%
%TO.N,/SWCLK*%
X154170000Y-82700000D03*
%TO.P,J4,4,Pin_4*%
%TO.N,GND*%
X151630000Y-82700000D03*
%TD*%
D12*
%TO.P,J1,1,Pin_1*%
%TO.N,+3.3V*%
X146250000Y-82700000D03*
D13*
%TO.P,J1,2,Pin_2*%
%TO.N,/USART1_TX*%
X143710000Y-82700000D03*
%TO.P,J1,3,Pin_3*%
%TO.N,/USART1_RX*%
X141170000Y-82700000D03*
%TO.P,J1,4,Pin_4*%
%TO.N,GND*%
X138630000Y-82700000D03*
%TD*%
D14*
%TO.N,GND*%
X140200000Y-92750000D03*
X145400000Y-93450000D03*
X136800000Y-97850000D03*
X133500000Y-89050000D03*
X138600000Y-92550000D03*
%TO.N,+3.3V*%
X145140500Y-107150000D03*
X146539500Y-107150000D03*
X149809500Y-104650000D03*
X148410500Y-104650000D03*
%TO.N,GND*%
X166100000Y-101662500D03*
X164100000Y-104050000D03*
X160500000Y-103650000D03*
X159600000Y-103650000D03*
X160000000Y-100050000D03*
X160000000Y-99150000D03*
X161300000Y-93850000D03*
X141100000Y-95550000D03*
X145000000Y-97200000D03*
X140600000Y-100150000D03*
X154800000Y-94450000D03*
X140600000Y-103250000D03*
X146600000Y-102450000D03*
X141700000Y-91850000D03*
X149950000Y-99075000D03*
%TD*%
D15*
%TO.N,+3.3V*%
X146539500Y-107150000D02*
X145140500Y-107150000D01*
X148410500Y-104650000D02*
X149809500Y-104650000D01*
%TD*%
%TA.AperFunction,Conductor*%
%TO.N,GND*%
G36*
X166184391Y-81002384D02*
G01*
X166200000Y-81005136D01*
X166210685Y-81003252D01*
X166220339Y-81003252D01*
X166234278Y-81002425D01*
X166334732Y-81008066D01*
X166495296Y-81017084D01*
X166509113Y-81018641D01*
X166793826Y-81067015D01*
X166807384Y-81070109D01*
X167084899Y-81150060D01*
X167098024Y-81154653D01*
X167364834Y-81265170D01*
X167377362Y-81271203D01*
X167517513Y-81348661D01*
X167630132Y-81410903D01*
X167641900Y-81418298D01*
X167877431Y-81585417D01*
X167888303Y-81594086D01*
X168103642Y-81786525D01*
X168113475Y-81796358D01*
X168305914Y-82011697D01*
X168314583Y-82022569D01*
X168481702Y-82258100D01*
X168489097Y-82269868D01*
X168514511Y-82315851D01*
X168628797Y-82522638D01*
X168634830Y-82535166D01*
X168745347Y-82801976D01*
X168749940Y-82815101D01*
X168756267Y-82837061D01*
X168824827Y-83075037D01*
X168829891Y-83092616D01*
X168832985Y-83106174D01*
X168881359Y-83390887D01*
X168882916Y-83404704D01*
X168885482Y-83450391D01*
X168896613Y-83648584D01*
X168897575Y-83665720D01*
X168896748Y-83679661D01*
X168896748Y-83689315D01*
X168894864Y-83700000D01*
X168897616Y-83715606D01*
X168899500Y-83737139D01*
X168899500Y-108662861D01*
X168897616Y-108684391D01*
X168894864Y-108700000D01*
X168896748Y-108710685D01*
X168896748Y-108720339D01*
X168897575Y-108734278D01*
X168895283Y-108775093D01*
X168882916Y-108995296D01*
X168881359Y-109009113D01*
X168832985Y-109293826D01*
X168829891Y-109307383D01*
X168823534Y-109329451D01*
X168749940Y-109584899D01*
X168745347Y-109598024D01*
X168634830Y-109864834D01*
X168628797Y-109877362D01*
X168551339Y-110017513D01*
X168493264Y-110122594D01*
X168489101Y-110130126D01*
X168481702Y-110141900D01*
X168314583Y-110377431D01*
X168305914Y-110388303D01*
X168113475Y-110603642D01*
X168103642Y-110613475D01*
X167888303Y-110805914D01*
X167877431Y-110814583D01*
X167641900Y-110981702D01*
X167630132Y-110989097D01*
X167517513Y-111051339D01*
X167377362Y-111128797D01*
X167364834Y-111134830D01*
X167098024Y-111245347D01*
X167084899Y-111249940D01*
X166807384Y-111329891D01*
X166793826Y-111332985D01*
X166509113Y-111381359D01*
X166495296Y-111382916D01*
X166334732Y-111391934D01*
X166234278Y-111397575D01*
X166220339Y-111396748D01*
X166210685Y-111396748D01*
X166200000Y-111394864D01*
X166184391Y-111397616D01*
X166162861Y-111399500D01*
X131237139Y-111399500D01*
X131215609Y-111397616D01*
X131200000Y-111394864D01*
X131189315Y-111396748D01*
X131179661Y-111396748D01*
X131165722Y-111397575D01*
X131065268Y-111391934D01*
X130904704Y-111382916D01*
X130890887Y-111381359D01*
X130606174Y-111332985D01*
X130592616Y-111329891D01*
X130315101Y-111249940D01*
X130301976Y-111245347D01*
X130035166Y-111134830D01*
X130022638Y-111128797D01*
X129882487Y-111051339D01*
X129769868Y-110989097D01*
X129758100Y-110981702D01*
X129522569Y-110814583D01*
X129511697Y-110805914D01*
X129296358Y-110613475D01*
X129286525Y-110603642D01*
X129233803Y-110544646D01*
X142399500Y-110544646D01*
X142402618Y-110570846D01*
X142448061Y-110673153D01*
X142527287Y-110752241D01*
X142537758Y-110756870D01*
X142537759Y-110756871D01*
X142621147Y-110793737D01*
X142621149Y-110793738D01*
X142629673Y-110797506D01*
X142655354Y-110800500D01*
X144444646Y-110800500D01*
X144448300Y-110800065D01*
X144448302Y-110800065D01*
X144453266Y-110799474D01*
X144470846Y-110797382D01*
X144573153Y-110751939D01*
X144652241Y-110672713D01*
X144656871Y-110662241D01*
X144693737Y-110578853D01*
X144693738Y-110578851D01*
X144697506Y-110570327D01*
X144700500Y-110544646D01*
X144700500Y-109830300D01*
X144720185Y-109763261D01*
X144772989Y-109717506D01*
X144842147Y-109707562D01*
X144905703Y-109736587D01*
X144943477Y-109795365D01*
X144948234Y-109822190D01*
X144948423Y-109825072D01*
X144948425Y-109825082D01*
X144948796Y-109830749D01*
X145000845Y-110035690D01*
X145003219Y-110040841D01*
X145003221Y-110040845D01*
X145040908Y-110122594D01*
X145089369Y-110227714D01*
X145092647Y-110232352D01*
X145199193Y-110383111D01*
X145211405Y-110400391D01*
X145362865Y-110547937D01*
X145367588Y-110551093D01*
X145367592Y-110551096D01*
X145438663Y-110598584D01*
X145538677Y-110665411D01*
X145732953Y-110748878D01*
X145768277Y-110756871D01*
X145933638Y-110794289D01*
X145933642Y-110794290D01*
X145939186Y-110795544D01*
X146065315Y-110800500D01*
X146144789Y-110803623D01*
X146144791Y-110803623D01*
X146150470Y-110803846D01*
X146156090Y-110803031D01*
X146156092Y-110803031D01*
X146354103Y-110774320D01*
X146354104Y-110774320D01*
X146359730Y-110773504D01*
X146378588Y-110767103D01*
X146554565Y-110707367D01*
X146554568Y-110707366D01*
X146559955Y-110705537D01*
X146564916Y-110702759D01*
X146564922Y-110702756D01*
X146672253Y-110642647D01*
X146744442Y-110602219D01*
X146782165Y-110570846D01*
X146902645Y-110470644D01*
X146907012Y-110467012D01*
X146910644Y-110462645D01*
X147038584Y-110308813D01*
X147038585Y-110308811D01*
X147042219Y-110304442D01*
X147088078Y-110222556D01*
X147142756Y-110124922D01*
X147142759Y-110124916D01*
X147145537Y-110119955D01*
X147152165Y-110100431D01*
X147211675Y-109925118D01*
X147213504Y-109919730D01*
X147215726Y-109904404D01*
X147237820Y-109752033D01*
X147266921Y-109688512D01*
X147320225Y-109654346D01*
X147400974Y-109654346D01*
X147454347Y-109688736D01*
X147483296Y-109752327D01*
X147484271Y-109761707D01*
X147488796Y-109830749D01*
X147540845Y-110035690D01*
X147543219Y-110040841D01*
X147543221Y-110040845D01*
X147580908Y-110122594D01*
X147629369Y-110227714D01*
X147632647Y-110232352D01*
X147739193Y-110383111D01*
X147751405Y-110400391D01*
X147902865Y-110547937D01*
X147907588Y-110551093D01*
X147907592Y-110551096D01*
X147978663Y-110598584D01*
X148078677Y-110665411D01*
X148272953Y-110748878D01*
X148308277Y-110756871D01*
X148473638Y-110794289D01*
X148473642Y-110794290D01*
X148479186Y-110795544D01*
X148605315Y-110800500D01*
X148684789Y-110803623D01*
X148684791Y-110803623D01*
X148690470Y-110803846D01*
X148696090Y-110803031D01*
X148696092Y-110803031D01*
X148894103Y-110774320D01*
X148894104Y-110774320D01*
X148899730Y-110773504D01*
X148918588Y-110767103D01*
X149094565Y-110707367D01*
X149094568Y-110707366D01*
X149099955Y-110705537D01*
X149104916Y-110702759D01*
X149104922Y-110702756D01*
X149212253Y-110642647D01*
X149284442Y-110602219D01*
X149322165Y-110570846D01*
X149442645Y-110470644D01*
X149447012Y-110467012D01*
X149450644Y-110462645D01*
X149578584Y-110308813D01*
X149578585Y-110308811D01*
X149582219Y-110304442D01*
X149684059Y-110122594D01*
X149733990Y-110073721D01*
X149802418Y-110059601D01*
X149867617Y-110084717D01*
X149904630Y-110130778D01*
X149994110Y-110322667D01*
X149999508Y-110332017D01*
X150128784Y-110516643D01*
X150135719Y-110524907D01*
X150295091Y-110684279D01*
X150303357Y-110691215D01*
X150487992Y-110820498D01*
X150497324Y-110825886D01*
X150701603Y-110921143D01*
X150711736Y-110924832D01*
X150902779Y-110976022D01*
X150916653Y-110975691D01*
X150920000Y-110967875D01*
X150920000Y-110962806D01*
X151420000Y-110962806D01*
X151423910Y-110976123D01*
X151432326Y-110977333D01*
X151628264Y-110924832D01*
X151638397Y-110921143D01*
X151842676Y-110825886D01*
X151852008Y-110820498D01*
X152036643Y-110691215D01*
X152044909Y-110684279D01*
X152204281Y-110524907D01*
X152211216Y-110516643D01*
X152340492Y-110332017D01*
X152345890Y-110322667D01*
X152441143Y-110118397D01*
X152444832Y-110108264D01*
X152496022Y-109917221D01*
X152495691Y-109903347D01*
X152487875Y-109900000D01*
X151437830Y-109900000D01*
X151422831Y-109904404D01*
X151421644Y-109905774D01*
X151420000Y-109913332D01*
X151420000Y-110962806D01*
X150920000Y-110962806D01*
X150920000Y-109382170D01*
X151420000Y-109382170D01*
X151424404Y-109397169D01*
X151425774Y-109398356D01*
X151433332Y-109400000D01*
X152482806Y-109400000D01*
X152496123Y-109396090D01*
X152497333Y-109387674D01*
X152444832Y-109191736D01*
X152441143Y-109181603D01*
X152345890Y-108977333D01*
X152340492Y-108967983D01*
X152211216Y-108783357D01*
X152204281Y-108775093D01*
X152062977Y-108633789D01*
X164795996Y-108633789D01*
X164799769Y-108734280D01*
X164804148Y-108850907D01*
X164804913Y-108871295D01*
X164805990Y-108876430D01*
X164805991Y-108876435D01*
X164837320Y-109025747D01*
X164853719Y-109103904D01*
X164941020Y-109324963D01*
X164943741Y-109329447D01*
X164943743Y-109329451D01*
X165011233Y-109440670D01*
X165064319Y-109528153D01*
X165220090Y-109707664D01*
X165403880Y-109858362D01*
X165408441Y-109860958D01*
X165408442Y-109860959D01*
X165605875Y-109973345D01*
X165605880Y-109973347D01*
X165610433Y-109975939D01*
X165833844Y-110057034D01*
X166067725Y-110099326D01*
X166092619Y-110100500D01*
X166259680Y-110100500D01*
X166262296Y-110100278D01*
X166262297Y-110100278D01*
X166431590Y-110085913D01*
X166436823Y-110085469D01*
X166666874Y-110025760D01*
X166883576Y-109928143D01*
X167080732Y-109795409D01*
X167252705Y-109631355D01*
X167394579Y-109440670D01*
X167396958Y-109435991D01*
X167499913Y-109233493D01*
X167499915Y-109233488D01*
X167502295Y-109228807D01*
X167510371Y-109202800D01*
X167571215Y-109006848D01*
X167572775Y-109001824D01*
X167576021Y-108977333D01*
X167603315Y-108771412D01*
X167603315Y-108771408D01*
X167604004Y-108766211D01*
X167595087Y-108528705D01*
X167590379Y-108506263D01*
X167547361Y-108301242D01*
X167547360Y-108301239D01*
X167546281Y-108296096D01*
X167458980Y-108075037D01*
X167391607Y-107964009D01*
X167338408Y-107876341D01*
X167335681Y-107871847D01*
X167179910Y-107692336D01*
X166996120Y-107541638D01*
X166878687Y-107474791D01*
X166794125Y-107426655D01*
X166794120Y-107426653D01*
X166789567Y-107424061D01*
X166566156Y-107342966D01*
X166332275Y-107300674D01*
X166307381Y-107299500D01*
X166140320Y-107299500D01*
X166137704Y-107299722D01*
X166137703Y-107299722D01*
X166126484Y-107300674D01*
X165963177Y-107314531D01*
X165733126Y-107374240D01*
X165516424Y-107471857D01*
X165319268Y-107604591D01*
X165147295Y-107768645D01*
X165005421Y-107959330D01*
X165003042Y-107964008D01*
X165003042Y-107964009D01*
X164948875Y-108070549D01*
X164897705Y-108171193D01*
X164827225Y-108398176D01*
X164826534Y-108403386D01*
X164826534Y-108403388D01*
X164796858Y-108627287D01*
X164795996Y-108633789D01*
X152062977Y-108633789D01*
X152044909Y-108615721D01*
X152036643Y-108608785D01*
X151852008Y-108479502D01*
X151842676Y-108474114D01*
X151638397Y-108378857D01*
X151628264Y-108375168D01*
X151437221Y-108323978D01*
X151423347Y-108324309D01*
X151420000Y-108332125D01*
X151420000Y-109382170D01*
X150920000Y-109382170D01*
X150920000Y-108337194D01*
X150916090Y-108323877D01*
X150907674Y-108322667D01*
X150711736Y-108375168D01*
X150701603Y-108378857D01*
X150497333Y-108474110D01*
X150487983Y-108479508D01*
X150303357Y-108608784D01*
X150295093Y-108615719D01*
X150135719Y-108775093D01*
X150128784Y-108783357D01*
X149999508Y-108967983D01*
X149994110Y-108977333D01*
X149902664Y-109173438D01*
X149856491Y-109225877D01*
X149789298Y-109245029D01*
X149722417Y-109224813D01*
X149679071Y-109175878D01*
X149615165Y-109046290D01*
X149488651Y-108876867D01*
X149484481Y-108873012D01*
X149484478Y-108873009D01*
X149374570Y-108771412D01*
X149333381Y-108733337D01*
X149327574Y-108729673D01*
X149159363Y-108623539D01*
X149159361Y-108623538D01*
X149154554Y-108620505D01*
X148958160Y-108542152D01*
X148952579Y-108541042D01*
X148952576Y-108541041D01*
X148854467Y-108521526D01*
X148750775Y-108500901D01*
X148745088Y-108500827D01*
X148745083Y-108500826D01*
X148545034Y-108498207D01*
X148545029Y-108498207D01*
X148539346Y-108498133D01*
X148533742Y-108499096D01*
X148533741Y-108499096D01*
X148336550Y-108532979D01*
X148336547Y-108532980D01*
X148330953Y-108533941D01*
X148132575Y-108607127D01*
X148127697Y-108610029D01*
X148127695Y-108610030D01*
X147955740Y-108712332D01*
X147955737Y-108712334D01*
X147950856Y-108715238D01*
X147791881Y-108854655D01*
X147788362Y-108859119D01*
X147788359Y-108859122D01*
X147770782Y-108881419D01*
X147660976Y-109020708D01*
X147562523Y-109207836D01*
X147560837Y-109213267D01*
X147560835Y-109213271D01*
X147508391Y-109382170D01*
X147499820Y-109409773D01*
X147482851Y-109553140D01*
X147455425Y-109617398D01*
X147400974Y-109654346D01*
X147320225Y-109654346D01*
X147320667Y-109654063D01*
X147268057Y-109622081D01*
X147237453Y-109559271D01*
X147236232Y-109549909D01*
X147226601Y-109445100D01*
X147226081Y-109439440D01*
X147168686Y-109235931D01*
X147075165Y-109046290D01*
X146948651Y-108876867D01*
X146944481Y-108873012D01*
X146944478Y-108873009D01*
X146834570Y-108771412D01*
X146793381Y-108733337D01*
X146787574Y-108729673D01*
X146619363Y-108623539D01*
X146619361Y-108623538D01*
X146614554Y-108620505D01*
X146418160Y-108542152D01*
X146412579Y-108541042D01*
X146412576Y-108541041D01*
X146314467Y-108521526D01*
X146210775Y-108500901D01*
X146205088Y-108500827D01*
X146205083Y-108500826D01*
X146005034Y-108498207D01*
X146005029Y-108498207D01*
X145999346Y-108498133D01*
X145993742Y-108499096D01*
X145993741Y-108499096D01*
X145796550Y-108532979D01*
X145796547Y-108532980D01*
X145790953Y-108533941D01*
X145592575Y-108607127D01*
X145587697Y-108610029D01*
X145587695Y-108610030D01*
X145415740Y-108712332D01*
X145415737Y-108712334D01*
X145410856Y-108715238D01*
X145251881Y-108854655D01*
X145248362Y-108859119D01*
X145248359Y-108859122D01*
X145230782Y-108881419D01*
X145120976Y-109020708D01*
X145022523Y-109207836D01*
X145020837Y-109213267D01*
X145020835Y-109213271D01*
X144968391Y-109382170D01*
X144959820Y-109409773D01*
X144959152Y-109415418D01*
X144959151Y-109415422D01*
X144947640Y-109512681D01*
X144920213Y-109576942D01*
X144862397Y-109616173D01*
X144792549Y-109617919D01*
X144732845Y-109581625D01*
X144702241Y-109518814D01*
X144700500Y-109498106D01*
X144700500Y-108755354D01*
X144697382Y-108729154D01*
X144651939Y-108626847D01*
X144572713Y-108547759D01*
X144562242Y-108543130D01*
X144562241Y-108543129D01*
X144478853Y-108506263D01*
X144478851Y-108506262D01*
X144470327Y-108502494D01*
X144444646Y-108499500D01*
X142655354Y-108499500D01*
X142651700Y-108499935D01*
X142651698Y-108499935D01*
X142646734Y-108500526D01*
X142629154Y-108502618D01*
X142526847Y-108548061D01*
X142447759Y-108627287D01*
X142443130Y-108637758D01*
X142443129Y-108637759D01*
X142406621Y-108720339D01*
X142402494Y-108729673D01*
X142399500Y-108755354D01*
X142399500Y-110544646D01*
X129233803Y-110544646D01*
X129094086Y-110388303D01*
X129085417Y-110377431D01*
X128918298Y-110141900D01*
X128910899Y-110130126D01*
X128906737Y-110122594D01*
X128848661Y-110017513D01*
X128771203Y-109877362D01*
X128765170Y-109864834D01*
X128654653Y-109598024D01*
X128650060Y-109584899D01*
X128576466Y-109329451D01*
X128570109Y-109307383D01*
X128567015Y-109293826D01*
X128518641Y-109009113D01*
X128517084Y-108995296D01*
X128504717Y-108775093D01*
X128502425Y-108734278D01*
X128503252Y-108720339D01*
X128503252Y-108710685D01*
X128505136Y-108700000D01*
X128502384Y-108684391D01*
X128500500Y-108662861D01*
X128500500Y-108633789D01*
X129795996Y-108633789D01*
X129799769Y-108734280D01*
X129804148Y-108850907D01*
X129804913Y-108871295D01*
X129805990Y-108876430D01*
X129805991Y-108876435D01*
X129837320Y-109025747D01*
X129853719Y-109103904D01*
X129941020Y-109324963D01*
X129943741Y-109329447D01*
X129943743Y-109329451D01*
X130011233Y-109440670D01*
X130064319Y-109528153D01*
X130220090Y-109707664D01*
X130403880Y-109858362D01*
X130408441Y-109860958D01*
X130408442Y-109860959D01*
X130605875Y-109973345D01*
X130605880Y-109973347D01*
X130610433Y-109975939D01*
X130833844Y-110057034D01*
X131067725Y-110099326D01*
X131092619Y-110100500D01*
X131259680Y-110100500D01*
X131262296Y-110100278D01*
X131262297Y-110100278D01*
X131431590Y-110085913D01*
X131436823Y-110085469D01*
X131666874Y-110025760D01*
X131883576Y-109928143D01*
X132080732Y-109795409D01*
X132252705Y-109631355D01*
X132394579Y-109440670D01*
X132396958Y-109435991D01*
X132499913Y-109233493D01*
X132499915Y-109233488D01*
X132502295Y-109228807D01*
X132510371Y-109202800D01*
X132571215Y-109006848D01*
X132572775Y-109001824D01*
X132576021Y-108977333D01*
X132603315Y-108771412D01*
X132603315Y-108771408D01*
X132604004Y-108766211D01*
X132595087Y-108528705D01*
X132590379Y-108506263D01*
X132547361Y-108301242D01*
X132547360Y-108301239D01*
X132546281Y-108296096D01*
X132458980Y-108075037D01*
X132391607Y-107964009D01*
X132338408Y-107876341D01*
X132335681Y-107871847D01*
X132179910Y-107692336D01*
X131996120Y-107541638D01*
X131878687Y-107474791D01*
X131794125Y-107426655D01*
X131794120Y-107426653D01*
X131789567Y-107424061D01*
X131566156Y-107342966D01*
X131332275Y-107300674D01*
X131307381Y-107299500D01*
X131140320Y-107299500D01*
X131137704Y-107299722D01*
X131137703Y-107299722D01*
X131126484Y-107300674D01*
X130963177Y-107314531D01*
X130733126Y-107374240D01*
X130516424Y-107471857D01*
X130319268Y-107604591D01*
X130147295Y-107768645D01*
X130005421Y-107959330D01*
X130003042Y-107964008D01*
X130003042Y-107964009D01*
X129948875Y-108070549D01*
X129897705Y-108171193D01*
X129827225Y-108398176D01*
X129826534Y-108403386D01*
X129826534Y-108403388D01*
X129796858Y-108627287D01*
X129795996Y-108633789D01*
X128500500Y-108633789D01*
X128500500Y-107143138D01*
X144485258Y-107143138D01*
X144486078Y-107150566D01*
X144486078Y-107150568D01*
X144487974Y-107167744D01*
X144502535Y-107299633D01*
X144505101Y-107306645D01*
X144505102Y-107306649D01*
X144519048Y-107344757D01*
X144556643Y-107447490D01*
X144644458Y-107578172D01*
X144677473Y-107608213D01*
X144755378Y-107679102D01*
X144755382Y-107679105D01*
X144760910Y-107684135D01*
X144767480Y-107687702D01*
X144767481Y-107687703D01*
X144892708Y-107755696D01*
X144899276Y-107759262D01*
X145001531Y-107786088D01*
X145044341Y-107797319D01*
X145044343Y-107797319D01*
X145051569Y-107799215D01*
X145128627Y-107800425D01*
X145201525Y-107801571D01*
X145201528Y-107801571D01*
X145208995Y-107801688D01*
X145216276Y-107800020D01*
X145216280Y-107800020D01*
X145355177Y-107768208D01*
X145355178Y-107768208D01*
X145362468Y-107766538D01*
X145467481Y-107713722D01*
X145523197Y-107700500D01*
X146158558Y-107700500D01*
X146217726Y-107715527D01*
X146298276Y-107759262D01*
X146400531Y-107786088D01*
X146443341Y-107797319D01*
X146443343Y-107797319D01*
X146450569Y-107799215D01*
X146527627Y-107800425D01*
X146600525Y-107801571D01*
X146600528Y-107801571D01*
X146607995Y-107801688D01*
X146615276Y-107800020D01*
X146615280Y-107800020D01*
X146754181Y-107768207D01*
X146761468Y-107766538D01*
X146902125Y-107695795D01*
X146907806Y-107690943D01*
X146907809Y-107690941D01*
X147016166Y-107598395D01*
X147016167Y-107598394D01*
X147021848Y-107593542D01*
X147032893Y-107578172D01*
X147107179Y-107474791D01*
X147113724Y-107465683D01*
X147172450Y-107319598D01*
X147175040Y-107301401D01*
X147194062Y-107167744D01*
X147194062Y-107167740D01*
X147194634Y-107163723D01*
X147194778Y-107150000D01*
X147175863Y-106993694D01*
X147120210Y-106846412D01*
X147111837Y-106834229D01*
X147035268Y-106722821D01*
X147035265Y-106722818D01*
X147031031Y-106716657D01*
X146913476Y-106611919D01*
X146774331Y-106538245D01*
X146621628Y-106499889D01*
X146539829Y-106499461D01*
X146471658Y-106499104D01*
X146471657Y-106499104D01*
X146464184Y-106499065D01*
X146456921Y-106500809D01*
X146456918Y-106500809D01*
X146387636Y-106517443D01*
X146311088Y-106535820D01*
X146245918Y-106569457D01*
X146214468Y-106585689D01*
X146157596Y-106599500D01*
X145521824Y-106599500D01*
X145463801Y-106585087D01*
X145381943Y-106541745D01*
X145381937Y-106541743D01*
X145375331Y-106538245D01*
X145222628Y-106499889D01*
X145140829Y-106499461D01*
X145072658Y-106499104D01*
X145072657Y-106499104D01*
X145065184Y-106499065D01*
X145057921Y-106500809D01*
X145057918Y-106500809D01*
X144988636Y-106517443D01*
X144912088Y-106535820D01*
X144772179Y-106608032D01*
X144653534Y-106711533D01*
X144563001Y-106840348D01*
X144505809Y-106987039D01*
X144485258Y-107143138D01*
X128500500Y-107143138D01*
X128500500Y-104643138D01*
X147755258Y-104643138D01*
X147756078Y-104650566D01*
X147756078Y-104650568D01*
X147757974Y-104667744D01*
X147772535Y-104799633D01*
X147826643Y-104947490D01*
X147914458Y-105078172D01*
X147936683Y-105098395D01*
X148025378Y-105179102D01*
X148025382Y-105179105D01*
X148030910Y-105184135D01*
X148037480Y-105187702D01*
X148037481Y-105187703D01*
X148162708Y-105255696D01*
X148169276Y-105259262D01*
X148271531Y-105286088D01*
X148314341Y-105297319D01*
X148314343Y-105297319D01*
X148321569Y-105299215D01*
X148398627Y-105300425D01*
X148471525Y-105301571D01*
X148471528Y-105301571D01*
X148478995Y-105301688D01*
X148486276Y-105300020D01*
X148486280Y-105300020D01*
X148625177Y-105268208D01*
X148625178Y-105268208D01*
X148632468Y-105266538D01*
X148737481Y-105213722D01*
X148793197Y-105200500D01*
X149428558Y-105200500D01*
X149487726Y-105215527D01*
X149568276Y-105259262D01*
X149670531Y-105286088D01*
X149713341Y-105297319D01*
X149713343Y-105297319D01*
X149720569Y-105299215D01*
X149797627Y-105300425D01*
X149870525Y-105301571D01*
X149870528Y-105301571D01*
X149877995Y-105301688D01*
X149885276Y-105300020D01*
X149885280Y-105300020D01*
X150024181Y-105268207D01*
X150031468Y-105266538D01*
X150172125Y-105195795D01*
X150177806Y-105190943D01*
X150177809Y-105190941D01*
X150286166Y-105098395D01*
X150286167Y-105098394D01*
X150291848Y-105093542D01*
X150302893Y-105078172D01*
X150323298Y-105049775D01*
X150383724Y-104965683D01*
X150442450Y-104819598D01*
X150444293Y-104806649D01*
X150464062Y-104667744D01*
X150464062Y-104667740D01*
X150464634Y-104663723D01*
X150464778Y-104650000D01*
X150445863Y-104493694D01*
X150390210Y-104346412D01*
X150381837Y-104334229D01*
X150305268Y-104222821D01*
X150305265Y-104222818D01*
X150301031Y-104216657D01*
X150183476Y-104111919D01*
X150044331Y-104038245D01*
X149891628Y-103999889D01*
X149809829Y-103999461D01*
X149741658Y-103999104D01*
X149741657Y-103999104D01*
X149734184Y-103999065D01*
X149726921Y-104000809D01*
X149726918Y-104000809D01*
X149657636Y-104017442D01*
X149581088Y-104035820D01*
X149515918Y-104069457D01*
X149484468Y-104085689D01*
X149427596Y-104099500D01*
X148791824Y-104099500D01*
X148733801Y-104085087D01*
X148651943Y-104041745D01*
X148651937Y-104041743D01*
X148645331Y-104038245D01*
X148492628Y-103999889D01*
X148410829Y-103999461D01*
X148342658Y-103999104D01*
X148342657Y-103999104D01*
X148335184Y-103999065D01*
X148327921Y-104000809D01*
X148327918Y-104000809D01*
X148258636Y-104017442D01*
X148182088Y-104035820D01*
X148042179Y-104108032D01*
X147923534Y-104211533D01*
X147833001Y-104340348D01*
X147775809Y-104487039D01*
X147755258Y-104643138D01*
X128500500Y-104643138D01*
X128500500Y-98917806D01*
X162039563Y-98917806D01*
X162040112Y-98923839D01*
X162040112Y-98923843D01*
X162049395Y-99025840D01*
X162057790Y-99118089D01*
X162059501Y-99123902D01*
X162059501Y-99123903D01*
X162061944Y-99132203D01*
X162114572Y-99311018D01*
X162207746Y-99489243D01*
X162301919Y-99606370D01*
X162329137Y-99640222D01*
X162333763Y-99645976D01*
X162487823Y-99775248D01*
X162664058Y-99872134D01*
X162669840Y-99873968D01*
X162669842Y-99873969D01*
X162849976Y-99931111D01*
X162849978Y-99931111D01*
X162855755Y-99932944D01*
X162910287Y-99939061D01*
X163008815Y-99950113D01*
X163008821Y-99950113D01*
X163012268Y-99950500D01*
X163670606Y-99950500D01*
X163673621Y-99950204D01*
X163673629Y-99950204D01*
X163814115Y-99936429D01*
X163814117Y-99936429D01*
X163820151Y-99935837D01*
X164012679Y-99877710D01*
X164190249Y-99783294D01*
X164346099Y-99656186D01*
X164474292Y-99501227D01*
X164481203Y-99488446D01*
X164567059Y-99329658D01*
X164567060Y-99329656D01*
X164569945Y-99324320D01*
X164629415Y-99132203D01*
X164640594Y-99025840D01*
X165940711Y-99025840D01*
X165950667Y-99215801D01*
X166001181Y-99399193D01*
X166089898Y-99567460D01*
X166094229Y-99572585D01*
X166094231Y-99572588D01*
X166208345Y-99707624D01*
X166212678Y-99712751D01*
X166218012Y-99716829D01*
X166358456Y-99824207D01*
X166358459Y-99824209D01*
X166363793Y-99828287D01*
X166369882Y-99831126D01*
X166369883Y-99831127D01*
X166530109Y-99905841D01*
X166536193Y-99908678D01*
X166542738Y-99910141D01*
X166542741Y-99910142D01*
X166634890Y-99930740D01*
X166721834Y-99950174D01*
X166727665Y-99950500D01*
X167517517Y-99950500D01*
X167659109Y-99935118D01*
X167839396Y-99874445D01*
X168002447Y-99776474D01*
X168129649Y-99656186D01*
X168135781Y-99650387D01*
X168140658Y-99645775D01*
X168190396Y-99572588D01*
X168243804Y-99494000D01*
X168243806Y-99493997D01*
X168247578Y-99488446D01*
X168250070Y-99482216D01*
X168250072Y-99482212D01*
X168315727Y-99318062D01*
X168318221Y-99311827D01*
X168319318Y-99305202D01*
X168348192Y-99130788D01*
X168348192Y-99130786D01*
X168349289Y-99124160D01*
X168339333Y-98934199D01*
X168288819Y-98750807D01*
X168200102Y-98582540D01*
X168156947Y-98531472D01*
X168081655Y-98442376D01*
X168081653Y-98442374D01*
X168077322Y-98437249D01*
X167993976Y-98373526D01*
X167931544Y-98325793D01*
X167931541Y-98325791D01*
X167926207Y-98321713D01*
X167853367Y-98287747D01*
X167759891Y-98244159D01*
X167753807Y-98241322D01*
X167747262Y-98239859D01*
X167747259Y-98239858D01*
X167635522Y-98214882D01*
X167568166Y-98199826D01*
X167562335Y-98199500D01*
X166772483Y-98199500D01*
X166630891Y-98214882D01*
X166450604Y-98275555D01*
X166287553Y-98373526D01*
X166149342Y-98504225D01*
X166145569Y-98509777D01*
X166145568Y-98509778D01*
X166092083Y-98588480D01*
X166042422Y-98661554D01*
X166039930Y-98667784D01*
X166039928Y-98667788D01*
X166019926Y-98717797D01*
X165971779Y-98838173D01*
X165970683Y-98844796D01*
X165970682Y-98844798D01*
X165956954Y-98927726D01*
X165940711Y-99025840D01*
X164640594Y-99025840D01*
X164650437Y-98932194D01*
X164642484Y-98844798D01*
X164634519Y-98757280D01*
X164632210Y-98731911D01*
X164575428Y-98538982D01*
X164572617Y-98533606D01*
X164570346Y-98527984D01*
X164571705Y-98527435D01*
X164559512Y-98466039D01*
X164585113Y-98401029D01*
X164634618Y-98365100D01*
X164634029Y-98363928D01*
X164778820Y-98291106D01*
X164778822Y-98291105D01*
X164785498Y-98287747D01*
X164791180Y-98282894D01*
X164791183Y-98282892D01*
X164908741Y-98182487D01*
X164914423Y-98177634D01*
X165013361Y-98039947D01*
X165076601Y-97882634D01*
X165100490Y-97714778D01*
X165100645Y-97700000D01*
X165080276Y-97531680D01*
X165020345Y-97373077D01*
X165011657Y-97360436D01*
X164928549Y-97239513D01*
X164928546Y-97239510D01*
X164924312Y-97233349D01*
X164797721Y-97120560D01*
X164783347Y-97112949D01*
X164654489Y-97044723D01*
X164647881Y-97041224D01*
X164483441Y-96999919D01*
X164397248Y-96999468D01*
X164321368Y-96999070D01*
X164321367Y-96999070D01*
X164313895Y-96999031D01*
X164292235Y-97004231D01*
X164156295Y-97036868D01*
X164156293Y-97036869D01*
X164149032Y-97038612D01*
X164142399Y-97042035D01*
X164142395Y-97042037D01*
X164075465Y-97076583D01*
X163998369Y-97116375D01*
X163870604Y-97227831D01*
X163773113Y-97366547D01*
X163711524Y-97524513D01*
X163689394Y-97692611D01*
X163690214Y-97700039D01*
X163690214Y-97700041D01*
X163697043Y-97761893D01*
X163684834Y-97830687D01*
X163637370Y-97881960D01*
X163573792Y-97899500D01*
X163019394Y-97899500D01*
X163016379Y-97899796D01*
X163016371Y-97899796D01*
X162875885Y-97913571D01*
X162875883Y-97913571D01*
X162869849Y-97914163D01*
X162677321Y-97972290D01*
X162499751Y-98066706D01*
X162343901Y-98193814D01*
X162215708Y-98348773D01*
X162212822Y-98354110D01*
X162212821Y-98354112D01*
X162131656Y-98504225D01*
X162120055Y-98525680D01*
X162060585Y-98717797D01*
X162039563Y-98917806D01*
X128500500Y-98917806D01*
X128500500Y-92840862D01*
X129615497Y-92840862D01*
X129645134Y-93013340D01*
X129647957Y-93019973D01*
X129647957Y-93019975D01*
X129677875Y-93090288D01*
X129713654Y-93174373D01*
X129717921Y-93180171D01*
X129717922Y-93180173D01*
X129793516Y-93282892D01*
X129817383Y-93315324D01*
X129822874Y-93319989D01*
X129822875Y-93319990D01*
X129945261Y-93423965D01*
X129945264Y-93423967D01*
X129950755Y-93428632D01*
X129957172Y-93431909D01*
X129957174Y-93431910D01*
X130023616Y-93465837D01*
X130106616Y-93508219D01*
X130113612Y-93509931D01*
X130113615Y-93509932D01*
X130184763Y-93527341D01*
X130276606Y-93549815D01*
X130282114Y-93550157D01*
X130282116Y-93550157D01*
X130285744Y-93550382D01*
X130285748Y-93550382D01*
X130287648Y-93550500D01*
X130413822Y-93550500D01*
X130543828Y-93535343D01*
X130550595Y-93532887D01*
X130550598Y-93532886D01*
X130701557Y-93478090D01*
X130701558Y-93478089D01*
X130708331Y-93475631D01*
X130820974Y-93401779D01*
X130848656Y-93383630D01*
X130848657Y-93383629D01*
X130854685Y-93379677D01*
X130859637Y-93374449D01*
X130859640Y-93374447D01*
X130970087Y-93257857D01*
X130970089Y-93257855D01*
X130975040Y-93252628D01*
X130978656Y-93246403D01*
X130978658Y-93246400D01*
X131059322Y-93107525D01*
X131062939Y-93101298D01*
X131113667Y-92933807D01*
X131124503Y-92759138D01*
X131094866Y-92586660D01*
X131026346Y-92425627D01*
X130992822Y-92380073D01*
X130926888Y-92290479D01*
X130926886Y-92290477D01*
X130922617Y-92284676D01*
X130869457Y-92239513D01*
X130794739Y-92176035D01*
X130794736Y-92176033D01*
X130789245Y-92171368D01*
X130782828Y-92168091D01*
X130782826Y-92168090D01*
X130689744Y-92120560D01*
X130633384Y-92091781D01*
X130626388Y-92090069D01*
X130626385Y-92090068D01*
X130555237Y-92072659D01*
X130463394Y-92050185D01*
X130457886Y-92049843D01*
X130457884Y-92049843D01*
X130454256Y-92049618D01*
X130454252Y-92049618D01*
X130452352Y-92049500D01*
X130326178Y-92049500D01*
X130196172Y-92064657D01*
X130189405Y-92067113D01*
X130189402Y-92067114D01*
X130040994Y-92120984D01*
X130031669Y-92124369D01*
X129885315Y-92220323D01*
X129880363Y-92225551D01*
X129880360Y-92225553D01*
X129785918Y-92325248D01*
X129764960Y-92347372D01*
X129761344Y-92353597D01*
X129761342Y-92353600D01*
X129723234Y-92419209D01*
X129677061Y-92498702D01*
X129626333Y-92666193D01*
X129615497Y-92840862D01*
X128500500Y-92840862D01*
X128500500Y-91467806D01*
X162039563Y-91467806D01*
X162040112Y-91473839D01*
X162040112Y-91473843D01*
X162048119Y-91561827D01*
X162057790Y-91668089D01*
X162114572Y-91861018D01*
X162207746Y-92039243D01*
X162333763Y-92195976D01*
X162487823Y-92325248D01*
X162664058Y-92422134D01*
X162669840Y-92423968D01*
X162669842Y-92423969D01*
X162849976Y-92481111D01*
X162849978Y-92481111D01*
X162855755Y-92482944D01*
X162910287Y-92489061D01*
X163008815Y-92500113D01*
X163008821Y-92500113D01*
X163012268Y-92500500D01*
X163573291Y-92500500D01*
X163640330Y-92520185D01*
X163686085Y-92572989D01*
X163696230Y-92640685D01*
X163689394Y-92692611D01*
X163690214Y-92700039D01*
X163690214Y-92700041D01*
X163697533Y-92766332D01*
X163707999Y-92861135D01*
X163710565Y-92868147D01*
X163710566Y-92868151D01*
X163731961Y-92926615D01*
X163766266Y-93020356D01*
X163770433Y-93026558D01*
X163770435Y-93026561D01*
X163820656Y-93101298D01*
X163860830Y-93161083D01*
X163866360Y-93166115D01*
X163980702Y-93270159D01*
X163980706Y-93270162D01*
X163986233Y-93275191D01*
X164135235Y-93356092D01*
X164225136Y-93379677D01*
X164292005Y-93397220D01*
X164292007Y-93397220D01*
X164299233Y-93399116D01*
X164382178Y-93400419D01*
X164461290Y-93401662D01*
X164461293Y-93401662D01*
X164468760Y-93401779D01*
X164591209Y-93373735D01*
X164626738Y-93365598D01*
X164626739Y-93365598D01*
X164634029Y-93363928D01*
X164730667Y-93315324D01*
X164778820Y-93291106D01*
X164778822Y-93291105D01*
X164785498Y-93287747D01*
X164791180Y-93282894D01*
X164791183Y-93282892D01*
X164908741Y-93182487D01*
X164914423Y-93177634D01*
X165013361Y-93039947D01*
X165076601Y-92882634D01*
X165100490Y-92714778D01*
X165100645Y-92700000D01*
X165093467Y-92640685D01*
X165081175Y-92539105D01*
X165081174Y-92539101D01*
X165080276Y-92531680D01*
X165061168Y-92481111D01*
X165022989Y-92380073D01*
X165022987Y-92380070D01*
X165020345Y-92373077D01*
X165006959Y-92353600D01*
X164928549Y-92239513D01*
X164928546Y-92239510D01*
X164924312Y-92233349D01*
X164867774Y-92182975D01*
X164803303Y-92125533D01*
X164803301Y-92125532D01*
X164797721Y-92120560D01*
X164740132Y-92090068D01*
X164654484Y-92044720D01*
X164654483Y-92044720D01*
X164647881Y-92041224D01*
X164640636Y-92039404D01*
X164638919Y-92038745D01*
X164583387Y-91996343D01*
X164559595Y-91930648D01*
X164568788Y-91876459D01*
X164569945Y-91874320D01*
X164629415Y-91682203D01*
X164650437Y-91482194D01*
X164649535Y-91472274D01*
X164632759Y-91287946D01*
X164632210Y-91281911D01*
X164630423Y-91275840D01*
X165940711Y-91275840D01*
X165950667Y-91465801D01*
X166001181Y-91649193D01*
X166089898Y-91817460D01*
X166094229Y-91822585D01*
X166094231Y-91822588D01*
X166185549Y-91930648D01*
X166212678Y-91962751D01*
X166218012Y-91966829D01*
X166358456Y-92074207D01*
X166358459Y-92074209D01*
X166363793Y-92078287D01*
X166369882Y-92081126D01*
X166369883Y-92081127D01*
X166471094Y-92128322D01*
X166536193Y-92158678D01*
X166542738Y-92160141D01*
X166542741Y-92160142D01*
X166592964Y-92171368D01*
X166721834Y-92200174D01*
X166727665Y-92200500D01*
X167517517Y-92200500D01*
X167659109Y-92185118D01*
X167699967Y-92171368D01*
X167746104Y-92155841D01*
X167839396Y-92124445D01*
X168002447Y-92026474D01*
X168140658Y-91895775D01*
X168155239Y-91874320D01*
X168243804Y-91744000D01*
X168243806Y-91743997D01*
X168247578Y-91738446D01*
X168250070Y-91732216D01*
X168250072Y-91732212D01*
X168315727Y-91568062D01*
X168318221Y-91561827D01*
X168332787Y-91473843D01*
X168348192Y-91380788D01*
X168348192Y-91380786D01*
X168349289Y-91374160D01*
X168339333Y-91184199D01*
X168288819Y-91000807D01*
X168200102Y-90832540D01*
X168130457Y-90750125D01*
X168081655Y-90692376D01*
X168081653Y-90692374D01*
X168077322Y-90687249D01*
X167991756Y-90621829D01*
X167931544Y-90575793D01*
X167931541Y-90575791D01*
X167926207Y-90571713D01*
X167880716Y-90550500D01*
X167759891Y-90494159D01*
X167753807Y-90491322D01*
X167747262Y-90489859D01*
X167747259Y-90489858D01*
X167635522Y-90464882D01*
X167568166Y-90449826D01*
X167562335Y-90449500D01*
X166772483Y-90449500D01*
X166630891Y-90464882D01*
X166450604Y-90525555D01*
X166287553Y-90623526D01*
X166282676Y-90628138D01*
X166155406Y-90748491D01*
X166149342Y-90754225D01*
X166145569Y-90759777D01*
X166145568Y-90759778D01*
X166047480Y-90904112D01*
X166042422Y-90911554D01*
X166039930Y-90917784D01*
X166039928Y-90917788D01*
X166009099Y-90994867D01*
X165971779Y-91088173D01*
X165970683Y-91094796D01*
X165970682Y-91094798D01*
X165942043Y-91267797D01*
X165940711Y-91275840D01*
X164630423Y-91275840D01*
X164628473Y-91269212D01*
X164577141Y-91094802D01*
X164577141Y-91094801D01*
X164575428Y-91088982D01*
X164482254Y-90910757D01*
X164388081Y-90793630D01*
X164360037Y-90758750D01*
X164360036Y-90758749D01*
X164356237Y-90754024D01*
X164202177Y-90624752D01*
X164025942Y-90527866D01*
X164020160Y-90526032D01*
X164020158Y-90526031D01*
X163840024Y-90468889D01*
X163840022Y-90468889D01*
X163834245Y-90467056D01*
X163779713Y-90460939D01*
X163681185Y-90449887D01*
X163681179Y-90449887D01*
X163677732Y-90449500D01*
X163019394Y-90449500D01*
X163016379Y-90449796D01*
X163016371Y-90449796D01*
X162875885Y-90463571D01*
X162875883Y-90463571D01*
X162869849Y-90464163D01*
X162677321Y-90522290D01*
X162671970Y-90525135D01*
X162671968Y-90525136D01*
X162624266Y-90550500D01*
X162499751Y-90616706D01*
X162343901Y-90743814D01*
X162215708Y-90898773D01*
X162212822Y-90904110D01*
X162212821Y-90904112D01*
X162157039Y-91007280D01*
X162120055Y-91075680D01*
X162060585Y-91267797D01*
X162039563Y-91467806D01*
X128500500Y-91467806D01*
X128500500Y-89840862D01*
X129615497Y-89840862D01*
X129645134Y-90013340D01*
X129713654Y-90174373D01*
X129717921Y-90180171D01*
X129717922Y-90180173D01*
X129775092Y-90257857D01*
X129817383Y-90315324D01*
X129822874Y-90319989D01*
X129822875Y-90319990D01*
X129945261Y-90423965D01*
X129945264Y-90423967D01*
X129950755Y-90428632D01*
X129957172Y-90431909D01*
X129957174Y-90431910D01*
X130019179Y-90463571D01*
X130106616Y-90508219D01*
X130113612Y-90509931D01*
X130113615Y-90509932D01*
X130177463Y-90525555D01*
X130276606Y-90549815D01*
X130282114Y-90550157D01*
X130282116Y-90550157D01*
X130285744Y-90550382D01*
X130285748Y-90550382D01*
X130287648Y-90550500D01*
X130413822Y-90550500D01*
X130543828Y-90535343D01*
X130550595Y-90532887D01*
X130550598Y-90532886D01*
X130701557Y-90478090D01*
X130701558Y-90478089D01*
X130708331Y-90475631D01*
X130854685Y-90379677D01*
X130859637Y-90374449D01*
X130859640Y-90374447D01*
X130970087Y-90257857D01*
X130970089Y-90257855D01*
X130975040Y-90252628D01*
X130978656Y-90246403D01*
X130978658Y-90246400D01*
X131059322Y-90107525D01*
X131062939Y-90101298D01*
X131113667Y-89933807D01*
X131124503Y-89759138D01*
X131094866Y-89586660D01*
X131026346Y-89425627D01*
X130973340Y-89353600D01*
X130926888Y-89290479D01*
X130926886Y-89290477D01*
X130922617Y-89284676D01*
X130842216Y-89216370D01*
X130794739Y-89176035D01*
X130794736Y-89176033D01*
X130789245Y-89171368D01*
X130782828Y-89168091D01*
X130782826Y-89168090D01*
X130692388Y-89121910D01*
X130633384Y-89091781D01*
X130626388Y-89090069D01*
X130626385Y-89090068D01*
X130555237Y-89072659D01*
X130463394Y-89050185D01*
X130457886Y-89049843D01*
X130457884Y-89049843D01*
X130454256Y-89049618D01*
X130454252Y-89049618D01*
X130452352Y-89049500D01*
X130326178Y-89049500D01*
X130196172Y-89064657D01*
X130189405Y-89067113D01*
X130189402Y-89067114D01*
X130038443Y-89121910D01*
X130031669Y-89124369D01*
X129885315Y-89220323D01*
X129880363Y-89225551D01*
X129880360Y-89225553D01*
X129818855Y-89290479D01*
X129764960Y-89347372D01*
X129761344Y-89353597D01*
X129761342Y-89353600D01*
X129722875Y-89419827D01*
X129677061Y-89498702D01*
X129626333Y-89666193D01*
X129615497Y-89840862D01*
X128500500Y-89840862D01*
X128500500Y-83737139D01*
X128502384Y-83715606D01*
X128505136Y-83700000D01*
X128503252Y-83689315D01*
X128503252Y-83679661D01*
X128502425Y-83665720D01*
X128503388Y-83648584D01*
X128504219Y-83633789D01*
X129795996Y-83633789D01*
X129799068Y-83715606D01*
X129804250Y-83853623D01*
X129804913Y-83871295D01*
X129805990Y-83876430D01*
X129805991Y-83876435D01*
X129837399Y-84026123D01*
X129853719Y-84103904D01*
X129941020Y-84324963D01*
X129943741Y-84329447D01*
X129943743Y-84329451D01*
X130011233Y-84440670D01*
X130064319Y-84528153D01*
X130220090Y-84707664D01*
X130403880Y-84858362D01*
X130408441Y-84860958D01*
X130408442Y-84860959D01*
X130605875Y-84973345D01*
X130605880Y-84973347D01*
X130610433Y-84975939D01*
X130833844Y-85057034D01*
X131067725Y-85099326D01*
X131092619Y-85100500D01*
X131259680Y-85100500D01*
X131262296Y-85100278D01*
X131262297Y-85100278D01*
X131431590Y-85085913D01*
X131436823Y-85085469D01*
X131666874Y-85025760D01*
X131883576Y-84928143D01*
X132080732Y-84795409D01*
X132252705Y-84631355D01*
X132394579Y-84440670D01*
X132396958Y-84435991D01*
X132499913Y-84233493D01*
X132499915Y-84233488D01*
X132502295Y-84228807D01*
X132572775Y-84001824D01*
X132589395Y-83876435D01*
X132603315Y-83771412D01*
X132603315Y-83771408D01*
X132604004Y-83766211D01*
X132595087Y-83528705D01*
X132591718Y-83512645D01*
X132547361Y-83301242D01*
X132547360Y-83301239D01*
X132546281Y-83296096D01*
X132540854Y-83282352D01*
X132498938Y-83176216D01*
X132458980Y-83075037D01*
X132421242Y-83012846D01*
X132390585Y-82962326D01*
X137302667Y-82962326D01*
X137355168Y-83158264D01*
X137358857Y-83168397D01*
X137454110Y-83372667D01*
X137459508Y-83382017D01*
X137588784Y-83566643D01*
X137595719Y-83574907D01*
X137755091Y-83734279D01*
X137763357Y-83741215D01*
X137947992Y-83870498D01*
X137957324Y-83875886D01*
X138161603Y-83971143D01*
X138171736Y-83974832D01*
X138362779Y-84026022D01*
X138376653Y-84025691D01*
X138380000Y-84017875D01*
X138380000Y-84012806D01*
X138880000Y-84012806D01*
X138883910Y-84026123D01*
X138892326Y-84027333D01*
X139088264Y-83974832D01*
X139098397Y-83971143D01*
X139302676Y-83875886D01*
X139312008Y-83870498D01*
X139496643Y-83741215D01*
X139504909Y-83734279D01*
X139664281Y-83574907D01*
X139671216Y-83566643D01*
X139800492Y-83382017D01*
X139805890Y-83372667D01*
X139897656Y-83175876D01*
X139943829Y-83123437D01*
X140011022Y-83104285D01*
X140077903Y-83124501D01*
X140122648Y-83176368D01*
X140169369Y-83277714D01*
X140172647Y-83282352D01*
X140259117Y-83404704D01*
X140291405Y-83450391D01*
X140442865Y-83597937D01*
X140447588Y-83601093D01*
X140447592Y-83601096D01*
X140496521Y-83633789D01*
X140618677Y-83715411D01*
X140812953Y-83798878D01*
X140848277Y-83806871D01*
X141013638Y-83844289D01*
X141013642Y-83844290D01*
X141019186Y-83845544D01*
X141145315Y-83850500D01*
X141224789Y-83853623D01*
X141224791Y-83853623D01*
X141230470Y-83853846D01*
X141236090Y-83853031D01*
X141236092Y-83853031D01*
X141434103Y-83824320D01*
X141434104Y-83824320D01*
X141439730Y-83823504D01*
X141458588Y-83817103D01*
X141634565Y-83757367D01*
X141634568Y-83757366D01*
X141639955Y-83755537D01*
X141644916Y-83752759D01*
X141644922Y-83752756D01*
X141800334Y-83665720D01*
X141824442Y-83652219D01*
X141852856Y-83628588D01*
X141982645Y-83520644D01*
X141987012Y-83517012D01*
X141990644Y-83512645D01*
X142118584Y-83358813D01*
X142118585Y-83358811D01*
X142122219Y-83354442D01*
X142222031Y-83176216D01*
X142222756Y-83174922D01*
X142222759Y-83174916D01*
X142225537Y-83169955D01*
X142249520Y-83099305D01*
X142291675Y-82975118D01*
X142293504Y-82969730D01*
X142295954Y-82952831D01*
X142317820Y-82802033D01*
X142346921Y-82738512D01*
X142400225Y-82704346D01*
X142480974Y-82704346D01*
X142534347Y-82738736D01*
X142563296Y-82802327D01*
X142564271Y-82811707D01*
X142568796Y-82880749D01*
X142620845Y-83085690D01*
X142623219Y-83090841D01*
X142623221Y-83090845D01*
X142660262Y-83171193D01*
X142709369Y-83277714D01*
X142712647Y-83282352D01*
X142799117Y-83404704D01*
X142831405Y-83450391D01*
X142982865Y-83597937D01*
X142987588Y-83601093D01*
X142987592Y-83601096D01*
X143036521Y-83633789D01*
X143158677Y-83715411D01*
X143352953Y-83798878D01*
X143388277Y-83806871D01*
X143553638Y-83844289D01*
X143553642Y-83844290D01*
X143559186Y-83845544D01*
X143685315Y-83850500D01*
X143764789Y-83853623D01*
X143764791Y-83853623D01*
X143770470Y-83853846D01*
X143776090Y-83853031D01*
X143776092Y-83853031D01*
X143974103Y-83824320D01*
X143974104Y-83824320D01*
X143979730Y-83823504D01*
X143998588Y-83817103D01*
X144174565Y-83757367D01*
X144174568Y-83757366D01*
X144179955Y-83755537D01*
X144184916Y-83752759D01*
X144184922Y-83752756D01*
X144340334Y-83665720D01*
X144364442Y-83652219D01*
X144392856Y-83628588D01*
X144522645Y-83520644D01*
X144527012Y-83517012D01*
X144530644Y-83512645D01*
X144658584Y-83358813D01*
X144658585Y-83358811D01*
X144662219Y-83354442D01*
X144762031Y-83176216D01*
X144762756Y-83174922D01*
X144762759Y-83174916D01*
X144765537Y-83169955D01*
X144789520Y-83099305D01*
X144831675Y-82975118D01*
X144833504Y-82969730D01*
X144847045Y-82876341D01*
X144852783Y-82836769D01*
X144881884Y-82773248D01*
X144940707Y-82735543D01*
X145010577Y-82735627D01*
X145069310Y-82773471D01*
X145098259Y-82837061D01*
X145099500Y-82854562D01*
X145099500Y-83594646D01*
X145102618Y-83620846D01*
X145148061Y-83723153D01*
X145227287Y-83802241D01*
X145237758Y-83806870D01*
X145237759Y-83806871D01*
X145321147Y-83843737D01*
X145321149Y-83843738D01*
X145329673Y-83847506D01*
X145355354Y-83850500D01*
X147144646Y-83850500D01*
X147148300Y-83850065D01*
X147148302Y-83850065D01*
X147153266Y-83849474D01*
X147170846Y-83847382D01*
X147273153Y-83801939D01*
X147352241Y-83722713D01*
X147356871Y-83712241D01*
X147393737Y-83628853D01*
X147393738Y-83628851D01*
X147397506Y-83620327D01*
X147400500Y-83594646D01*
X147400500Y-82962326D01*
X150302667Y-82962326D01*
X150355168Y-83158264D01*
X150358857Y-83168397D01*
X150454110Y-83372667D01*
X150459508Y-83382017D01*
X150588784Y-83566643D01*
X150595719Y-83574907D01*
X150755091Y-83734279D01*
X150763357Y-83741215D01*
X150947992Y-83870498D01*
X150957324Y-83875886D01*
X151161603Y-83971143D01*
X151171736Y-83974832D01*
X151362779Y-84026022D01*
X151376653Y-84025691D01*
X151380000Y-84017875D01*
X151380000Y-84012806D01*
X151880000Y-84012806D01*
X151883910Y-84026123D01*
X151892326Y-84027333D01*
X152088264Y-83974832D01*
X152098397Y-83971143D01*
X152302676Y-83875886D01*
X152312008Y-83870498D01*
X152496643Y-83741215D01*
X152504909Y-83734279D01*
X152664281Y-83574907D01*
X152671216Y-83566643D01*
X152800492Y-83382017D01*
X152805890Y-83372667D01*
X152897656Y-83175876D01*
X152943829Y-83123437D01*
X153011022Y-83104285D01*
X153077903Y-83124501D01*
X153122648Y-83176368D01*
X153169369Y-83277714D01*
X153172647Y-83282352D01*
X153259117Y-83404704D01*
X153291405Y-83450391D01*
X153442865Y-83597937D01*
X153447588Y-83601093D01*
X153447592Y-83601096D01*
X153496521Y-83633789D01*
X153618677Y-83715411D01*
X153812953Y-83798878D01*
X153848277Y-83806871D01*
X154013638Y-83844289D01*
X154013642Y-83844290D01*
X154019186Y-83845544D01*
X154145315Y-83850500D01*
X154224789Y-83853623D01*
X154224791Y-83853623D01*
X154230470Y-83853846D01*
X154236090Y-83853031D01*
X154236092Y-83853031D01*
X154434103Y-83824320D01*
X154434104Y-83824320D01*
X154439730Y-83823504D01*
X154458588Y-83817103D01*
X154634565Y-83757367D01*
X154634568Y-83757366D01*
X154639955Y-83755537D01*
X154644916Y-83752759D01*
X154644922Y-83752756D01*
X154800334Y-83665720D01*
X154824442Y-83652219D01*
X154852856Y-83628588D01*
X154982645Y-83520644D01*
X154987012Y-83517012D01*
X154990644Y-83512645D01*
X155118584Y-83358813D01*
X155118585Y-83358811D01*
X155122219Y-83354442D01*
X155222031Y-83176216D01*
X155222756Y-83174922D01*
X155222759Y-83174916D01*
X155225537Y-83169955D01*
X155249520Y-83099305D01*
X155291675Y-82975118D01*
X155293504Y-82969730D01*
X155295954Y-82952831D01*
X155317820Y-82802033D01*
X155346921Y-82738512D01*
X155400225Y-82704346D01*
X155480974Y-82704346D01*
X155534347Y-82738736D01*
X155563296Y-82802327D01*
X155564271Y-82811707D01*
X155568796Y-82880749D01*
X155620845Y-83085690D01*
X155623219Y-83090841D01*
X155623221Y-83090845D01*
X155660262Y-83171193D01*
X155709369Y-83277714D01*
X155712647Y-83282352D01*
X155799117Y-83404704D01*
X155831405Y-83450391D01*
X155982865Y-83597937D01*
X155987588Y-83601093D01*
X155987592Y-83601096D01*
X156036521Y-83633789D01*
X156158677Y-83715411D01*
X156352953Y-83798878D01*
X156388277Y-83806871D01*
X156553638Y-83844289D01*
X156553642Y-83844290D01*
X156559186Y-83845544D01*
X156685315Y-83850500D01*
X156764789Y-83853623D01*
X156764791Y-83853623D01*
X156770470Y-83853846D01*
X156776090Y-83853031D01*
X156776092Y-83853031D01*
X156974103Y-83824320D01*
X156974104Y-83824320D01*
X156979730Y-83823504D01*
X156998588Y-83817103D01*
X157174565Y-83757367D01*
X157174568Y-83757366D01*
X157179955Y-83755537D01*
X157184916Y-83752759D01*
X157184922Y-83752756D01*
X157340334Y-83665720D01*
X157364442Y-83652219D01*
X157392856Y-83628588D01*
X157522645Y-83520644D01*
X157527012Y-83517012D01*
X157530644Y-83512645D01*
X157658584Y-83358813D01*
X157658585Y-83358811D01*
X157662219Y-83354442D01*
X157762031Y-83176216D01*
X157762756Y-83174922D01*
X157762759Y-83174916D01*
X157765537Y-83169955D01*
X157789520Y-83099305D01*
X157831675Y-82975118D01*
X157833504Y-82969730D01*
X157847045Y-82876341D01*
X157852783Y-82836769D01*
X157881884Y-82773248D01*
X157940707Y-82735543D01*
X158010577Y-82735627D01*
X158069310Y-82773471D01*
X158098259Y-82837061D01*
X158099500Y-82854562D01*
X158099500Y-83594646D01*
X158102618Y-83620846D01*
X158148061Y-83723153D01*
X158227287Y-83802241D01*
X158237758Y-83806870D01*
X158237759Y-83806871D01*
X158321147Y-83843737D01*
X158321149Y-83843738D01*
X158329673Y-83847506D01*
X158355354Y-83850500D01*
X160144646Y-83850500D01*
X160148300Y-83850065D01*
X160148302Y-83850065D01*
X160153266Y-83849474D01*
X160170846Y-83847382D01*
X160273153Y-83801939D01*
X160352241Y-83722713D01*
X160356871Y-83712241D01*
X160391555Y-83633789D01*
X164795996Y-83633789D01*
X164799068Y-83715606D01*
X164804250Y-83853623D01*
X164804913Y-83871295D01*
X164805990Y-83876430D01*
X164805991Y-83876435D01*
X164837399Y-84026123D01*
X164853719Y-84103904D01*
X164941020Y-84324963D01*
X164943741Y-84329447D01*
X164943743Y-84329451D01*
X165011233Y-84440670D01*
X165064319Y-84528153D01*
X165220090Y-84707664D01*
X165403880Y-84858362D01*
X165408441Y-84860958D01*
X165408442Y-84860959D01*
X165605875Y-84973345D01*
X165605880Y-84973347D01*
X165610433Y-84975939D01*
X165833844Y-85057034D01*
X166067725Y-85099326D01*
X166092619Y-85100500D01*
X166259680Y-85100500D01*
X166262296Y-85100278D01*
X166262297Y-85100278D01*
X166431590Y-85085913D01*
X166436823Y-85085469D01*
X166666874Y-85025760D01*
X166883576Y-84928143D01*
X167080732Y-84795409D01*
X167252705Y-84631355D01*
X167394579Y-84440670D01*
X167396958Y-84435991D01*
X167499913Y-84233493D01*
X167499915Y-84233488D01*
X167502295Y-84228807D01*
X167572775Y-84001824D01*
X167589395Y-83876435D01*
X167603315Y-83771412D01*
X167603315Y-83771408D01*
X167604004Y-83766211D01*
X167595087Y-83528705D01*
X167591718Y-83512645D01*
X167547361Y-83301242D01*
X167547360Y-83301239D01*
X167546281Y-83296096D01*
X167540854Y-83282352D01*
X167498938Y-83176216D01*
X167458980Y-83075037D01*
X167421242Y-83012846D01*
X167338408Y-82876341D01*
X167335681Y-82871847D01*
X167190086Y-82704063D01*
X167183356Y-82696307D01*
X167183355Y-82696306D01*
X167179910Y-82692336D01*
X166996120Y-82541638D01*
X166991558Y-82539041D01*
X166794125Y-82426655D01*
X166794120Y-82426653D01*
X166789567Y-82424061D01*
X166566156Y-82342966D01*
X166332275Y-82300674D01*
X166307381Y-82299500D01*
X166140320Y-82299500D01*
X166137704Y-82299722D01*
X166137703Y-82299722D01*
X166126484Y-82300674D01*
X165963177Y-82314531D01*
X165733126Y-82374240D01*
X165516424Y-82471857D01*
X165319268Y-82604591D01*
X165147295Y-82768645D01*
X165005421Y-82959330D01*
X165003042Y-82964008D01*
X165003042Y-82964009D01*
X164901075Y-83164565D01*
X164897705Y-83171193D01*
X164896146Y-83176213D01*
X164896145Y-83176216D01*
X164835146Y-83372667D01*
X164827225Y-83398176D01*
X164826534Y-83403386D01*
X164826534Y-83403388D01*
X164797712Y-83620846D01*
X164795996Y-83633789D01*
X160391555Y-83633789D01*
X160393737Y-83628853D01*
X160393738Y-83628851D01*
X160397506Y-83620327D01*
X160400500Y-83594646D01*
X160400500Y-81805354D01*
X160397382Y-81779154D01*
X160351939Y-81676847D01*
X160272713Y-81597759D01*
X160262242Y-81593130D01*
X160262241Y-81593129D01*
X160178853Y-81556263D01*
X160178851Y-81556262D01*
X160170327Y-81552494D01*
X160144646Y-81549500D01*
X158355354Y-81549500D01*
X158351700Y-81549935D01*
X158351698Y-81549935D01*
X158346734Y-81550526D01*
X158329154Y-81552618D01*
X158226847Y-81598061D01*
X158147759Y-81677287D01*
X158143130Y-81687758D01*
X158143129Y-81687759D01*
X158108876Y-81765238D01*
X158102494Y-81779673D01*
X158099500Y-81805354D01*
X158099500Y-82542727D01*
X158079815Y-82609766D01*
X158027011Y-82655521D01*
X157957853Y-82665465D01*
X157894297Y-82636440D01*
X157856523Y-82577662D01*
X157852020Y-82554073D01*
X157849691Y-82528731D01*
X157846081Y-82489440D01*
X157788686Y-82285931D01*
X157695165Y-82096290D01*
X157568651Y-81926867D01*
X157564481Y-81923012D01*
X157564478Y-81923009D01*
X157458552Y-81825093D01*
X157413381Y-81783337D01*
X157407574Y-81779673D01*
X157239363Y-81673539D01*
X157239361Y-81673538D01*
X157234554Y-81670505D01*
X157038160Y-81592152D01*
X157032579Y-81591042D01*
X157032576Y-81591041D01*
X156934468Y-81571527D01*
X156830775Y-81550901D01*
X156825088Y-81550827D01*
X156825083Y-81550826D01*
X156625034Y-81548207D01*
X156625029Y-81548207D01*
X156619346Y-81548133D01*
X156613742Y-81549096D01*
X156613741Y-81549096D01*
X156416550Y-81582979D01*
X156416547Y-81582980D01*
X156410953Y-81583941D01*
X156212575Y-81657127D01*
X156207697Y-81660029D01*
X156207695Y-81660030D01*
X156035740Y-81762332D01*
X156035737Y-81762334D01*
X156030856Y-81765238D01*
X155871881Y-81904655D01*
X155868362Y-81909119D01*
X155868359Y-81909122D01*
X155850782Y-81931419D01*
X155740976Y-82070708D01*
X155642523Y-82257836D01*
X155640837Y-82263267D01*
X155640835Y-82263271D01*
X155606379Y-82374240D01*
X155579820Y-82459773D01*
X155562851Y-82603140D01*
X155535425Y-82667398D01*
X155480974Y-82704346D01*
X155400225Y-82704346D01*
X155400667Y-82704063D01*
X155348057Y-82672081D01*
X155317453Y-82609271D01*
X155316232Y-82599909D01*
X155309626Y-82528024D01*
X155306081Y-82489440D01*
X155248686Y-82285931D01*
X155155165Y-82096290D01*
X155028651Y-81926867D01*
X155024481Y-81923012D01*
X155024478Y-81923009D01*
X154918552Y-81825093D01*
X154873381Y-81783337D01*
X154867574Y-81779673D01*
X154699363Y-81673539D01*
X154699361Y-81673538D01*
X154694554Y-81670505D01*
X154498160Y-81592152D01*
X154492579Y-81591042D01*
X154492576Y-81591041D01*
X154394468Y-81571527D01*
X154290775Y-81550901D01*
X154285088Y-81550827D01*
X154285083Y-81550826D01*
X154085034Y-81548207D01*
X154085029Y-81548207D01*
X154079346Y-81548133D01*
X154073742Y-81549096D01*
X154073741Y-81549096D01*
X153876550Y-81582979D01*
X153876547Y-81582980D01*
X153870953Y-81583941D01*
X153672575Y-81657127D01*
X153667697Y-81660029D01*
X153667695Y-81660030D01*
X153495740Y-81762332D01*
X153495737Y-81762334D01*
X153490856Y-81765238D01*
X153331881Y-81904655D01*
X153328362Y-81909119D01*
X153328359Y-81909122D01*
X153310782Y-81931419D01*
X153200976Y-82070708D01*
X153198325Y-82075747D01*
X153118685Y-82227117D01*
X153070050Y-82277281D01*
X153002015Y-82293187D01*
X152936181Y-82269786D01*
X152896565Y-82221786D01*
X152805890Y-82027333D01*
X152800492Y-82017983D01*
X152671216Y-81833357D01*
X152664281Y-81825093D01*
X152504909Y-81665721D01*
X152496643Y-81658785D01*
X152312008Y-81529502D01*
X152302676Y-81524114D01*
X152098397Y-81428857D01*
X152088264Y-81425168D01*
X151897221Y-81373978D01*
X151883347Y-81374309D01*
X151880000Y-81382125D01*
X151880000Y-84012806D01*
X151380000Y-84012806D01*
X151380000Y-82967830D01*
X151375596Y-82952831D01*
X151374226Y-82951644D01*
X151366668Y-82950000D01*
X150317194Y-82950000D01*
X150303877Y-82953910D01*
X150302667Y-82962326D01*
X147400500Y-82962326D01*
X147400500Y-82432779D01*
X150303978Y-82432779D01*
X150304309Y-82446653D01*
X150312125Y-82450000D01*
X151362170Y-82450000D01*
X151377169Y-82445596D01*
X151378356Y-82444226D01*
X151380000Y-82436668D01*
X151380000Y-81387194D01*
X151376090Y-81373877D01*
X151367674Y-81372667D01*
X151171736Y-81425168D01*
X151161603Y-81428857D01*
X150957333Y-81524110D01*
X150947983Y-81529508D01*
X150763357Y-81658784D01*
X150755093Y-81665719D01*
X150595719Y-81825093D01*
X150588784Y-81833357D01*
X150459508Y-82017983D01*
X150454110Y-82027333D01*
X150358857Y-82231603D01*
X150355168Y-82241736D01*
X150303978Y-82432779D01*
X147400500Y-82432779D01*
X147400500Y-81805354D01*
X147397382Y-81779154D01*
X147351939Y-81676847D01*
X147272713Y-81597759D01*
X147262242Y-81593130D01*
X147262241Y-81593129D01*
X147178853Y-81556263D01*
X147178851Y-81556262D01*
X147170327Y-81552494D01*
X147144646Y-81549500D01*
X145355354Y-81549500D01*
X145351700Y-81549935D01*
X145351698Y-81549935D01*
X145346734Y-81550526D01*
X145329154Y-81552618D01*
X145226847Y-81598061D01*
X145147759Y-81677287D01*
X145143130Y-81687758D01*
X145143129Y-81687759D01*
X145108876Y-81765238D01*
X145102494Y-81779673D01*
X145099500Y-81805354D01*
X145099500Y-82542727D01*
X145079815Y-82609766D01*
X145027011Y-82655521D01*
X144957853Y-82665465D01*
X144894297Y-82636440D01*
X144856523Y-82577662D01*
X144852020Y-82554073D01*
X144849691Y-82528731D01*
X144846081Y-82489440D01*
X144788686Y-82285931D01*
X144695165Y-82096290D01*
X144568651Y-81926867D01*
X144564481Y-81923012D01*
X144564478Y-81923009D01*
X144458552Y-81825093D01*
X144413381Y-81783337D01*
X144407574Y-81779673D01*
X144239363Y-81673539D01*
X144239361Y-81673538D01*
X144234554Y-81670505D01*
X144038160Y-81592152D01*
X144032579Y-81591042D01*
X144032576Y-81591041D01*
X143934468Y-81571527D01*
X143830775Y-81550901D01*
X143825088Y-81550827D01*
X143825083Y-81550826D01*
X143625034Y-81548207D01*
X143625029Y-81548207D01*
X143619346Y-81548133D01*
X143613742Y-81549096D01*
X143613741Y-81549096D01*
X143416550Y-81582979D01*
X143416547Y-81582980D01*
X143410953Y-81583941D01*
X143212575Y-81657127D01*
X143207697Y-81660029D01*
X143207695Y-81660030D01*
X143035740Y-81762332D01*
X143035737Y-81762334D01*
X143030856Y-81765238D01*
X142871881Y-81904655D01*
X142868362Y-81909119D01*
X142868359Y-81909122D01*
X142850782Y-81931419D01*
X142740976Y-82070708D01*
X142642523Y-82257836D01*
X142640837Y-82263267D01*
X142640835Y-82263271D01*
X142606379Y-82374240D01*
X142579820Y-82459773D01*
X142562851Y-82603140D01*
X142535425Y-82667398D01*
X142480974Y-82704346D01*
X142400225Y-82704346D01*
X142400667Y-82704063D01*
X142348057Y-82672081D01*
X142317453Y-82609271D01*
X142316232Y-82599909D01*
X142309626Y-82528024D01*
X142306081Y-82489440D01*
X142248686Y-82285931D01*
X142155165Y-82096290D01*
X142028651Y-81926867D01*
X142024481Y-81923012D01*
X142024478Y-81923009D01*
X141918552Y-81825093D01*
X141873381Y-81783337D01*
X141867574Y-81779673D01*
X141699363Y-81673539D01*
X141699361Y-81673538D01*
X141694554Y-81670505D01*
X141498160Y-81592152D01*
X141492579Y-81591042D01*
X141492576Y-81591041D01*
X141394468Y-81571527D01*
X141290775Y-81550901D01*
X141285088Y-81550827D01*
X141285083Y-81550826D01*
X141085034Y-81548207D01*
X141085029Y-81548207D01*
X141079346Y-81548133D01*
X141073742Y-81549096D01*
X141073741Y-81549096D01*
X140876550Y-81582979D01*
X140876547Y-81582980D01*
X140870953Y-81583941D01*
X140672575Y-81657127D01*
X140667697Y-81660029D01*
X140667695Y-81660030D01*
X140495740Y-81762332D01*
X140495737Y-81762334D01*
X140490856Y-81765238D01*
X140331881Y-81904655D01*
X140328362Y-81909119D01*
X140328359Y-81909122D01*
X140310782Y-81931419D01*
X140200976Y-82070708D01*
X140198325Y-82075747D01*
X140118685Y-82227117D01*
X140070050Y-82277281D01*
X140002015Y-82293187D01*
X139936181Y-82269786D01*
X139896565Y-82221786D01*
X139805890Y-82027333D01*
X139800492Y-82017983D01*
X139671216Y-81833357D01*
X139664281Y-81825093D01*
X139504909Y-81665721D01*
X139496643Y-81658785D01*
X139312008Y-81529502D01*
X139302676Y-81524114D01*
X139098397Y-81428857D01*
X139088264Y-81425168D01*
X138897221Y-81373978D01*
X138883347Y-81374309D01*
X138880000Y-81382125D01*
X138880000Y-84012806D01*
X138380000Y-84012806D01*
X138380000Y-82967830D01*
X138375596Y-82952831D01*
X138374226Y-82951644D01*
X138366668Y-82950000D01*
X137317194Y-82950000D01*
X137303877Y-82953910D01*
X137302667Y-82962326D01*
X132390585Y-82962326D01*
X132338408Y-82876341D01*
X132335681Y-82871847D01*
X132190086Y-82704063D01*
X132183356Y-82696307D01*
X132183355Y-82696306D01*
X132179910Y-82692336D01*
X131996120Y-82541638D01*
X131991558Y-82539041D01*
X131804883Y-82432779D01*
X137303978Y-82432779D01*
X137304309Y-82446653D01*
X137312125Y-82450000D01*
X138362170Y-82450000D01*
X138377169Y-82445596D01*
X138378356Y-82444226D01*
X138380000Y-82436668D01*
X138380000Y-81387194D01*
X138376090Y-81373877D01*
X138367674Y-81372667D01*
X138171736Y-81425168D01*
X138161603Y-81428857D01*
X137957333Y-81524110D01*
X137947983Y-81529508D01*
X137763357Y-81658784D01*
X137755093Y-81665719D01*
X137595719Y-81825093D01*
X137588784Y-81833357D01*
X137459508Y-82017983D01*
X137454110Y-82027333D01*
X137358857Y-82231603D01*
X137355168Y-82241736D01*
X137303978Y-82432779D01*
X131804883Y-82432779D01*
X131794125Y-82426655D01*
X131794120Y-82426653D01*
X131789567Y-82424061D01*
X131566156Y-82342966D01*
X131332275Y-82300674D01*
X131307381Y-82299500D01*
X131140320Y-82299500D01*
X131137704Y-82299722D01*
X131137703Y-82299722D01*
X131126484Y-82300674D01*
X130963177Y-82314531D01*
X130733126Y-82374240D01*
X130516424Y-82471857D01*
X130319268Y-82604591D01*
X130147295Y-82768645D01*
X130005421Y-82959330D01*
X130003042Y-82964008D01*
X130003042Y-82964009D01*
X129901075Y-83164565D01*
X129897705Y-83171193D01*
X129896146Y-83176213D01*
X129896145Y-83176216D01*
X129835146Y-83372667D01*
X129827225Y-83398176D01*
X129826534Y-83403386D01*
X129826534Y-83403388D01*
X129797712Y-83620846D01*
X129795996Y-83633789D01*
X128504219Y-83633789D01*
X128514518Y-83450391D01*
X128517084Y-83404704D01*
X128518641Y-83390887D01*
X128567015Y-83106174D01*
X128570109Y-83092616D01*
X128575174Y-83075037D01*
X128643733Y-82837061D01*
X128650060Y-82815101D01*
X128654653Y-82801976D01*
X128765170Y-82535166D01*
X128771203Y-82522638D01*
X128885489Y-82315851D01*
X128910903Y-82269868D01*
X128918298Y-82258100D01*
X129085417Y-82022569D01*
X129094086Y-82011697D01*
X129286525Y-81796358D01*
X129296358Y-81786525D01*
X129511697Y-81594086D01*
X129522569Y-81585417D01*
X129758100Y-81418298D01*
X129769868Y-81410903D01*
X129882487Y-81348661D01*
X130022638Y-81271203D01*
X130035166Y-81265170D01*
X130301976Y-81154653D01*
X130315101Y-81150060D01*
X130592616Y-81070109D01*
X130606174Y-81067015D01*
X130890887Y-81018641D01*
X130904704Y-81017084D01*
X131065268Y-81008066D01*
X131165722Y-81002425D01*
X131179661Y-81003252D01*
X131189315Y-81003252D01*
X131200000Y-81005136D01*
X131215609Y-81002384D01*
X131237139Y-81000500D01*
X166162861Y-81000500D01*
X166184391Y-81002384D01*
G37*
%TD.AperFunction*%
%TD*%
M02*
