%TF.GenerationSoftware,KiCad,Pcbnew,(6.0.8)*%
%TF.CreationDate,2022-11-08T11:47:25+01:00*%
%TF.ProjectId,stm32,73746d33-322e-46b6-9963-61645f706362,rev?*%
%TF.SameCoordinates,Original*%
%TF.FileFunction,Legend,Top*%
%TF.FilePolarity,Positive*%
%FSLAX46Y46*%
G04 Gerber Fmt 4.6, Leading zero omitted, Abs format (unit mm)*
G04 Created by KiCad (PCBNEW (6.0.8)) date 2022-11-08 11:47:25*
%MOMM*%
%LPD*%
G01*
G04 APERTURE LIST*
%ADD10C,0.150000*%
%ADD11C,0.120000*%
G04 APERTURE END LIST*
D10*
%TO.C,C8*%
X141433333Y-99407142D02*
X141385714Y-99454761D01*
X141242857Y-99502380D01*
X141147619Y-99502380D01*
X141004761Y-99454761D01*
X140909523Y-99359523D01*
X140861904Y-99264285D01*
X140814285Y-99073809D01*
X140814285Y-98930952D01*
X140861904Y-98740476D01*
X140909523Y-98645238D01*
X141004761Y-98550000D01*
X141147619Y-98502380D01*
X141242857Y-98502380D01*
X141385714Y-98550000D01*
X141433333Y-98597619D01*
X142004761Y-98930952D02*
X141909523Y-98883333D01*
X141861904Y-98835714D01*
X141814285Y-98740476D01*
X141814285Y-98692857D01*
X141861904Y-98597619D01*
X141909523Y-98550000D01*
X142004761Y-98502380D01*
X142195238Y-98502380D01*
X142290476Y-98550000D01*
X142338095Y-98597619D01*
X142385714Y-98692857D01*
X142385714Y-98740476D01*
X142338095Y-98835714D01*
X142290476Y-98883333D01*
X142195238Y-98930952D01*
X142004761Y-98930952D01*
X141909523Y-98978571D01*
X141861904Y-99026190D01*
X141814285Y-99121428D01*
X141814285Y-99311904D01*
X141861904Y-99407142D01*
X141909523Y-99454761D01*
X142004761Y-99502380D01*
X142195238Y-99502380D01*
X142290476Y-99454761D01*
X142338095Y-99407142D01*
X142385714Y-99311904D01*
X142385714Y-99121428D01*
X142338095Y-99026190D01*
X142290476Y-98978571D01*
X142195238Y-98930952D01*
%TO.C,C4*%
X142883333Y-92307142D02*
X142835714Y-92354761D01*
X142692857Y-92402380D01*
X142597619Y-92402380D01*
X142454761Y-92354761D01*
X142359523Y-92259523D01*
X142311904Y-92164285D01*
X142264285Y-91973809D01*
X142264285Y-91830952D01*
X142311904Y-91640476D01*
X142359523Y-91545238D01*
X142454761Y-91450000D01*
X142597619Y-91402380D01*
X142692857Y-91402380D01*
X142835714Y-91450000D01*
X142883333Y-91497619D01*
X143740476Y-91735714D02*
X143740476Y-92402380D01*
X143502380Y-91354761D02*
X143264285Y-92069047D01*
X143883333Y-92069047D01*
%TO.C,C2*%
X162283333Y-102907142D02*
X162235714Y-102954761D01*
X162092857Y-103002380D01*
X161997619Y-103002380D01*
X161854761Y-102954761D01*
X161759523Y-102859523D01*
X161711904Y-102764285D01*
X161664285Y-102573809D01*
X161664285Y-102430952D01*
X161711904Y-102240476D01*
X161759523Y-102145238D01*
X161854761Y-102050000D01*
X161997619Y-102002380D01*
X162092857Y-102002380D01*
X162235714Y-102050000D01*
X162283333Y-102097619D01*
X162664285Y-102097619D02*
X162711904Y-102050000D01*
X162807142Y-102002380D01*
X163045238Y-102002380D01*
X163140476Y-102050000D01*
X163188095Y-102097619D01*
X163235714Y-102192857D01*
X163235714Y-102288095D01*
X163188095Y-102430952D01*
X162616666Y-103002380D01*
X163235714Y-103002380D01*
%TO.C,C5*%
X150833333Y-104107142D02*
X150785714Y-104154761D01*
X150642857Y-104202380D01*
X150547619Y-104202380D01*
X150404761Y-104154761D01*
X150309523Y-104059523D01*
X150261904Y-103964285D01*
X150214285Y-103773809D01*
X150214285Y-103630952D01*
X150261904Y-103440476D01*
X150309523Y-103345238D01*
X150404761Y-103250000D01*
X150547619Y-103202380D01*
X150642857Y-103202380D01*
X150785714Y-103250000D01*
X150833333Y-103297619D01*
X151738095Y-103202380D02*
X151261904Y-103202380D01*
X151214285Y-103678571D01*
X151261904Y-103630952D01*
X151357142Y-103583333D01*
X151595238Y-103583333D01*
X151690476Y-103630952D01*
X151738095Y-103678571D01*
X151785714Y-103773809D01*
X151785714Y-104011904D01*
X151738095Y-104107142D01*
X151690476Y-104154761D01*
X151595238Y-104202380D01*
X151357142Y-104202380D01*
X151261904Y-104154761D01*
X151214285Y-104107142D01*
%TO.C,J2*%
X165166666Y-89052380D02*
X165166666Y-89766666D01*
X165119047Y-89909523D01*
X165023809Y-90004761D01*
X164880952Y-90052380D01*
X164785714Y-90052380D01*
X165595238Y-89147619D02*
X165642857Y-89100000D01*
X165738095Y-89052380D01*
X165976190Y-89052380D01*
X166071428Y-89100000D01*
X166119047Y-89147619D01*
X166166666Y-89242857D01*
X166166666Y-89338095D01*
X166119047Y-89480952D01*
X165547619Y-90052380D01*
X166166666Y-90052380D01*
%TO.C,Y1*%
X134523809Y-95176190D02*
X134523809Y-95652380D01*
X134190476Y-94652380D02*
X134523809Y-95176190D01*
X134857142Y-94652380D01*
X135714285Y-95652380D02*
X135142857Y-95652380D01*
X135428571Y-95652380D02*
X135428571Y-94652380D01*
X135333333Y-94795238D01*
X135238095Y-94890476D01*
X135142857Y-94938095D01*
%TO.C,C10*%
X137949306Y-102697142D02*
X137901687Y-102744761D01*
X137758830Y-102792380D01*
X137663592Y-102792380D01*
X137520735Y-102744761D01*
X137425497Y-102649523D01*
X137377878Y-102554285D01*
X137330259Y-102363809D01*
X137330259Y-102220952D01*
X137377878Y-102030476D01*
X137425497Y-101935238D01*
X137520735Y-101840000D01*
X137663592Y-101792380D01*
X137758830Y-101792380D01*
X137901687Y-101840000D01*
X137949306Y-101887619D01*
X138901687Y-102792380D02*
X138330259Y-102792380D01*
X138615973Y-102792380D02*
X138615973Y-101792380D01*
X138520735Y-101935238D01*
X138425497Y-102030476D01*
X138330259Y-102078095D01*
X139520735Y-101792380D02*
X139615973Y-101792380D01*
X139711211Y-101840000D01*
X139758830Y-101887619D01*
X139806449Y-101982857D01*
X139854068Y-102173333D01*
X139854068Y-102411428D01*
X139806449Y-102601904D01*
X139758830Y-102697142D01*
X139711211Y-102744761D01*
X139615973Y-102792380D01*
X139520735Y-102792380D01*
X139425497Y-102744761D01*
X139377878Y-102697142D01*
X139330259Y-102601904D01*
X139282640Y-102411428D01*
X139282640Y-102173333D01*
X139330259Y-101982857D01*
X139377878Y-101887619D01*
X139425497Y-101840000D01*
X139520735Y-101792380D01*
%TO.C,C3*%
X142283333Y-89057142D02*
X142235714Y-89104761D01*
X142092857Y-89152380D01*
X141997619Y-89152380D01*
X141854761Y-89104761D01*
X141759523Y-89009523D01*
X141711904Y-88914285D01*
X141664285Y-88723809D01*
X141664285Y-88580952D01*
X141711904Y-88390476D01*
X141759523Y-88295238D01*
X141854761Y-88200000D01*
X141997619Y-88152380D01*
X142092857Y-88152380D01*
X142235714Y-88200000D01*
X142283333Y-88247619D01*
X142616666Y-88152380D02*
X143235714Y-88152380D01*
X142902380Y-88533333D01*
X143045238Y-88533333D01*
X143140476Y-88580952D01*
X143188095Y-88628571D01*
X143235714Y-88723809D01*
X143235714Y-88961904D01*
X143188095Y-89057142D01*
X143140476Y-89104761D01*
X143045238Y-89152380D01*
X142759523Y-89152380D01*
X142664285Y-89104761D01*
X142616666Y-89057142D01*
%TO.C,C11*%
X145307142Y-104057142D02*
X145259523Y-104104761D01*
X145116666Y-104152380D01*
X145021428Y-104152380D01*
X144878571Y-104104761D01*
X144783333Y-104009523D01*
X144735714Y-103914285D01*
X144688095Y-103723809D01*
X144688095Y-103580952D01*
X144735714Y-103390476D01*
X144783333Y-103295238D01*
X144878571Y-103200000D01*
X145021428Y-103152380D01*
X145116666Y-103152380D01*
X145259523Y-103200000D01*
X145307142Y-103247619D01*
X146259523Y-104152380D02*
X145688095Y-104152380D01*
X145973809Y-104152380D02*
X145973809Y-103152380D01*
X145878571Y-103295238D01*
X145783333Y-103390476D01*
X145688095Y-103438095D01*
X147211904Y-104152380D02*
X146640476Y-104152380D01*
X146926190Y-104152380D02*
X146926190Y-103152380D01*
X146830952Y-103295238D01*
X146735714Y-103390476D01*
X146640476Y-103438095D01*
%TO.C,C12*%
X140557142Y-91642857D02*
X140604761Y-91690476D01*
X140652380Y-91833333D01*
X140652380Y-91928571D01*
X140604761Y-92071428D01*
X140509523Y-92166666D01*
X140414285Y-92214285D01*
X140223809Y-92261904D01*
X140080952Y-92261904D01*
X139890476Y-92214285D01*
X139795238Y-92166666D01*
X139700000Y-92071428D01*
X139652380Y-91928571D01*
X139652380Y-91833333D01*
X139700000Y-91690476D01*
X139747619Y-91642857D01*
X140652380Y-90690476D02*
X140652380Y-91261904D01*
X140652380Y-90976190D02*
X139652380Y-90976190D01*
X139795238Y-91071428D01*
X139890476Y-91166666D01*
X139938095Y-91261904D01*
X139747619Y-90309523D02*
X139700000Y-90261904D01*
X139652380Y-90166666D01*
X139652380Y-89928571D01*
X139700000Y-89833333D01*
X139747619Y-89785714D01*
X139842857Y-89738095D01*
X139938095Y-89738095D01*
X140080952Y-89785714D01*
X140652380Y-90357142D01*
X140652380Y-89738095D01*
%TO.C,R2*%
X135233333Y-90352380D02*
X134900000Y-89876190D01*
X134661904Y-90352380D02*
X134661904Y-89352380D01*
X135042857Y-89352380D01*
X135138095Y-89400000D01*
X135185714Y-89447619D01*
X135233333Y-89542857D01*
X135233333Y-89685714D01*
X135185714Y-89780952D01*
X135138095Y-89828571D01*
X135042857Y-89876190D01*
X134661904Y-89876190D01*
X135614285Y-89447619D02*
X135661904Y-89400000D01*
X135757142Y-89352380D01*
X135995238Y-89352380D01*
X136090476Y-89400000D01*
X136138095Y-89447619D01*
X136185714Y-89542857D01*
X136185714Y-89638095D01*
X136138095Y-89780952D01*
X135566666Y-90352380D01*
X136185714Y-90352380D01*
%TO.C,C13*%
X138449306Y-98197142D02*
X138401687Y-98244761D01*
X138258830Y-98292380D01*
X138163592Y-98292380D01*
X138020735Y-98244761D01*
X137925497Y-98149523D01*
X137877878Y-98054285D01*
X137830259Y-97863809D01*
X137830259Y-97720952D01*
X137877878Y-97530476D01*
X137925497Y-97435238D01*
X138020735Y-97340000D01*
X138163592Y-97292380D01*
X138258830Y-97292380D01*
X138401687Y-97340000D01*
X138449306Y-97387619D01*
X139401687Y-98292380D02*
X138830259Y-98292380D01*
X139115973Y-98292380D02*
X139115973Y-97292380D01*
X139020735Y-97435238D01*
X138925497Y-97530476D01*
X138830259Y-97578095D01*
X139735021Y-97292380D02*
X140354068Y-97292380D01*
X140020735Y-97673333D01*
X140163592Y-97673333D01*
X140258830Y-97720952D01*
X140306449Y-97768571D01*
X140354068Y-97863809D01*
X140354068Y-98101904D01*
X140306449Y-98197142D01*
X140258830Y-98244761D01*
X140163592Y-98292380D01*
X139877878Y-98292380D01*
X139782640Y-98244761D01*
X139735021Y-98197142D01*
%TO.C,FB1*%
X141866666Y-103878571D02*
X141533333Y-103878571D01*
X141533333Y-104402380D02*
X141533333Y-103402380D01*
X142009523Y-103402380D01*
X142723809Y-103878571D02*
X142866666Y-103926190D01*
X142914285Y-103973809D01*
X142961904Y-104069047D01*
X142961904Y-104211904D01*
X142914285Y-104307142D01*
X142866666Y-104354761D01*
X142771428Y-104402380D01*
X142390476Y-104402380D01*
X142390476Y-103402380D01*
X142723809Y-103402380D01*
X142819047Y-103450000D01*
X142866666Y-103497619D01*
X142914285Y-103592857D01*
X142914285Y-103688095D01*
X142866666Y-103783333D01*
X142819047Y-103830952D01*
X142723809Y-103878571D01*
X142390476Y-103878571D01*
X143914285Y-104402380D02*
X143342857Y-104402380D01*
X143628571Y-104402380D02*
X143628571Y-103402380D01*
X143533333Y-103545238D01*
X143438095Y-103640476D01*
X143342857Y-103688095D01*
%TO.C,U2*%
X146938095Y-90052380D02*
X146938095Y-90861904D01*
X146985714Y-90957142D01*
X147033333Y-91004761D01*
X147128571Y-91052380D01*
X147319047Y-91052380D01*
X147414285Y-91004761D01*
X147461904Y-90957142D01*
X147509523Y-90861904D01*
X147509523Y-90052380D01*
X147938095Y-90147619D02*
X147985714Y-90100000D01*
X148080952Y-90052380D01*
X148319047Y-90052380D01*
X148414285Y-90100000D01*
X148461904Y-90147619D01*
X148509523Y-90242857D01*
X148509523Y-90338095D01*
X148461904Y-90480952D01*
X147890476Y-91052380D01*
X148509523Y-91052380D01*
%TO.C,C9*%
X138925497Y-101447142D02*
X138877878Y-101494761D01*
X138735021Y-101542380D01*
X138639783Y-101542380D01*
X138496925Y-101494761D01*
X138401687Y-101399523D01*
X138354068Y-101304285D01*
X138306449Y-101113809D01*
X138306449Y-100970952D01*
X138354068Y-100780476D01*
X138401687Y-100685238D01*
X138496925Y-100590000D01*
X138639783Y-100542380D01*
X138735021Y-100542380D01*
X138877878Y-100590000D01*
X138925497Y-100637619D01*
X139401687Y-101542380D02*
X139592164Y-101542380D01*
X139687402Y-101494761D01*
X139735021Y-101447142D01*
X139830259Y-101304285D01*
X139877878Y-101113809D01*
X139877878Y-100732857D01*
X139830259Y-100637619D01*
X139782640Y-100590000D01*
X139687402Y-100542380D01*
X139496925Y-100542380D01*
X139401687Y-100590000D01*
X139354068Y-100637619D01*
X139306449Y-100732857D01*
X139306449Y-100970952D01*
X139354068Y-101066190D01*
X139401687Y-101113809D01*
X139496925Y-101161428D01*
X139687402Y-101161428D01*
X139782640Y-101113809D01*
X139830259Y-101066190D01*
X139877878Y-100970952D01*
%TO.C,R5*%
X150433333Y-106602380D02*
X150100000Y-106126190D01*
X149861904Y-106602380D02*
X149861904Y-105602380D01*
X150242857Y-105602380D01*
X150338095Y-105650000D01*
X150385714Y-105697619D01*
X150433333Y-105792857D01*
X150433333Y-105935714D01*
X150385714Y-106030952D01*
X150338095Y-106078571D01*
X150242857Y-106126190D01*
X149861904Y-106126190D01*
X151338095Y-105602380D02*
X150861904Y-105602380D01*
X150814285Y-106078571D01*
X150861904Y-106030952D01*
X150957142Y-105983333D01*
X151195238Y-105983333D01*
X151290476Y-106030952D01*
X151338095Y-106078571D01*
X151385714Y-106173809D01*
X151385714Y-106411904D01*
X151338095Y-106507142D01*
X151290476Y-106554761D01*
X151195238Y-106602380D01*
X150957142Y-106602380D01*
X150861904Y-106554761D01*
X150814285Y-106507142D01*
%TO.C,C7*%
X142783333Y-90807142D02*
X142735714Y-90854761D01*
X142592857Y-90902380D01*
X142497619Y-90902380D01*
X142354761Y-90854761D01*
X142259523Y-90759523D01*
X142211904Y-90664285D01*
X142164285Y-90473809D01*
X142164285Y-90330952D01*
X142211904Y-90140476D01*
X142259523Y-90045238D01*
X142354761Y-89950000D01*
X142497619Y-89902380D01*
X142592857Y-89902380D01*
X142735714Y-89950000D01*
X142783333Y-89997619D01*
X143116666Y-89902380D02*
X143783333Y-89902380D01*
X143354761Y-90902380D01*
%TO.C,C6*%
X153533333Y-92757142D02*
X153485714Y-92804761D01*
X153342857Y-92852380D01*
X153247619Y-92852380D01*
X153104761Y-92804761D01*
X153009523Y-92709523D01*
X152961904Y-92614285D01*
X152914285Y-92423809D01*
X152914285Y-92280952D01*
X152961904Y-92090476D01*
X153009523Y-91995238D01*
X153104761Y-91900000D01*
X153247619Y-91852380D01*
X153342857Y-91852380D01*
X153485714Y-91900000D01*
X153533333Y-91947619D01*
X154390476Y-91852380D02*
X154200000Y-91852380D01*
X154104761Y-91900000D01*
X154057142Y-91947619D01*
X153961904Y-92090476D01*
X153914285Y-92280952D01*
X153914285Y-92661904D01*
X153961904Y-92757142D01*
X154009523Y-92804761D01*
X154104761Y-92852380D01*
X154295238Y-92852380D01*
X154390476Y-92804761D01*
X154438095Y-92757142D01*
X154485714Y-92661904D01*
X154485714Y-92423809D01*
X154438095Y-92328571D01*
X154390476Y-92280952D01*
X154295238Y-92233333D01*
X154104761Y-92233333D01*
X154009523Y-92280952D01*
X153961904Y-92328571D01*
X153914285Y-92423809D01*
%TO.C,R1*%
X164833333Y-102202380D02*
X164500000Y-101726190D01*
X164261904Y-102202380D02*
X164261904Y-101202380D01*
X164642857Y-101202380D01*
X164738095Y-101250000D01*
X164785714Y-101297619D01*
X164833333Y-101392857D01*
X164833333Y-101535714D01*
X164785714Y-101630952D01*
X164738095Y-101678571D01*
X164642857Y-101726190D01*
X164261904Y-101726190D01*
X165785714Y-102202380D02*
X165214285Y-102202380D01*
X165500000Y-102202380D02*
X165500000Y-101202380D01*
X165404761Y-101345238D01*
X165309523Y-101440476D01*
X165214285Y-101488095D01*
%TO.C,J3*%
X140516666Y-109202380D02*
X140516666Y-109916666D01*
X140469047Y-110059523D01*
X140373809Y-110154761D01*
X140230952Y-110202380D01*
X140135714Y-110202380D01*
X140897619Y-109202380D02*
X141516666Y-109202380D01*
X141183333Y-109583333D01*
X141326190Y-109583333D01*
X141421428Y-109630952D01*
X141469047Y-109678571D01*
X141516666Y-109773809D01*
X141516666Y-110011904D01*
X141469047Y-110107142D01*
X141421428Y-110154761D01*
X141326190Y-110202380D01*
X141040476Y-110202380D01*
X140945238Y-110154761D01*
X140897619Y-110107142D01*
%TO.C,D1*%
X166852380Y-104238095D02*
X165852380Y-104238095D01*
X165852380Y-104000000D01*
X165900000Y-103857142D01*
X165995238Y-103761904D01*
X166090476Y-103714285D01*
X166280952Y-103666666D01*
X166423809Y-103666666D01*
X166614285Y-103714285D01*
X166709523Y-103761904D01*
X166804761Y-103857142D01*
X166852380Y-104000000D01*
X166852380Y-104238095D01*
X166852380Y-102714285D02*
X166852380Y-103285714D01*
X166852380Y-103000000D02*
X165852380Y-103000000D01*
X165995238Y-103095238D01*
X166090476Y-103190476D01*
X166138095Y-103285714D01*
%TO.C,R4*%
X144183333Y-106602380D02*
X143850000Y-106126190D01*
X143611904Y-106602380D02*
X143611904Y-105602380D01*
X143992857Y-105602380D01*
X144088095Y-105650000D01*
X144135714Y-105697619D01*
X144183333Y-105792857D01*
X144183333Y-105935714D01*
X144135714Y-106030952D01*
X144088095Y-106078571D01*
X143992857Y-106126190D01*
X143611904Y-106126190D01*
X145040476Y-105935714D02*
X145040476Y-106602380D01*
X144802380Y-105554761D02*
X144564285Y-106269047D01*
X145183333Y-106269047D01*
%TO.C,U1*%
X157238095Y-109502380D02*
X157238095Y-110311904D01*
X157285714Y-110407142D01*
X157333333Y-110454761D01*
X157428571Y-110502380D01*
X157619047Y-110502380D01*
X157714285Y-110454761D01*
X157761904Y-110407142D01*
X157809523Y-110311904D01*
X157809523Y-109502380D01*
X158809523Y-110502380D02*
X158238095Y-110502380D01*
X158523809Y-110502380D02*
X158523809Y-109502380D01*
X158428571Y-109645238D01*
X158333333Y-109740476D01*
X158238095Y-109788095D01*
%TO.C,J4*%
X161616666Y-82152380D02*
X161616666Y-82866666D01*
X161569047Y-83009523D01*
X161473809Y-83104761D01*
X161330952Y-83152380D01*
X161235714Y-83152380D01*
X162521428Y-82485714D02*
X162521428Y-83152380D01*
X162283333Y-82104761D02*
X162045238Y-82819047D01*
X162664285Y-82819047D01*
%TO.C,R3*%
X157733333Y-93352380D02*
X157400000Y-92876190D01*
X157161904Y-93352380D02*
X157161904Y-92352380D01*
X157542857Y-92352380D01*
X157638095Y-92400000D01*
X157685714Y-92447619D01*
X157733333Y-92542857D01*
X157733333Y-92685714D01*
X157685714Y-92780952D01*
X157638095Y-92828571D01*
X157542857Y-92876190D01*
X157161904Y-92876190D01*
X158066666Y-92352380D02*
X158685714Y-92352380D01*
X158352380Y-92733333D01*
X158495238Y-92733333D01*
X158590476Y-92780952D01*
X158638095Y-92828571D01*
X158685714Y-92923809D01*
X158685714Y-93161904D01*
X158638095Y-93257142D01*
X158590476Y-93304761D01*
X158495238Y-93352380D01*
X158209523Y-93352380D01*
X158114285Y-93304761D01*
X158066666Y-93257142D01*
%TO.C,SW1*%
X130854761Y-98883333D02*
X130902380Y-98740476D01*
X130902380Y-98502380D01*
X130854761Y-98407142D01*
X130807142Y-98359523D01*
X130711904Y-98311904D01*
X130616666Y-98311904D01*
X130521428Y-98359523D01*
X130473809Y-98407142D01*
X130426190Y-98502380D01*
X130378571Y-98692857D01*
X130330952Y-98788095D01*
X130283333Y-98835714D01*
X130188095Y-98883333D01*
X130092857Y-98883333D01*
X129997619Y-98835714D01*
X129950000Y-98788095D01*
X129902380Y-98692857D01*
X129902380Y-98454761D01*
X129950000Y-98311904D01*
X129902380Y-97978571D02*
X130902380Y-97740476D01*
X130188095Y-97550000D01*
X130902380Y-97359523D01*
X129902380Y-97121428D01*
X130902380Y-96216666D02*
X130902380Y-96788095D01*
X130902380Y-96502380D02*
X129902380Y-96502380D01*
X130045238Y-96597619D01*
X130140476Y-96692857D01*
X130188095Y-96788095D01*
%TO.C,C1*%
X154783333Y-99657142D02*
X154735714Y-99704761D01*
X154592857Y-99752380D01*
X154497619Y-99752380D01*
X154354761Y-99704761D01*
X154259523Y-99609523D01*
X154211904Y-99514285D01*
X154164285Y-99323809D01*
X154164285Y-99180952D01*
X154211904Y-98990476D01*
X154259523Y-98895238D01*
X154354761Y-98800000D01*
X154497619Y-98752380D01*
X154592857Y-98752380D01*
X154735714Y-98800000D01*
X154783333Y-98847619D01*
X155735714Y-99752380D02*
X155164285Y-99752380D01*
X155450000Y-99752380D02*
X155450000Y-98752380D01*
X155354761Y-98895238D01*
X155259523Y-98990476D01*
X155164285Y-99038095D01*
%TO.C,J1*%
X135616666Y-82152380D02*
X135616666Y-82866666D01*
X135569047Y-83009523D01*
X135473809Y-83104761D01*
X135330952Y-83152380D01*
X135235714Y-83152380D01*
X136616666Y-83152380D02*
X136045238Y-83152380D01*
X136330952Y-83152380D02*
X136330952Y-82152380D01*
X136235714Y-82295238D01*
X136140476Y-82390476D01*
X136045238Y-82438095D01*
D11*
%TO.C,C8*%
X142060000Y-97557836D02*
X142060000Y-97342164D01*
X141340000Y-97557836D02*
X141340000Y-97342164D01*
%TO.C,C4*%
X141340000Y-93307836D02*
X141340000Y-93092164D01*
X142060000Y-93307836D02*
X142060000Y-93092164D01*
%TO.C,C2*%
X161965000Y-105311252D02*
X161965000Y-104788748D01*
X163435000Y-105311252D02*
X163435000Y-104788748D01*
%TO.C,C5*%
X150557836Y-102810000D02*
X150342164Y-102810000D01*
X150557836Y-102090000D02*
X150342164Y-102090000D01*
D10*
%TO.C,J2*%
X162795000Y-93400000D02*
X162795000Y-92400000D01*
X165945000Y-91050000D02*
X164545000Y-91050000D01*
X168945000Y-91350000D02*
X168495000Y-91350000D01*
X162795000Y-97000000D02*
X162795000Y-98000000D01*
X168495000Y-91350000D02*
X168495000Y-91050000D01*
X162370000Y-96275000D02*
X162370000Y-97000000D01*
X168345000Y-99350000D02*
X168495000Y-99350000D01*
X162370000Y-97000000D02*
X162795000Y-97000000D01*
X168495000Y-99050000D02*
X168945000Y-99050000D01*
X168495000Y-99350000D02*
X168495000Y-99050000D01*
X164545000Y-99350000D02*
X165945000Y-99350000D01*
X168495000Y-91050000D02*
X168345000Y-91050000D01*
D11*
%TO.C,Y1*%
X139350000Y-93200000D02*
X136050000Y-93200000D01*
X136050000Y-93200000D02*
X136050000Y-97200000D01*
%TO.C,C10*%
X141200000Y-102700000D02*
X140984328Y-102700000D01*
X141200000Y-101980000D02*
X140984328Y-101980000D01*
%TO.C,C3*%
X145059420Y-88190000D02*
X145340580Y-88190000D01*
X145059420Y-89210000D02*
X145340580Y-89210000D01*
%TO.C,C11*%
X145092164Y-102090000D02*
X145307836Y-102090000D01*
X145092164Y-102810000D02*
X145307836Y-102810000D01*
%TO.C,C12*%
X139840000Y-94307836D02*
X139840000Y-94092164D01*
X140560000Y-94307836D02*
X140560000Y-94092164D01*
%TO.C,R2*%
X134705000Y-91381359D02*
X134705000Y-91688641D01*
X133945000Y-91381359D02*
X133945000Y-91688641D01*
%TO.C,C13*%
X140560000Y-96307836D02*
X140560000Y-96092164D01*
X139840000Y-96307836D02*
X139840000Y-96092164D01*
%TO.C,FB1*%
X142440000Y-101862779D02*
X142440000Y-101537221D01*
X143460000Y-101862779D02*
X143460000Y-101537221D01*
%TO.C,U2*%
X144090000Y-93290000D02*
X142800000Y-93290000D01*
X144540000Y-92840000D02*
X144090000Y-92840000D01*
X150860000Y-100060000D02*
X151310000Y-100060000D01*
X144540000Y-100060000D02*
X144090000Y-100060000D01*
X151310000Y-92840000D02*
X151310000Y-93290000D01*
X150860000Y-92840000D02*
X151310000Y-92840000D01*
X144090000Y-92840000D02*
X144090000Y-93290000D01*
X144090000Y-100060000D02*
X144090000Y-99610000D01*
X151310000Y-100060000D02*
X151310000Y-99610000D01*
%TO.C,C9*%
X141200000Y-100730000D02*
X140984328Y-100730000D01*
X141200000Y-101450000D02*
X140984328Y-101450000D01*
%TO.C,R5*%
X148753641Y-106530000D02*
X148446359Y-106530000D01*
X148753641Y-105770000D02*
X148446359Y-105770000D01*
%TO.C,C7*%
X145072164Y-90090000D02*
X145287836Y-90090000D01*
X145072164Y-90810000D02*
X145287836Y-90810000D01*
%TO.C,C6*%
X154060000Y-93842164D02*
X154060000Y-94057836D01*
X153340000Y-93842164D02*
X153340000Y-94057836D01*
%TO.C,R1*%
X167496359Y-101332500D02*
X167803641Y-101332500D01*
X167496359Y-102092500D02*
X167803641Y-102092500D01*
%TO.C,J3*%
X152500000Y-110980000D02*
X152500000Y-108320000D01*
X144820000Y-110980000D02*
X152500000Y-110980000D01*
X144820000Y-110980000D02*
X144820000Y-108320000D01*
X144820000Y-108320000D02*
X152500000Y-108320000D01*
X142220000Y-110980000D02*
X142220000Y-109650000D01*
X143550000Y-110980000D02*
X142220000Y-110980000D01*
%TO.C,D1*%
X167165000Y-102477500D02*
X167165000Y-104762500D01*
X168635000Y-104762500D02*
X168635000Y-102477500D01*
X168635000Y-102477500D02*
X167165000Y-102477500D01*
%TO.C,R4*%
X146196359Y-106530000D02*
X146503641Y-106530000D01*
X146196359Y-105770000D02*
X146503641Y-105770000D01*
%TO.C,U1*%
X161110000Y-106960000D02*
X159850000Y-106960000D01*
X154290000Y-103200000D02*
X154290000Y-106960000D01*
X161110000Y-100950000D02*
X161110000Y-106960000D01*
X154290000Y-106960000D02*
X155550000Y-106960000D01*
%TO.C,J4*%
X150300000Y-81370000D02*
X150300000Y-84030000D01*
X157980000Y-81370000D02*
X157980000Y-84030000D01*
X159250000Y-81370000D02*
X160580000Y-81370000D01*
X157980000Y-81370000D02*
X150300000Y-81370000D01*
X157980000Y-84030000D02*
X150300000Y-84030000D01*
X160580000Y-81370000D02*
X160580000Y-82700000D01*
%TO.C,R3*%
X158330000Y-94421359D02*
X158330000Y-94728641D01*
X157570000Y-94421359D02*
X157570000Y-94728641D01*
%TO.C,SW1*%
X131820000Y-92700000D02*
X131820000Y-92900000D01*
X130770000Y-87850000D02*
X129980000Y-87850000D01*
X128970000Y-88450000D02*
X128970000Y-94150000D01*
X129980000Y-94750000D02*
X130770000Y-94750000D01*
X131820000Y-89700000D02*
X131820000Y-91400000D01*
%TO.C,C1*%
X157438748Y-100035000D02*
X157961252Y-100035000D01*
X157438748Y-98565000D02*
X157961252Y-98565000D01*
%TO.C,J1*%
X144980000Y-84030000D02*
X137300000Y-84030000D01*
X146250000Y-81370000D02*
X147580000Y-81370000D01*
X137300000Y-81370000D02*
X137300000Y-84030000D01*
X147580000Y-81370000D02*
X147580000Y-82700000D01*
X144980000Y-81370000D02*
X144980000Y-84030000D01*
X144980000Y-81370000D02*
X137300000Y-81370000D01*
%TD*%
M02*
