%TF.GenerationSoftware,KiCad,Pcbnew,(6.0.8)*%
%TF.CreationDate,2022-10-24T22:06:31+02:00*%
%TF.ProjectId,stm32,73746d33-322e-46b6-9963-61645f706362,rev?*%
%TF.SameCoordinates,Original*%
%TF.FileFunction,Soldermask,Top*%
%TF.FilePolarity,Negative*%
%FSLAX46Y46*%
G04 Gerber Fmt 4.6, Leading zero omitted, Abs format (unit mm)*
G04 Created by KiCad (PCBNEW (6.0.8)) date 2022-10-24 22:06:31*
%MOMM*%
%LPD*%
G01*
G04 APERTURE LIST*
G04 Aperture macros list*
%AMRoundRect*
0 Rectangle with rounded corners*
0 $1 Rounding radius*
0 $2 $3 $4 $5 $6 $7 $8 $9 X,Y pos of 4 corners*
0 Add a 4 corners polygon primitive as box body*
4,1,4,$2,$3,$4,$5,$6,$7,$8,$9,$2,$3,0*
0 Add four circle primitives for the rounded corners*
1,1,$1+$1,$2,$3*
1,1,$1+$1,$4,$5*
1,1,$1+$1,$6,$7*
1,1,$1+$1,$8,$9*
0 Add four rect primitives between the rounded corners*
20,1,$1+$1,$2,$3,$4,$5,0*
20,1,$1+$1,$4,$5,$6,$7,0*
20,1,$1+$1,$6,$7,$8,$9,0*
20,1,$1+$1,$8,$9,$2,$3,0*%
G04 Aperture macros list end*
%ADD10RoundRect,0.140000X-0.170000X0.140000X-0.170000X-0.140000X0.170000X-0.140000X0.170000X0.140000X0*%
%ADD11R,0.800000X1.000000*%
%ADD12C,0.900000*%
%ADD13R,1.500000X0.700000*%
%ADD14RoundRect,0.140000X0.170000X-0.140000X0.170000X0.140000X-0.170000X0.140000X-0.170000X-0.140000X0*%
%ADD15RoundRect,0.250000X0.475000X-0.250000X0.475000X0.250000X-0.475000X0.250000X-0.475000X-0.250000X0*%
%ADD16C,2.200000*%
%ADD17RoundRect,0.140000X0.140000X0.170000X-0.140000X0.170000X-0.140000X-0.170000X0.140000X-0.170000X0*%
%ADD18O,0.800000X0.800000*%
%ADD19R,1.300000X0.450000*%
%ADD20O,2.000000X1.450000*%
%ADD21O,1.800000X1.150000*%
%ADD22R,1.200000X1.400000*%
%ADD23RoundRect,0.225000X-0.225000X-0.250000X0.225000X-0.250000X0.225000X0.250000X-0.225000X0.250000X0*%
%ADD24RoundRect,0.140000X-0.140000X-0.170000X0.140000X-0.170000X0.140000X0.170000X-0.140000X0.170000X0*%
%ADD25RoundRect,0.135000X-0.185000X0.135000X-0.185000X-0.135000X0.185000X-0.135000X0.185000X0.135000X0*%
%ADD26RoundRect,0.218750X0.256250X-0.218750X0.256250X0.218750X-0.256250X0.218750X-0.256250X-0.218750X0*%
%ADD27RoundRect,0.075000X-0.075000X-0.662500X0.075000X-0.662500X0.075000X0.662500X-0.075000X0.662500X0*%
%ADD28RoundRect,0.075000X-0.662500X-0.075000X0.662500X-0.075000X0.662500X0.075000X-0.662500X0.075000X0*%
%ADD29RoundRect,0.135000X0.135000X0.185000X-0.135000X0.185000X-0.135000X-0.185000X0.135000X-0.185000X0*%
%ADD30RoundRect,0.135000X-0.135000X-0.185000X0.135000X-0.185000X0.135000X0.185000X-0.135000X0.185000X0*%
%ADD31R,1.700000X1.700000*%
%ADD32O,1.700000X1.700000*%
%ADD33RoundRect,0.218750X-0.256250X0.218750X-0.256250X-0.218750X0.256250X-0.218750X0.256250X0.218750X0*%
%ADD34R,1.500000X2.000000*%
%ADD35R,3.800000X2.000000*%
%ADD36RoundRect,0.250000X-0.250000X-0.475000X0.250000X-0.475000X0.250000X0.475000X-0.250000X0.475000X0*%
G04 APERTURE END LIST*
D10*
%TO.C,C6*%
X153700000Y-94430000D03*
X153700000Y-93470000D03*
%TD*%
D11*
%TO.C,SW1*%
X131480000Y-87650000D03*
X129270000Y-94950000D03*
X129270000Y-87650000D03*
X131480000Y-94950000D03*
D12*
X130370000Y-92800000D03*
X130370000Y-89800000D03*
D13*
X132130000Y-89050000D03*
X132130000Y-92050000D03*
X132130000Y-93550000D03*
%TD*%
D14*
%TO.C,C8*%
X141700000Y-97930000D03*
X141700000Y-96970000D03*
%TD*%
%TO.C,C4*%
X141700000Y-93680000D03*
X141700000Y-92720000D03*
%TD*%
D15*
%TO.C,C2*%
X162700000Y-106000000D03*
X162700000Y-104100000D03*
%TD*%
D16*
%TO.C,H1*%
X131200000Y-83700000D03*
%TD*%
D17*
%TO.C,C5*%
X149970000Y-102450000D03*
X150930000Y-102450000D03*
%TD*%
D18*
%TO.C,J2*%
X164395000Y-97700000D03*
X164395000Y-92700000D03*
D19*
X163295000Y-96500000D03*
X163295000Y-95850000D03*
X163295000Y-95200000D03*
X163295000Y-94550000D03*
X163295000Y-93900000D03*
D20*
X163345000Y-91475000D03*
D21*
X167145000Y-99075000D03*
X167145000Y-91325000D03*
D20*
X163345000Y-98925000D03*
%TD*%
D22*
%TO.C,Y1*%
X136850000Y-94100000D03*
X136850000Y-96300000D03*
X138550000Y-96300000D03*
X138550000Y-94100000D03*
%TD*%
D17*
%TO.C,C10*%
X141572164Y-102340000D03*
X140612164Y-102340000D03*
%TD*%
D23*
%TO.C,C3*%
X144425000Y-88700000D03*
X145975000Y-88700000D03*
%TD*%
D16*
%TO.C,H2*%
X166200000Y-83700000D03*
%TD*%
D24*
%TO.C,C11*%
X144720000Y-102450000D03*
X145680000Y-102450000D03*
%TD*%
D14*
%TO.C,C12*%
X140200000Y-94680000D03*
X140200000Y-93720000D03*
%TD*%
D25*
%TO.C,R2*%
X134325000Y-91025000D03*
X134325000Y-92045000D03*
%TD*%
D14*
%TO.C,C13*%
X140200000Y-96680000D03*
X140200000Y-95720000D03*
%TD*%
D26*
%TO.C,FB1*%
X142950000Y-100912500D03*
X142950000Y-102487500D03*
%TD*%
D27*
%TO.C,U2*%
X144950000Y-92287500D03*
X145450000Y-92287500D03*
X145950000Y-92287500D03*
X146450000Y-92287500D03*
X146950000Y-92287500D03*
X147450000Y-92287500D03*
X147950000Y-92287500D03*
X148450000Y-92287500D03*
X148950000Y-92287500D03*
X149450000Y-92287500D03*
X149950000Y-92287500D03*
X150450000Y-92287500D03*
D28*
X151862500Y-93700000D03*
X151862500Y-94200000D03*
X151862500Y-94700000D03*
X151862500Y-95200000D03*
X151862500Y-95700000D03*
X151862500Y-96200000D03*
X151862500Y-96700000D03*
X151862500Y-97200000D03*
X151862500Y-97700000D03*
X151862500Y-98200000D03*
X151862500Y-98700000D03*
X151862500Y-99200000D03*
D27*
X150450000Y-100612500D03*
X149950000Y-100612500D03*
X149450000Y-100612500D03*
X148950000Y-100612500D03*
X148450000Y-100612500D03*
X147950000Y-100612500D03*
X147450000Y-100612500D03*
X146950000Y-100612500D03*
X146450000Y-100612500D03*
X145950000Y-100612500D03*
X145450000Y-100612500D03*
X144950000Y-100612500D03*
D28*
X143537500Y-99200000D03*
X143537500Y-98700000D03*
X143537500Y-98200000D03*
X143537500Y-97700000D03*
X143537500Y-97200000D03*
X143537500Y-96700000D03*
X143537500Y-96200000D03*
X143537500Y-95700000D03*
X143537500Y-95200000D03*
X143537500Y-94700000D03*
X143537500Y-94200000D03*
X143537500Y-93700000D03*
%TD*%
D17*
%TO.C,C9*%
X141572164Y-101090000D03*
X140612164Y-101090000D03*
%TD*%
D29*
%TO.C,R5*%
X148090000Y-106150000D03*
X149110000Y-106150000D03*
%TD*%
D24*
%TO.C,C7*%
X144700000Y-90450000D03*
X145660000Y-90450000D03*
%TD*%
D30*
%TO.C,R1*%
X167140000Y-101712500D03*
X168160000Y-101712500D03*
%TD*%
D16*
%TO.C,H4*%
X166200000Y-108700000D03*
%TD*%
D31*
%TO.C,J3*%
X143550000Y-109650000D03*
D32*
X146090000Y-109650000D03*
X148630000Y-109650000D03*
X151170000Y-109650000D03*
%TD*%
D33*
%TO.C,D1*%
X167900000Y-103175000D03*
X167900000Y-104750000D03*
%TD*%
D30*
%TO.C,R4*%
X146860000Y-106150000D03*
X145840000Y-106150000D03*
%TD*%
D34*
%TO.C,U1*%
X160000000Y-101900000D03*
D35*
X157700000Y-108200000D03*
D34*
X157700000Y-101900000D03*
X155400000Y-101900000D03*
%TD*%
D31*
%TO.C,J4*%
X159250000Y-82700000D03*
D32*
X156710000Y-82700000D03*
X154170000Y-82700000D03*
X151630000Y-82700000D03*
%TD*%
D25*
%TO.C,R3*%
X157950000Y-94065000D03*
X157950000Y-95085000D03*
%TD*%
D36*
%TO.C,C1*%
X156750000Y-99300000D03*
X158650000Y-99300000D03*
%TD*%
D16*
%TO.C,H3*%
X131200000Y-108700000D03*
%TD*%
D31*
%TO.C,J1*%
X146250000Y-82700000D03*
D32*
X143710000Y-82700000D03*
X141170000Y-82700000D03*
X138630000Y-82700000D03*
%TD*%
M02*
