M48
; DRILL file {KiCad (6.0.8)} date Tue Nov  8 11:47:16 2022
; FORMAT={-:-/ absolute / metric / decimal}
; #@! TF.CreationDate,2022-11-08T11:47:16+01:00
; #@! TF.GenerationSoftware,Kicad,Pcbnew,(6.0.8)
; #@! TF.FileFunction,MixedPlating,1,2
FMAT,2
METRIC
; #@! TA.AperFunction,Plated,PTH,ViaDrill
T1C0.300
; #@! TA.AperFunction,Plated,PTH,ComponentDrill
T2C0.550
; #@! TA.AperFunction,Plated,PTH,ComponentDrill
T3C0.850
; #@! TA.AperFunction,Plated,PTH,ComponentDrill
T4C1.000
; #@! TA.AperFunction,NonPlated,NPTH,ComponentDrill
T5C0.800
; #@! TA.AperFunction,NonPlated,NPTH,ComponentDrill
T6C0.900
; #@! TA.AperFunction,NonPlated,NPTH,ComponentDrill
T7C2.200
%
G90
G05
T1
X133.5Y-89.05
X136.8Y-97.85
X138.6Y-92.55
X140.2Y-92.75
X140.6Y-100.15
X140.6Y-103.25
X141.1Y-95.55
X141.7Y-91.85
X145.0Y-97.2
X145.141Y-107.15
X145.4Y-93.45
X146.54Y-107.15
X146.6Y-102.45
X148.41Y-104.65
X149.809Y-104.65
X149.95Y-99.075
X154.8Y-94.45
X159.6Y-103.65
X160.0Y-99.15
X160.0Y-100.05
X160.5Y-103.65
X161.3Y-93.85
X164.1Y-104.05
X166.1Y-101.662
T4
X138.63Y-82.7
X141.17Y-82.7
X143.55Y-109.65
X143.71Y-82.7
X146.09Y-109.65
X146.25Y-82.7
X148.63Y-109.65
X151.17Y-109.65
X151.63Y-82.7
X154.17Y-82.7
X156.71Y-82.7
X159.25Y-82.7
T5
X164.395Y-92.7
X164.395Y-97.7
T6
X130.37Y-89.8
X130.37Y-92.8
T7
X131.2Y-83.7
X131.2Y-108.7
X166.2Y-83.7
X166.2Y-108.7
T2
G00X166.82Y-91.325
M15
G01X167.47Y-91.325
M16
G05
G00X166.82Y-99.075
M15
G01X167.47Y-99.075
M16
G05
T3
G00X163.07Y-91.475
M15
G01X163.62Y-91.475
M16
G05
G00X163.07Y-98.925
M15
G01X163.62Y-98.925
M16
G05
T0
M30
