%TF.GenerationSoftware,KiCad,Pcbnew,(6.0.8)*%
%TF.CreationDate,2022-10-21T18:04:50+02:00*%
%TF.ProjectId,VCU,5643552e-6b69-4636-9164-5f7063625858,rev?*%
%TF.SameCoordinates,Original*%
%TF.FileFunction,Copper,L2,Bot*%
%TF.FilePolarity,Positive*%
%FSLAX46Y46*%
G04 Gerber Fmt 4.6, Leading zero omitted, Abs format (unit mm)*
G04 Created by KiCad (PCBNEW (6.0.8)) date 2022-10-21 18:04:50*
%MOMM*%
%LPD*%
G01*
G04 APERTURE LIST*
G04 Aperture macros list*
%AMRoundRect*
0 Rectangle with rounded corners*
0 $1 Rounding radius*
0 $2 $3 $4 $5 $6 $7 $8 $9 X,Y pos of 4 corners*
0 Add a 4 corners polygon primitive as box body*
4,1,4,$2,$3,$4,$5,$6,$7,$8,$9,$2,$3,0*
0 Add four circle primitives for the rounded corners*
1,1,$1+$1,$2,$3*
1,1,$1+$1,$4,$5*
1,1,$1+$1,$6,$7*
1,1,$1+$1,$8,$9*
0 Add four rect primitives between the rounded corners*
20,1,$1+$1,$2,$3,$4,$5,0*
20,1,$1+$1,$4,$5,$6,$7,0*
20,1,$1+$1,$6,$7,$8,$9,0*
20,1,$1+$1,$8,$9,$2,$3,0*%
G04 Aperture macros list end*
%TA.AperFunction,ComponentPad*%
%ADD10C,1.600000*%
%TD*%
%TA.AperFunction,ComponentPad*%
%ADD11R,1.600000X1.600000*%
%TD*%
%TA.AperFunction,ComponentPad*%
%ADD12O,1.600000X1.600000*%
%TD*%
%TA.AperFunction,ComponentPad*%
%ADD13RoundRect,0.250000X-0.600000X-0.725000X0.600000X-0.725000X0.600000X0.725000X-0.600000X0.725000X0*%
%TD*%
%TA.AperFunction,ComponentPad*%
%ADD14O,1.700000X1.950000*%
%TD*%
%TA.AperFunction,ComponentPad*%
%ADD15R,2.000000X1.905000*%
%TD*%
%TA.AperFunction,ComponentPad*%
%ADD16O,2.000000X1.905000*%
%TD*%
%TA.AperFunction,ComponentPad*%
%ADD17C,3.556000*%
%TD*%
%TA.AperFunction,ComponentPad*%
%ADD18C,3.810000*%
%TD*%
%TA.AperFunction,ComponentPad*%
%ADD19R,2.400000X2.400000*%
%TD*%
%TA.AperFunction,ComponentPad*%
%ADD20C,2.400000*%
%TD*%
%TA.AperFunction,ComponentPad*%
%ADD21R,2.200000X2.200000*%
%TD*%
%TA.AperFunction,ComponentPad*%
%ADD22O,2.200000X2.200000*%
%TD*%
%TA.AperFunction,ComponentPad*%
%ADD23RoundRect,0.250000X-0.725000X0.600000X-0.725000X-0.600000X0.725000X-0.600000X0.725000X0.600000X0*%
%TD*%
%TA.AperFunction,ComponentPad*%
%ADD24O,1.950000X1.700000*%
%TD*%
%TA.AperFunction,ComponentPad*%
%ADD25C,4.400000*%
%TD*%
%TA.AperFunction,ComponentPad*%
%ADD26RoundRect,0.250000X-0.620000X-0.620000X0.620000X-0.620000X0.620000X0.620000X-0.620000X0.620000X0*%
%TD*%
%TA.AperFunction,ComponentPad*%
%ADD27C,1.740000*%
%TD*%
G04 APERTURE END LIST*
D10*
%TO.P,C4,1*%
%TO.N,+8V*%
X187415000Y-98580000D03*
%TO.P,C4,2*%
%TO.N,GND*%
X184915000Y-98580000D03*
%TD*%
%TO.P,C6,1*%
%TO.N,+8V*%
X187360000Y-104000000D03*
%TO.P,C6,2*%
%TO.N,GND*%
X184860000Y-104000000D03*
%TD*%
%TO.P,C3,1*%
%TO.N,Net-(C3-Pad1)*%
X124660000Y-112750000D03*
%TO.P,C3,2*%
%TO.N,GND*%
X122160000Y-112750000D03*
%TD*%
%TO.P,C2,1*%
%TO.N,Net-(C1-Pad1)*%
X124660000Y-101000000D03*
%TO.P,C2,2*%
%TO.N,GND*%
X122160000Y-101000000D03*
%TD*%
%TO.P,C7,1*%
%TO.N,+12V*%
X187415000Y-109580000D03*
%TO.P,C7,2*%
%TO.N,GND*%
X184915000Y-109580000D03*
%TD*%
D11*
%TO.P,U1,1,Vin*%
%TO.N,Net-(C1-Pad1)*%
X133360000Y-103000000D03*
D12*
%TO.P,U1,2,NC*%
%TO.N,unconnected-(U1-Pad2)*%
X133360000Y-105540000D03*
%TO.P,U1,3,Vinb*%
%TO.N,Net-(C3-Pad1)*%
X133360000Y-108080000D03*
%TO.P,U1,4,Vref*%
X133360000Y-110620000D03*
%TO.P,U1,5,Voutb*%
%TO.N,Net-(R4-Pad1)*%
X140980000Y-110620000D03*
%TO.P,U1,6,Vcc*%
%TO.N,+8V*%
X140980000Y-108080000D03*
%TO.P,U1,7,Vee*%
%TO.N,GND*%
X140980000Y-105540000D03*
%TO.P,U1,8,Vout*%
%TO.N,Net-(R3-Pad1)*%
X140980000Y-103000000D03*
%TD*%
D13*
%TO.P,J2,1*%
%TO.N,Net-(D1-Pad1)*%
X157110000Y-81580000D03*
D14*
%TO.P,J2,2*%
%TO.N,Net-(D1-Pad2)*%
X159610000Y-81580000D03*
%TO.P,J2,3*%
%TO.N,unconnected-(J2-Pad3)*%
X162110000Y-81580000D03*
%TO.P,J2,4*%
%TO.N,GND*%
X164610000Y-81580000D03*
%TD*%
D10*
%TO.P,R3,1*%
%TO.N,Net-(R3-Pad1)*%
X146580000Y-104000000D03*
D12*
%TO.P,R3,2*%
%TO.N,/TWISTED_PAIR_out_to_J2*%
X156740000Y-104000000D03*
%TD*%
D15*
%TO.P,U2,1,VI*%
%TO.N,+8V*%
X193470000Y-101540000D03*
D16*
%TO.P,U2,2,GND*%
%TO.N,GND*%
X193470000Y-104080000D03*
%TO.P,U2,3,VO*%
%TO.N,+12V*%
X193470000Y-106620000D03*
%TD*%
D10*
%TO.P,R2,1*%
%TO.N,+8V*%
X117080000Y-105000000D03*
D12*
%TO.P,R2,2*%
%TO.N,Net-(C3-Pad1)*%
X127240000Y-105000000D03*
%TD*%
D17*
%TO.P,J5,1,In*%
%TO.N,/Video_2_to_J5*%
X106360000Y-107580000D03*
D18*
%TO.P,J5,2,Ext*%
%TO.N,GND*%
X103185000Y-110755000D03*
X103185000Y-104405000D03*
X109535000Y-110755000D03*
X109535000Y-104405000D03*
%TD*%
D19*
%TO.P,J1,1*%
%TO.N,unconnected-(J1-Pad1)*%
X172860000Y-83580000D03*
D20*
%TO.P,J1,2*%
%TO.N,/J1_2_to_J3_8*%
X176360000Y-83580000D03*
%TO.P,J1,3*%
%TO.N,/TWISTED_PAIR_out_to_J2*%
X179860000Y-83580000D03*
%TO.P,J1,4*%
%TO.N,/TWISTED_PAIR_outb_to_J2*%
X183360000Y-83580000D03*
%TO.P,J1,5*%
%TO.N,unconnected-(J1-Pad5)*%
X186860000Y-83580000D03*
%TO.P,J1,6*%
%TO.N,GND*%
X190360000Y-83580000D03*
%TD*%
D10*
%TO.P,R6,1*%
%TO.N,Net-(C3-Pad1)*%
X127160000Y-109000000D03*
D12*
%TO.P,R6,2*%
%TO.N,GND*%
X117000000Y-109000000D03*
%TD*%
D10*
%TO.P,L1,1,1*%
%TO.N,/J3_1_to_L2*%
X131920000Y-90000000D03*
D12*
%TO.P,L1,2,2*%
%TO.N,Net-(D1-Pad2)*%
X142080000Y-90000000D03*
%TD*%
D10*
%TO.P,R1,1*%
%TO.N,Net-(C1-Pad1)*%
X131080000Y-97000000D03*
D12*
%TO.P,R1,2*%
%TO.N,+8V*%
X141240000Y-97000000D03*
%TD*%
D10*
%TO.P,L2,1,1*%
%TO.N,+12V*%
X156580000Y-97000000D03*
D12*
%TO.P,L2,2,2*%
%TO.N,Net-(J3-Pad7)*%
X146420000Y-97000000D03*
%TD*%
D11*
%TO.P,C8,1*%
%TO.N,+12V*%
X172512651Y-108080000D03*
D10*
%TO.P,C8,2*%
%TO.N,GND*%
X170012651Y-108080000D03*
%TD*%
D21*
%TO.P,D1,1,K*%
%TO.N,Net-(D1-Pad1)*%
X155780000Y-88080000D03*
D22*
%TO.P,D1,2,A*%
%TO.N,Net-(D1-Pad2)*%
X165940000Y-88080000D03*
%TD*%
D10*
%TO.P,R4,1*%
%TO.N,Net-(R4-Pad1)*%
X146660000Y-109500000D03*
D12*
%TO.P,R4,2*%
%TO.N,/TWISTED_PAIR_outb_to_J2*%
X156820000Y-109500000D03*
%TD*%
D10*
%TO.P,R5,1*%
%TO.N,Net-(C1-Pad1)*%
X127240000Y-97000000D03*
D12*
%TO.P,R5,2*%
%TO.N,GND*%
X117080000Y-97000000D03*
%TD*%
D23*
%TO.P,J4,1,Pin_1*%
%TO.N,GND*%
X97360000Y-89080000D03*
D24*
%TO.P,J4,2,Pin_2*%
%TO.N,/Video_1_to_C1*%
X97360000Y-91580000D03*
%TO.P,J4,3,Pin_3*%
%TO.N,GND*%
X97360000Y-94080000D03*
%TO.P,J4,4,Pin_4*%
%TO.N,/Video_2_to_J5*%
X97360000Y-96580000D03*
%TD*%
D11*
%TO.P,C5,1*%
%TO.N,+8V*%
X172665302Y-99080000D03*
D10*
%TO.P,C5,2*%
%TO.N,GND*%
X170165302Y-99080000D03*
%TD*%
D11*
%TO.P,C1,1*%
%TO.N,Net-(C1-Pad1)*%
X113182380Y-91500000D03*
D10*
%TO.P,C1,2*%
%TO.N,/Video_1_to_C1*%
X110682380Y-91500000D03*
%TD*%
D25*
%TO.P,H1,1,1*%
%TO.N,GND*%
X96500000Y-81250000D03*
%TD*%
D26*
%TO.P,J3,1,Pin_1*%
%TO.N,/J3_1_to_L2*%
X125360000Y-82580000D03*
D27*
%TO.P,J3,2,Pin_2*%
%TO.N,Net-(J3-Pad2)*%
X127900000Y-82580000D03*
%TO.P,J3,3,Pin_3*%
%TO.N,unconnected-(J3-Pad3)*%
X130440000Y-82580000D03*
%TO.P,J3,4,Pin_4*%
%TO.N,Net-(J3-Pad2)*%
X132980000Y-82580000D03*
%TO.P,J3,5,Pin_5*%
%TO.N,unconnected-(J3-Pad5)*%
X135520000Y-82580000D03*
%TO.P,J3,6,Pin_6*%
%TO.N,unconnected-(J3-Pad6)*%
X138060000Y-82580000D03*
%TO.P,J3,7,Pin_7*%
%TO.N,Net-(J3-Pad7)*%
X140600000Y-82580000D03*
%TO.P,J3,8,Pin_8*%
%TO.N,/J1_2_to_J3_8*%
X143140000Y-82580000D03*
%TO.P,J3,9,Pin_9*%
%TO.N,GND*%
X145680000Y-82580000D03*
%TO.P,J3,10,Pin_10*%
%TO.N,unconnected-(J3-Pad10)*%
X148220000Y-82580000D03*
%TD*%
%TA.AperFunction,Conductor*%
%TO.N,GND*%
G36*
X198344391Y-78382384D02*
G01*
X198360000Y-78385136D01*
X198370685Y-78383252D01*
X198380339Y-78383252D01*
X198394278Y-78382425D01*
X198494732Y-78388066D01*
X198655296Y-78397084D01*
X198669113Y-78398641D01*
X198953826Y-78447015D01*
X198967384Y-78450109D01*
X199244899Y-78530060D01*
X199258024Y-78534653D01*
X199524834Y-78645170D01*
X199537362Y-78651203D01*
X199668353Y-78723598D01*
X199790132Y-78790903D01*
X199801900Y-78798298D01*
X200037431Y-78965417D01*
X200048303Y-78974086D01*
X200263642Y-79166525D01*
X200273475Y-79176358D01*
X200465914Y-79391697D01*
X200474583Y-79402569D01*
X200641702Y-79638100D01*
X200649097Y-79649868D01*
X200688471Y-79721109D01*
X200788797Y-79902638D01*
X200794830Y-79915166D01*
X200905347Y-80181976D01*
X200909940Y-80195101D01*
X200941839Y-80305826D01*
X200988795Y-80468810D01*
X200989891Y-80472616D01*
X200992985Y-80486174D01*
X201041359Y-80770887D01*
X201042916Y-80784704D01*
X201057020Y-81035833D01*
X201057575Y-81045720D01*
X201056748Y-81059661D01*
X201056748Y-81069315D01*
X201054864Y-81080000D01*
X201056748Y-81090683D01*
X201057616Y-81095606D01*
X201059500Y-81117139D01*
X201059500Y-113042861D01*
X201057616Y-113064391D01*
X201054864Y-113080000D01*
X201056748Y-113090685D01*
X201056748Y-113100339D01*
X201057575Y-113114278D01*
X201055035Y-113159512D01*
X201042916Y-113375296D01*
X201041359Y-113389113D01*
X200992985Y-113673826D01*
X200989891Y-113687383D01*
X200983534Y-113709451D01*
X200909940Y-113964899D01*
X200905347Y-113978024D01*
X200794830Y-114244834D01*
X200788797Y-114257362D01*
X200711339Y-114397513D01*
X200665475Y-114480500D01*
X200649101Y-114510126D01*
X200641702Y-114521900D01*
X200474583Y-114757431D01*
X200465914Y-114768303D01*
X200273475Y-114983642D01*
X200263642Y-114993475D01*
X200048303Y-115185914D01*
X200037431Y-115194583D01*
X199801900Y-115361702D01*
X199790132Y-115369097D01*
X199677513Y-115431339D01*
X199537362Y-115508797D01*
X199524834Y-115514830D01*
X199258024Y-115625347D01*
X199244899Y-115629940D01*
X198967384Y-115709891D01*
X198953826Y-115712985D01*
X198669113Y-115761359D01*
X198655296Y-115762916D01*
X198494732Y-115771934D01*
X198394278Y-115777575D01*
X198380339Y-115776748D01*
X198370685Y-115776748D01*
X198360000Y-115774864D01*
X198344391Y-115777616D01*
X198322861Y-115779500D01*
X96397139Y-115779500D01*
X96375609Y-115777616D01*
X96360000Y-115774864D01*
X96349315Y-115776748D01*
X96339661Y-115776748D01*
X96325722Y-115777575D01*
X96225268Y-115771934D01*
X96064704Y-115762916D01*
X96050887Y-115761359D01*
X95766174Y-115712985D01*
X95752616Y-115709891D01*
X95475101Y-115629940D01*
X95461976Y-115625347D01*
X95195166Y-115514830D01*
X95182638Y-115508797D01*
X95042487Y-115431339D01*
X94929868Y-115369097D01*
X94918100Y-115361702D01*
X94682569Y-115194583D01*
X94671697Y-115185914D01*
X94456358Y-114993475D01*
X94446525Y-114983642D01*
X94254086Y-114768303D01*
X94245417Y-114757431D01*
X94078298Y-114521900D01*
X94070899Y-114510126D01*
X94054526Y-114480500D01*
X94008661Y-114397513D01*
X93931203Y-114257362D01*
X93925170Y-114244834D01*
X93814653Y-113978024D01*
X93810060Y-113964899D01*
X93736466Y-113709451D01*
X93730109Y-113687383D01*
X93727015Y-113673826D01*
X93678641Y-113389113D01*
X93677084Y-113375296D01*
X93664965Y-113159512D01*
X93662425Y-113114278D01*
X93663252Y-113100339D01*
X93663252Y-113090685D01*
X93665136Y-113080000D01*
X93662384Y-113064391D01*
X93660500Y-113042861D01*
X93660500Y-113013789D01*
X94955996Y-113013789D01*
X94964913Y-113251295D01*
X94965990Y-113256430D01*
X94965991Y-113256435D01*
X95012639Y-113478758D01*
X95013719Y-113483904D01*
X95015648Y-113488788D01*
X95015649Y-113488792D01*
X95033952Y-113535137D01*
X95101020Y-113704963D01*
X95103741Y-113709447D01*
X95103743Y-113709451D01*
X95175684Y-113828005D01*
X95224319Y-113908153D01*
X95380090Y-114087664D01*
X95563880Y-114238362D01*
X95568441Y-114240958D01*
X95568442Y-114240959D01*
X95765875Y-114353345D01*
X95765880Y-114353347D01*
X95770433Y-114355939D01*
X95993844Y-114437034D01*
X96227725Y-114479326D01*
X96252619Y-114480500D01*
X96419680Y-114480500D01*
X96422296Y-114480278D01*
X96422297Y-114480278D01*
X96591590Y-114465913D01*
X96596823Y-114465469D01*
X96826874Y-114405760D01*
X97043576Y-114308143D01*
X97240732Y-114175409D01*
X97412705Y-114011355D01*
X97549122Y-113828005D01*
X121440808Y-113828005D01*
X121449956Y-113839829D01*
X121503079Y-113877026D01*
X121512425Y-113882423D01*
X121708769Y-113973979D01*
X121718902Y-113977668D01*
X121928163Y-114033739D01*
X121938794Y-114035613D01*
X122154605Y-114054494D01*
X122165395Y-114054494D01*
X122381206Y-114035613D01*
X122391837Y-114033739D01*
X122601098Y-113977668D01*
X122611231Y-113973979D01*
X122807575Y-113882423D01*
X122816921Y-113877026D01*
X122870867Y-113839252D01*
X122879110Y-113828941D01*
X122872154Y-113815708D01*
X122172607Y-113116160D01*
X122158887Y-113108668D01*
X122157082Y-113108797D01*
X122150573Y-113112980D01*
X121447135Y-113816419D01*
X121440808Y-113828005D01*
X97549122Y-113828005D01*
X97554579Y-113820670D01*
X97581788Y-113767154D01*
X97659913Y-113613493D01*
X97659915Y-113613488D01*
X97662295Y-113608807D01*
X97732775Y-113381824D01*
X97743275Y-113302607D01*
X97763315Y-113151412D01*
X97763315Y-113151408D01*
X97764004Y-113146211D01*
X97755087Y-112908705D01*
X97733157Y-112804184D01*
X97707361Y-112681242D01*
X97707360Y-112681239D01*
X97706281Y-112676096D01*
X97686054Y-112624877D01*
X101674086Y-112624877D01*
X101682775Y-112636313D01*
X101890639Y-112787335D01*
X101897197Y-112791497D01*
X102155559Y-112933533D01*
X102162607Y-112936850D01*
X102436722Y-113045379D01*
X102444117Y-113047782D01*
X102729674Y-113121101D01*
X102737332Y-113122562D01*
X103029824Y-113159512D01*
X103037585Y-113160000D01*
X103332415Y-113160000D01*
X103340176Y-113159512D01*
X103632668Y-113122562D01*
X103640326Y-113121101D01*
X103925883Y-113047782D01*
X103933278Y-113045379D01*
X104207393Y-112936850D01*
X104214441Y-112933533D01*
X104472803Y-112791497D01*
X104479361Y-112787335D01*
X104687588Y-112636049D01*
X104695880Y-112625296D01*
X104695655Y-112624877D01*
X108024086Y-112624877D01*
X108032775Y-112636313D01*
X108240639Y-112787335D01*
X108247197Y-112791497D01*
X108505559Y-112933533D01*
X108512607Y-112936850D01*
X108786722Y-113045379D01*
X108794117Y-113047782D01*
X109079674Y-113121101D01*
X109087332Y-113122562D01*
X109379824Y-113159512D01*
X109387585Y-113160000D01*
X109682415Y-113160000D01*
X109690176Y-113159512D01*
X109982668Y-113122562D01*
X109990326Y-113121101D01*
X110275883Y-113047782D01*
X110283278Y-113045379D01*
X110557393Y-112936850D01*
X110564441Y-112933533D01*
X110822803Y-112791497D01*
X110829361Y-112787335D01*
X110873323Y-112755395D01*
X120855506Y-112755395D01*
X120874387Y-112971206D01*
X120876261Y-112981837D01*
X120932332Y-113191098D01*
X120936021Y-113201231D01*
X121027577Y-113397575D01*
X121032974Y-113406921D01*
X121070748Y-113460867D01*
X121081059Y-113469110D01*
X121094292Y-113462154D01*
X121793840Y-112762607D01*
X121800116Y-112751113D01*
X122518668Y-112751113D01*
X122518797Y-112752918D01*
X122522980Y-112759427D01*
X123226419Y-113462865D01*
X123238005Y-113469192D01*
X123249829Y-113460044D01*
X123287026Y-113406921D01*
X123292423Y-113397575D01*
X123383979Y-113201231D01*
X123387667Y-113191100D01*
X123395850Y-113160561D01*
X123432216Y-113100901D01*
X123495063Y-113070373D01*
X123564439Y-113078668D01*
X123618316Y-113123154D01*
X123628232Y-113140737D01*
X123702856Y-113302607D01*
X123819588Y-113467780D01*
X123964466Y-113608913D01*
X124132637Y-113721282D01*
X124318470Y-113801122D01*
X124404859Y-113820670D01*
X124510193Y-113844505D01*
X124510195Y-113844505D01*
X124515740Y-113845760D01*
X124633135Y-113850372D01*
X124712161Y-113853477D01*
X124712163Y-113853477D01*
X124717842Y-113853700D01*
X124723462Y-113852885D01*
X124723465Y-113852885D01*
X124912387Y-113825493D01*
X124912389Y-113825493D01*
X124918007Y-113824678D01*
X124923384Y-113822853D01*
X124923387Y-113822852D01*
X125087466Y-113767154D01*
X125109531Y-113759664D01*
X125215927Y-113700080D01*
X125281048Y-113663611D01*
X125281050Y-113663610D01*
X125286001Y-113660837D01*
X125348433Y-113608913D01*
X125437138Y-113535137D01*
X125441505Y-113531505D01*
X125481095Y-113483904D01*
X125567206Y-113380367D01*
X125567207Y-113380366D01*
X125570837Y-113376001D01*
X125669664Y-113199531D01*
X125710692Y-113078668D01*
X125732716Y-113013789D01*
X196955996Y-113013789D01*
X196964913Y-113251295D01*
X196965990Y-113256430D01*
X196965991Y-113256435D01*
X197012639Y-113478758D01*
X197013719Y-113483904D01*
X197015648Y-113488788D01*
X197015649Y-113488792D01*
X197033952Y-113535137D01*
X197101020Y-113704963D01*
X197103741Y-113709447D01*
X197103743Y-113709451D01*
X197175684Y-113828005D01*
X197224319Y-113908153D01*
X197380090Y-114087664D01*
X197563880Y-114238362D01*
X197568441Y-114240958D01*
X197568442Y-114240959D01*
X197765875Y-114353345D01*
X197765880Y-114353347D01*
X197770433Y-114355939D01*
X197993844Y-114437034D01*
X198227725Y-114479326D01*
X198252619Y-114480500D01*
X198419680Y-114480500D01*
X198422296Y-114480278D01*
X198422297Y-114480278D01*
X198591590Y-114465913D01*
X198596823Y-114465469D01*
X198826874Y-114405760D01*
X199043576Y-114308143D01*
X199240732Y-114175409D01*
X199412705Y-114011355D01*
X199554579Y-113820670D01*
X199581788Y-113767154D01*
X199659913Y-113613493D01*
X199659915Y-113613488D01*
X199662295Y-113608807D01*
X199732775Y-113381824D01*
X199743275Y-113302607D01*
X199763315Y-113151412D01*
X199763315Y-113151408D01*
X199764004Y-113146211D01*
X199755087Y-112908705D01*
X199733157Y-112804184D01*
X199707361Y-112681242D01*
X199707360Y-112681239D01*
X199706281Y-112676096D01*
X199618980Y-112455037D01*
X199586527Y-112401555D01*
X199498408Y-112256341D01*
X199495681Y-112251847D01*
X199339910Y-112072336D01*
X199156120Y-111921638D01*
X199151558Y-111919041D01*
X198954125Y-111806655D01*
X198954120Y-111806653D01*
X198949567Y-111804061D01*
X198726156Y-111722966D01*
X198492275Y-111680674D01*
X198467381Y-111679500D01*
X198300320Y-111679500D01*
X198297704Y-111679722D01*
X198297703Y-111679722D01*
X198188627Y-111688977D01*
X198123177Y-111694531D01*
X197893126Y-111754240D01*
X197676424Y-111851857D01*
X197479268Y-111984591D01*
X197307295Y-112148645D01*
X197165421Y-112339330D01*
X197163042Y-112344008D01*
X197163042Y-112344009D01*
X197061813Y-112543114D01*
X197057705Y-112551193D01*
X197056146Y-112556213D01*
X197056145Y-112556216D01*
X197020439Y-112671208D01*
X196987225Y-112778176D01*
X196986534Y-112783386D01*
X196986534Y-112783388D01*
X196966194Y-112936850D01*
X196955996Y-113013789D01*
X125732716Y-113013789D01*
X125732852Y-113013387D01*
X125732853Y-113013384D01*
X125734678Y-113008007D01*
X125735493Y-113002387D01*
X125763176Y-112811458D01*
X125763176Y-112811453D01*
X125763700Y-112807842D01*
X125765215Y-112750000D01*
X125746708Y-112548591D01*
X125702320Y-112391203D01*
X125693352Y-112359403D01*
X125693351Y-112359400D01*
X125691807Y-112353926D01*
X125602351Y-112172527D01*
X125481335Y-112010467D01*
X125332812Y-111873174D01*
X125223275Y-111804061D01*
X125166566Y-111768280D01*
X125166564Y-111768279D01*
X125161757Y-111765246D01*
X124973898Y-111690298D01*
X124968317Y-111689188D01*
X124968314Y-111689187D01*
X124881883Y-111671995D01*
X124775526Y-111650839D01*
X124769839Y-111650765D01*
X124769834Y-111650764D01*
X124578975Y-111648266D01*
X124578970Y-111648266D01*
X124573286Y-111648192D01*
X124567682Y-111649155D01*
X124567681Y-111649155D01*
X124379546Y-111681482D01*
X124379543Y-111681483D01*
X124373949Y-111682444D01*
X124338578Y-111695493D01*
X124189521Y-111750483D01*
X124189517Y-111750485D01*
X124184193Y-111752449D01*
X124179310Y-111755354D01*
X124179308Y-111755355D01*
X124017103Y-111851857D01*
X124010371Y-111855862D01*
X123858305Y-111989220D01*
X123733089Y-112148057D01*
X123638914Y-112327053D01*
X123637229Y-112332480D01*
X123637226Y-112332487D01*
X123633848Y-112343367D01*
X123595170Y-112401555D01*
X123531173Y-112429594D01*
X123462176Y-112418583D01*
X123410086Y-112372017D01*
X123395650Y-112338692D01*
X123387668Y-112308902D01*
X123383979Y-112298769D01*
X123292423Y-112102425D01*
X123287026Y-112093079D01*
X123249252Y-112039133D01*
X123238941Y-112030890D01*
X123225708Y-112037846D01*
X122526160Y-112737393D01*
X122518668Y-112751113D01*
X121800116Y-112751113D01*
X121801332Y-112748887D01*
X121801203Y-112747082D01*
X121797020Y-112740573D01*
X121093581Y-112037135D01*
X121081995Y-112030808D01*
X121070171Y-112039956D01*
X121032974Y-112093079D01*
X121027577Y-112102425D01*
X120936021Y-112298769D01*
X120932332Y-112308902D01*
X120876261Y-112518163D01*
X120874387Y-112528794D01*
X120855506Y-112744605D01*
X120855506Y-112755395D01*
X110873323Y-112755395D01*
X111037588Y-112636049D01*
X111045880Y-112625296D01*
X111039087Y-112612641D01*
X109547607Y-111121160D01*
X109533887Y-111113668D01*
X109532081Y-111113797D01*
X109525574Y-111117979D01*
X108030593Y-112612961D01*
X108024086Y-112624877D01*
X104695655Y-112624877D01*
X104689087Y-112612641D01*
X103197607Y-111121160D01*
X103183887Y-111113668D01*
X103182081Y-111113797D01*
X103175574Y-111117979D01*
X101680593Y-112612961D01*
X101674086Y-112624877D01*
X97686054Y-112624877D01*
X97618980Y-112455037D01*
X97586527Y-112401555D01*
X97498408Y-112256341D01*
X97495681Y-112251847D01*
X97339910Y-112072336D01*
X97156120Y-111921638D01*
X97151558Y-111919041D01*
X96954125Y-111806655D01*
X96954120Y-111806653D01*
X96949567Y-111804061D01*
X96726156Y-111722966D01*
X96492275Y-111680674D01*
X96467381Y-111679500D01*
X96300320Y-111679500D01*
X96297704Y-111679722D01*
X96297703Y-111679722D01*
X96188627Y-111688977D01*
X96123177Y-111694531D01*
X95893126Y-111754240D01*
X95676424Y-111851857D01*
X95479268Y-111984591D01*
X95307295Y-112148645D01*
X95165421Y-112339330D01*
X95163042Y-112344008D01*
X95163042Y-112344009D01*
X95061813Y-112543114D01*
X95057705Y-112551193D01*
X95056146Y-112556213D01*
X95056145Y-112556216D01*
X95020439Y-112671208D01*
X94987225Y-112778176D01*
X94986534Y-112783386D01*
X94986534Y-112783388D01*
X94966194Y-112936850D01*
X94955996Y-113013789D01*
X93660500Y-113013789D01*
X93660500Y-110758894D01*
X100775490Y-110758894D01*
X100794002Y-111053129D01*
X100794977Y-111060849D01*
X100850222Y-111350453D01*
X100852157Y-111357992D01*
X100943262Y-111638386D01*
X100946125Y-111645616D01*
X101071657Y-111912383D01*
X101075402Y-111919194D01*
X101233378Y-112168126D01*
X101237954Y-112174424D01*
X101305396Y-112255947D01*
X101317717Y-112264270D01*
X101328284Y-112258162D01*
X102818840Y-110767607D01*
X102826332Y-110753887D01*
X102826203Y-110752081D01*
X102822021Y-110745574D01*
X101329368Y-109252922D01*
X101316318Y-109245796D01*
X101306374Y-109252870D01*
X101237954Y-109335576D01*
X101233378Y-109341874D01*
X101075402Y-109590806D01*
X101071657Y-109597617D01*
X100946125Y-109864384D01*
X100943262Y-109871614D01*
X100852157Y-110152008D01*
X100850222Y-110159547D01*
X100794977Y-110449151D01*
X100794002Y-110456871D01*
X100775490Y-110751106D01*
X100775490Y-110758894D01*
X93660500Y-110758894D01*
X93660500Y-106274877D01*
X101674086Y-106274877D01*
X101682775Y-106286313D01*
X101890639Y-106437335D01*
X101897197Y-106441497D01*
X102155559Y-106583533D01*
X102162607Y-106586850D01*
X102436722Y-106695379D01*
X102444117Y-106697782D01*
X102729674Y-106771101D01*
X102737332Y-106772562D01*
X103029824Y-106809512D01*
X103037585Y-106810000D01*
X103332415Y-106810000D01*
X103340176Y-106809512D01*
X103632668Y-106772562D01*
X103640326Y-106771101D01*
X103925883Y-106697782D01*
X103933278Y-106695379D01*
X104207393Y-106586850D01*
X104214441Y-106583533D01*
X104304263Y-106534153D01*
X104372493Y-106519106D01*
X104438027Y-106543336D01*
X104480058Y-106599149D01*
X104485242Y-106668827D01*
X104473590Y-106700834D01*
X104456759Y-106732622D01*
X104455313Y-106736574D01*
X104455311Y-106736578D01*
X104360814Y-106994801D01*
X104360812Y-106994808D01*
X104359365Y-106998762D01*
X104358466Y-107002884D01*
X104358466Y-107002885D01*
X104308804Y-107230661D01*
X104298993Y-107275657D01*
X104276757Y-107558184D01*
X104293071Y-107841114D01*
X104293882Y-107845249D01*
X104293883Y-107845255D01*
X104339939Y-108080000D01*
X104347632Y-108119212D01*
X104348998Y-108123201D01*
X104348998Y-108123202D01*
X104438063Y-108383342D01*
X104438066Y-108383349D01*
X104439430Y-108387333D01*
X104477458Y-108462944D01*
X104489995Y-108531678D01*
X104463380Y-108596280D01*
X104406063Y-108636238D01*
X104336243Y-108638864D01*
X104306942Y-108627320D01*
X104214441Y-108576467D01*
X104207393Y-108573150D01*
X103933278Y-108464621D01*
X103925883Y-108462218D01*
X103640326Y-108388899D01*
X103632668Y-108387438D01*
X103340176Y-108350488D01*
X103332415Y-108350000D01*
X103037585Y-108350000D01*
X103029824Y-108350488D01*
X102737332Y-108387438D01*
X102729674Y-108388899D01*
X102444117Y-108462218D01*
X102436722Y-108464621D01*
X102162607Y-108573150D01*
X102155559Y-108576467D01*
X101897197Y-108718503D01*
X101890639Y-108722665D01*
X101682412Y-108873951D01*
X101674120Y-108884704D01*
X101680913Y-108897359D01*
X103185000Y-110401447D01*
X105040632Y-112257078D01*
X105053682Y-112264204D01*
X105063626Y-112257130D01*
X105132046Y-112174424D01*
X105136622Y-112168126D01*
X105294598Y-111919194D01*
X105298343Y-111912383D01*
X105423875Y-111645616D01*
X105426738Y-111638386D01*
X105517843Y-111357992D01*
X105519778Y-111350453D01*
X105575023Y-111060849D01*
X105575998Y-111053129D01*
X105594510Y-110758894D01*
X105594510Y-110751106D01*
X105575998Y-110456871D01*
X105575023Y-110449151D01*
X105519778Y-110159547D01*
X105517843Y-110152008D01*
X105426738Y-109871614D01*
X105423875Y-109864383D01*
X105312159Y-109626977D01*
X105301426Y-109557936D01*
X105329722Y-109494053D01*
X105388065Y-109455610D01*
X105457930Y-109454811D01*
X105475384Y-109461166D01*
X105497318Y-109471069D01*
X105603817Y-109519155D01*
X105633800Y-109532693D01*
X105637841Y-109533890D01*
X105901481Y-109611984D01*
X105901486Y-109611985D01*
X105905530Y-109613183D01*
X106066678Y-109637842D01*
X106181491Y-109655411D01*
X106181496Y-109655411D01*
X106185669Y-109656050D01*
X106341694Y-109658501D01*
X106464816Y-109660436D01*
X106464820Y-109660436D01*
X106469034Y-109660502D01*
X106524600Y-109653778D01*
X106746195Y-109626962D01*
X106746200Y-109626961D01*
X106750382Y-109626455D01*
X107024506Y-109554540D01*
X107112258Y-109518192D01*
X107246865Y-109462436D01*
X107316335Y-109454967D01*
X107378814Y-109486242D01*
X107414466Y-109546331D01*
X107411972Y-109616156D01*
X107406516Y-109629794D01*
X107296125Y-109864384D01*
X107293262Y-109871614D01*
X107202157Y-110152008D01*
X107200222Y-110159547D01*
X107144977Y-110449151D01*
X107144002Y-110456871D01*
X107125490Y-110751106D01*
X107125490Y-110758894D01*
X107144002Y-111053129D01*
X107144977Y-111060849D01*
X107200222Y-111350453D01*
X107202157Y-111357992D01*
X107293262Y-111638386D01*
X107296125Y-111645616D01*
X107421657Y-111912383D01*
X107425402Y-111919194D01*
X107583378Y-112168126D01*
X107587954Y-112174424D01*
X107655396Y-112255947D01*
X107667717Y-112264270D01*
X107678284Y-112258162D01*
X109180334Y-110756113D01*
X109893668Y-110756113D01*
X109893797Y-110757919D01*
X109897979Y-110764426D01*
X111390632Y-112257078D01*
X111403682Y-112264204D01*
X111413626Y-112257130D01*
X111482046Y-112174424D01*
X111486622Y-112168126D01*
X111644598Y-111919194D01*
X111648343Y-111912383D01*
X111761902Y-111671059D01*
X121440890Y-111671059D01*
X121447846Y-111684292D01*
X122147393Y-112383840D01*
X122161113Y-112391332D01*
X122162918Y-112391203D01*
X122169427Y-112387020D01*
X122872865Y-111683581D01*
X122879192Y-111671995D01*
X122870044Y-111660171D01*
X122816921Y-111622974D01*
X122807575Y-111617577D01*
X122611231Y-111526021D01*
X122601098Y-111522332D01*
X122391837Y-111466261D01*
X122381206Y-111464387D01*
X122165395Y-111445506D01*
X122154605Y-111445506D01*
X121938794Y-111464387D01*
X121928163Y-111466261D01*
X121718902Y-111522332D01*
X121708769Y-111526021D01*
X121512425Y-111617577D01*
X121503079Y-111622974D01*
X121449133Y-111660748D01*
X121440890Y-111671059D01*
X111761902Y-111671059D01*
X111773875Y-111645616D01*
X111776738Y-111638386D01*
X111867843Y-111357992D01*
X111869778Y-111350453D01*
X111925023Y-111060849D01*
X111925998Y-111053129D01*
X111944510Y-110758894D01*
X111944510Y-110751106D01*
X111934441Y-110591069D01*
X132255164Y-110591069D01*
X132255535Y-110596731D01*
X132255535Y-110596735D01*
X132260715Y-110675760D01*
X132268392Y-110792894D01*
X132318178Y-110988928D01*
X132402856Y-111172607D01*
X132519588Y-111337780D01*
X132664466Y-111478913D01*
X132832637Y-111591282D01*
X133018470Y-111671122D01*
X133076673Y-111684292D01*
X133210193Y-111714505D01*
X133210195Y-111714505D01*
X133215740Y-111715760D01*
X133333135Y-111720372D01*
X133412161Y-111723477D01*
X133412163Y-111723477D01*
X133417842Y-111723700D01*
X133423462Y-111722885D01*
X133423465Y-111722885D01*
X133612387Y-111695493D01*
X133612389Y-111695493D01*
X133618007Y-111694678D01*
X133623384Y-111692853D01*
X133623387Y-111692852D01*
X133743879Y-111651950D01*
X133809531Y-111629664D01*
X133986001Y-111530837D01*
X134048433Y-111478913D01*
X134137138Y-111405137D01*
X134141505Y-111401505D01*
X134270837Y-111246001D01*
X134369664Y-111069531D01*
X134434678Y-110878007D01*
X134436747Y-110863739D01*
X134463176Y-110681458D01*
X134463176Y-110681453D01*
X134463700Y-110677842D01*
X134465215Y-110620000D01*
X134462557Y-110591069D01*
X139875164Y-110591069D01*
X139875535Y-110596731D01*
X139875535Y-110596735D01*
X139880715Y-110675760D01*
X139888392Y-110792894D01*
X139938178Y-110988928D01*
X140022856Y-111172607D01*
X140139588Y-111337780D01*
X140284466Y-111478913D01*
X140452637Y-111591282D01*
X140638470Y-111671122D01*
X140696673Y-111684292D01*
X140830193Y-111714505D01*
X140830195Y-111714505D01*
X140835740Y-111715760D01*
X140953135Y-111720372D01*
X141032161Y-111723477D01*
X141032163Y-111723477D01*
X141037842Y-111723700D01*
X141043462Y-111722885D01*
X141043465Y-111722885D01*
X141232387Y-111695493D01*
X141232389Y-111695493D01*
X141238007Y-111694678D01*
X141243384Y-111692853D01*
X141243387Y-111692852D01*
X141363879Y-111651950D01*
X141429531Y-111629664D01*
X141606001Y-111530837D01*
X141668433Y-111478913D01*
X141757138Y-111405137D01*
X141761505Y-111401505D01*
X141890837Y-111246001D01*
X141989664Y-111069531D01*
X142054678Y-110878007D01*
X142056747Y-110863739D01*
X142083176Y-110681458D01*
X142083176Y-110681453D01*
X142083700Y-110677842D01*
X142084220Y-110658005D01*
X184195808Y-110658005D01*
X184204956Y-110669829D01*
X184258079Y-110707026D01*
X184267425Y-110712423D01*
X184463769Y-110803979D01*
X184473902Y-110807668D01*
X184683163Y-110863739D01*
X184693794Y-110865613D01*
X184909605Y-110884494D01*
X184920395Y-110884494D01*
X185136206Y-110865613D01*
X185146837Y-110863739D01*
X185356098Y-110807668D01*
X185366231Y-110803979D01*
X185562575Y-110712423D01*
X185571921Y-110707026D01*
X185625867Y-110669252D01*
X185634110Y-110658941D01*
X185627154Y-110645708D01*
X184927607Y-109946160D01*
X184913887Y-109938668D01*
X184912082Y-109938797D01*
X184905573Y-109942980D01*
X184202135Y-110646419D01*
X184195808Y-110658005D01*
X142084220Y-110658005D01*
X142085215Y-110620000D01*
X142066708Y-110418591D01*
X142025909Y-110273927D01*
X142013352Y-110229403D01*
X142013351Y-110229400D01*
X142011807Y-110223926D01*
X141922351Y-110042527D01*
X141801335Y-109880467D01*
X141715591Y-109801206D01*
X141656988Y-109747034D01*
X141656986Y-109747033D01*
X141652812Y-109743174D01*
X141550149Y-109678398D01*
X141486566Y-109638280D01*
X141486564Y-109638279D01*
X141481757Y-109635246D01*
X141293898Y-109560298D01*
X141288317Y-109559188D01*
X141288314Y-109559187D01*
X141220373Y-109545673D01*
X141095526Y-109520839D01*
X141089839Y-109520765D01*
X141089834Y-109520764D01*
X140898975Y-109518266D01*
X140898970Y-109518266D01*
X140893286Y-109518192D01*
X140887682Y-109519155D01*
X140887681Y-109519155D01*
X140699546Y-109551482D01*
X140699543Y-109551483D01*
X140693949Y-109552444D01*
X140672660Y-109560298D01*
X140509521Y-109620483D01*
X140509517Y-109620485D01*
X140504193Y-109622449D01*
X140499310Y-109625354D01*
X140499308Y-109625355D01*
X140335262Y-109722952D01*
X140330371Y-109725862D01*
X140178305Y-109859220D01*
X140053089Y-110018057D01*
X140050442Y-110023088D01*
X140008147Y-110103477D01*
X139958914Y-110197053D01*
X139957229Y-110202479D01*
X139957228Y-110202482D01*
X139930040Y-110290044D01*
X139898937Y-110390213D01*
X139875164Y-110591069D01*
X134462557Y-110591069D01*
X134446708Y-110418591D01*
X134405909Y-110273927D01*
X134393352Y-110229403D01*
X134393351Y-110229400D01*
X134391807Y-110223926D01*
X134302351Y-110042527D01*
X134181335Y-109880467D01*
X134095591Y-109801206D01*
X134036988Y-109747034D01*
X134036986Y-109747033D01*
X134032812Y-109743174D01*
X133930149Y-109678398D01*
X133866566Y-109638280D01*
X133866564Y-109638279D01*
X133861757Y-109635246D01*
X133673898Y-109560298D01*
X133668317Y-109559188D01*
X133668314Y-109559187D01*
X133600373Y-109545673D01*
X133475526Y-109520839D01*
X133469839Y-109520765D01*
X133469834Y-109520764D01*
X133278975Y-109518266D01*
X133278970Y-109518266D01*
X133273286Y-109518192D01*
X133267682Y-109519155D01*
X133267681Y-109519155D01*
X133079546Y-109551482D01*
X133079543Y-109551483D01*
X133073949Y-109552444D01*
X133052660Y-109560298D01*
X132889521Y-109620483D01*
X132889517Y-109620485D01*
X132884193Y-109622449D01*
X132879310Y-109625354D01*
X132879308Y-109625355D01*
X132715262Y-109722952D01*
X132710371Y-109725862D01*
X132558305Y-109859220D01*
X132433089Y-110018057D01*
X132430442Y-110023088D01*
X132388147Y-110103477D01*
X132338914Y-110197053D01*
X132337229Y-110202479D01*
X132337228Y-110202482D01*
X132310040Y-110290044D01*
X132278937Y-110390213D01*
X132255164Y-110591069D01*
X111934441Y-110591069D01*
X111925998Y-110456871D01*
X111925023Y-110449151D01*
X111869778Y-110159547D01*
X111867843Y-110152008D01*
X111776738Y-109871614D01*
X111773875Y-109864384D01*
X111648343Y-109597617D01*
X111644598Y-109590806D01*
X111486622Y-109341874D01*
X111482046Y-109335576D01*
X111421448Y-109262326D01*
X115724431Y-109262326D01*
X115772331Y-109441092D01*
X115776023Y-109451235D01*
X115867580Y-109647580D01*
X115872968Y-109656913D01*
X115997233Y-109834381D01*
X116004169Y-109842647D01*
X116157353Y-109995831D01*
X116165619Y-110002767D01*
X116343087Y-110127032D01*
X116352420Y-110132420D01*
X116548765Y-110223977D01*
X116558908Y-110227669D01*
X116732779Y-110274258D01*
X116746653Y-110273927D01*
X116750000Y-110266111D01*
X116750000Y-110261042D01*
X117250000Y-110261042D01*
X117253910Y-110274359D01*
X117262326Y-110275569D01*
X117441092Y-110227669D01*
X117451235Y-110223977D01*
X117647580Y-110132420D01*
X117656913Y-110127032D01*
X117834381Y-110002767D01*
X117842647Y-109995831D01*
X117995831Y-109842647D01*
X118002767Y-109834381D01*
X118127032Y-109656913D01*
X118132420Y-109647580D01*
X118223977Y-109451235D01*
X118227669Y-109441092D01*
X118274258Y-109267221D01*
X118273927Y-109253347D01*
X118266111Y-109250000D01*
X117267830Y-109250000D01*
X117252831Y-109254404D01*
X117251644Y-109255774D01*
X117250000Y-109263332D01*
X117250000Y-110261042D01*
X116750000Y-110261042D01*
X116750000Y-109267830D01*
X116745596Y-109252831D01*
X116744226Y-109251644D01*
X116736668Y-109250000D01*
X115738958Y-109250000D01*
X115725641Y-109253910D01*
X115724431Y-109262326D01*
X111421448Y-109262326D01*
X111414604Y-109254053D01*
X111402283Y-109245730D01*
X111391716Y-109251838D01*
X109901160Y-110742393D01*
X109893668Y-110756113D01*
X109180334Y-110756113D01*
X109535000Y-110401447D01*
X110965377Y-108971069D01*
X126055164Y-108971069D01*
X126055535Y-108976731D01*
X126055535Y-108976735D01*
X126060851Y-109057842D01*
X126068392Y-109172894D01*
X126118178Y-109368928D01*
X126120554Y-109374082D01*
X126192876Y-109530958D01*
X126202856Y-109552607D01*
X126319588Y-109717780D01*
X126464466Y-109858913D01*
X126632637Y-109971282D01*
X126818470Y-110051122D01*
X126825033Y-110052607D01*
X127010193Y-110094505D01*
X127010195Y-110094505D01*
X127015740Y-110095760D01*
X127133135Y-110100372D01*
X127212161Y-110103477D01*
X127212163Y-110103477D01*
X127217842Y-110103700D01*
X127223462Y-110102885D01*
X127223465Y-110102885D01*
X127412387Y-110075493D01*
X127412389Y-110075493D01*
X127418007Y-110074678D01*
X127423384Y-110072853D01*
X127423387Y-110072852D01*
X127512720Y-110042527D01*
X127609531Y-110009664D01*
X127786001Y-109910837D01*
X127841855Y-109864384D01*
X127937138Y-109785137D01*
X127941505Y-109781505D01*
X128045128Y-109656913D01*
X128067206Y-109630367D01*
X128067207Y-109630366D01*
X128070837Y-109626001D01*
X128076351Y-109616156D01*
X128157602Y-109471069D01*
X145555164Y-109471069D01*
X145555535Y-109476731D01*
X145555535Y-109476735D01*
X145561477Y-109567393D01*
X145568392Y-109672894D01*
X145618178Y-109868928D01*
X145620554Y-109874082D01*
X145684871Y-110013594D01*
X145702856Y-110052607D01*
X145819588Y-110217780D01*
X145964466Y-110358913D01*
X146132637Y-110471282D01*
X146318470Y-110551122D01*
X146414502Y-110572852D01*
X146510193Y-110594505D01*
X146510195Y-110594505D01*
X146515740Y-110595760D01*
X146633135Y-110600372D01*
X146712161Y-110603477D01*
X146712163Y-110603477D01*
X146717842Y-110603700D01*
X146723462Y-110602885D01*
X146723465Y-110602885D01*
X146912387Y-110575493D01*
X146912389Y-110575493D01*
X146918007Y-110574678D01*
X146923384Y-110572853D01*
X146923387Y-110572852D01*
X147008090Y-110544099D01*
X147109531Y-110509664D01*
X147286001Y-110410837D01*
X147304013Y-110395857D01*
X147437138Y-110285137D01*
X147441505Y-110281505D01*
X147549207Y-110152008D01*
X147567206Y-110130367D01*
X147567207Y-110130366D01*
X147570837Y-110126001D01*
X147583783Y-110102885D01*
X147624862Y-110029531D01*
X147669664Y-109949531D01*
X147725469Y-109785137D01*
X147732852Y-109763387D01*
X147732853Y-109763384D01*
X147734678Y-109758007D01*
X147747840Y-109667228D01*
X147763176Y-109561458D01*
X147763176Y-109561453D01*
X147763700Y-109557842D01*
X147763842Y-109552444D01*
X147764737Y-109518266D01*
X147765215Y-109500000D01*
X147762557Y-109471069D01*
X155715164Y-109471069D01*
X155715535Y-109476731D01*
X155715535Y-109476735D01*
X155721477Y-109567393D01*
X155728392Y-109672894D01*
X155778178Y-109868928D01*
X155780554Y-109874082D01*
X155844871Y-110013594D01*
X155862856Y-110052607D01*
X155979588Y-110217780D01*
X156124466Y-110358913D01*
X156292637Y-110471282D01*
X156478470Y-110551122D01*
X156574502Y-110572852D01*
X156670193Y-110594505D01*
X156670195Y-110594505D01*
X156675740Y-110595760D01*
X156793135Y-110600372D01*
X156872161Y-110603477D01*
X156872163Y-110603477D01*
X156877842Y-110603700D01*
X156883462Y-110602885D01*
X156883465Y-110602885D01*
X157072387Y-110575493D01*
X157072389Y-110575493D01*
X157078007Y-110574678D01*
X157083384Y-110572853D01*
X157083387Y-110572852D01*
X157168090Y-110544099D01*
X157269531Y-110509664D01*
X157446001Y-110410837D01*
X157464013Y-110395857D01*
X157597138Y-110285137D01*
X157601505Y-110281505D01*
X157709207Y-110152008D01*
X157727206Y-110130367D01*
X157727207Y-110130366D01*
X157730837Y-110126001D01*
X157743783Y-110102885D01*
X157784862Y-110029531D01*
X157829664Y-109949531D01*
X157885469Y-109785137D01*
X157892852Y-109763387D01*
X157892853Y-109763384D01*
X157894678Y-109758007D01*
X157907840Y-109667228D01*
X157919705Y-109585395D01*
X183610506Y-109585395D01*
X183629387Y-109801206D01*
X183631261Y-109811837D01*
X183687332Y-110021098D01*
X183691021Y-110031231D01*
X183782577Y-110227575D01*
X183787974Y-110236921D01*
X183825748Y-110290867D01*
X183836059Y-110299110D01*
X183849292Y-110292154D01*
X184548840Y-109592607D01*
X184555116Y-109581113D01*
X185273668Y-109581113D01*
X185273797Y-109582918D01*
X185277980Y-109589427D01*
X185981419Y-110292865D01*
X185993005Y-110299192D01*
X186004829Y-110290044D01*
X186042026Y-110236921D01*
X186047423Y-110227575D01*
X186138979Y-110031231D01*
X186142667Y-110021100D01*
X186150850Y-109990561D01*
X186187216Y-109930901D01*
X186250063Y-109900373D01*
X186319439Y-109908668D01*
X186373316Y-109953154D01*
X186383232Y-109970737D01*
X186419256Y-110048877D01*
X186454811Y-110126001D01*
X186457856Y-110132607D01*
X186574588Y-110297780D01*
X186719466Y-110438913D01*
X186887637Y-110551282D01*
X187073470Y-110631122D01*
X187169502Y-110652852D01*
X187265193Y-110674505D01*
X187265195Y-110674505D01*
X187270740Y-110675760D01*
X187388135Y-110680372D01*
X187467161Y-110683477D01*
X187467163Y-110683477D01*
X187472842Y-110683700D01*
X187478462Y-110682885D01*
X187478465Y-110682885D01*
X187667387Y-110655493D01*
X187667389Y-110655493D01*
X187673007Y-110654678D01*
X187678384Y-110652853D01*
X187678387Y-110652852D01*
X187764380Y-110623661D01*
X187864531Y-110589664D01*
X187965897Y-110532897D01*
X188036048Y-110493611D01*
X188036050Y-110493610D01*
X188041001Y-110490837D01*
X188081841Y-110456871D01*
X188192138Y-110365137D01*
X188196505Y-110361505D01*
X188246208Y-110301744D01*
X188322206Y-110210367D01*
X188322207Y-110210366D01*
X188325837Y-110206001D01*
X188424664Y-110029531D01*
X188466188Y-109907206D01*
X188487852Y-109843387D01*
X188487853Y-109843384D01*
X188489678Y-109838007D01*
X188490493Y-109832387D01*
X188518176Y-109641458D01*
X188518176Y-109641453D01*
X188518700Y-109637842D01*
X188520215Y-109580000D01*
X188501708Y-109378591D01*
X188466585Y-109254053D01*
X188448352Y-109189403D01*
X188448351Y-109189400D01*
X188446807Y-109183926D01*
X188357351Y-109002527D01*
X188236335Y-108840467D01*
X188135406Y-108747169D01*
X188091988Y-108707034D01*
X188091986Y-108707033D01*
X188087812Y-108703174D01*
X187985887Y-108638864D01*
X187921566Y-108598280D01*
X187921564Y-108598279D01*
X187916757Y-108595246D01*
X187728898Y-108520298D01*
X187723317Y-108519188D01*
X187723314Y-108519187D01*
X187636883Y-108501995D01*
X187530526Y-108480839D01*
X187524839Y-108480765D01*
X187524834Y-108480764D01*
X187333975Y-108478266D01*
X187333970Y-108478266D01*
X187328286Y-108478192D01*
X187322682Y-108479155D01*
X187322681Y-108479155D01*
X187134546Y-108511482D01*
X187134543Y-108511483D01*
X187128949Y-108512444D01*
X187101941Y-108522408D01*
X186944521Y-108580483D01*
X186944517Y-108580485D01*
X186939193Y-108582449D01*
X186934310Y-108585354D01*
X186934308Y-108585355D01*
X186770262Y-108682952D01*
X186765371Y-108685862D01*
X186613305Y-108819220D01*
X186488089Y-108978057D01*
X186485442Y-108983088D01*
X186448036Y-109054184D01*
X186393914Y-109157053D01*
X186392229Y-109162480D01*
X186392226Y-109162487D01*
X186388848Y-109173367D01*
X186350170Y-109231555D01*
X186286173Y-109259594D01*
X186217176Y-109248583D01*
X186165086Y-109202017D01*
X186150650Y-109168692D01*
X186142668Y-109138902D01*
X186138979Y-109128769D01*
X186047423Y-108932425D01*
X186042026Y-108923079D01*
X186004252Y-108869133D01*
X185993941Y-108860890D01*
X185980708Y-108867846D01*
X185281160Y-109567393D01*
X185273668Y-109581113D01*
X184555116Y-109581113D01*
X184556332Y-109578887D01*
X184556203Y-109577082D01*
X184552020Y-109570573D01*
X183848581Y-108867135D01*
X183836995Y-108860808D01*
X183825171Y-108869956D01*
X183787974Y-108923079D01*
X183782577Y-108932425D01*
X183691021Y-109128769D01*
X183687332Y-109138902D01*
X183631261Y-109348163D01*
X183629387Y-109358794D01*
X183610506Y-109574605D01*
X183610506Y-109585395D01*
X157919705Y-109585395D01*
X157923176Y-109561458D01*
X157923176Y-109561453D01*
X157923700Y-109557842D01*
X157923842Y-109552444D01*
X157924737Y-109518266D01*
X157925215Y-109500000D01*
X157906708Y-109298591D01*
X157871258Y-109172894D01*
X157867059Y-109158005D01*
X169293459Y-109158005D01*
X169302607Y-109169829D01*
X169355730Y-109207026D01*
X169365076Y-109212423D01*
X169561420Y-109303979D01*
X169571553Y-109307668D01*
X169780814Y-109363739D01*
X169791445Y-109365613D01*
X170007256Y-109384494D01*
X170018046Y-109384494D01*
X170233857Y-109365613D01*
X170244488Y-109363739D01*
X170453749Y-109307668D01*
X170463882Y-109303979D01*
X170660226Y-109212423D01*
X170669572Y-109207026D01*
X170723518Y-109169252D01*
X170731761Y-109158941D01*
X170724805Y-109145708D01*
X170025258Y-108446160D01*
X170011538Y-108438668D01*
X170009733Y-108438797D01*
X170003224Y-108442980D01*
X169299786Y-109146419D01*
X169293459Y-109158005D01*
X157867059Y-109158005D01*
X157853352Y-109109403D01*
X157853351Y-109109400D01*
X157851807Y-109103926D01*
X157762351Y-108922527D01*
X157641335Y-108760467D01*
X157534542Y-108661749D01*
X157496988Y-108627034D01*
X157496986Y-108627033D01*
X157492812Y-108623174D01*
X157471319Y-108609613D01*
X157326566Y-108518280D01*
X157326564Y-108518279D01*
X157321757Y-108515246D01*
X157133898Y-108440298D01*
X157128317Y-108439188D01*
X157128314Y-108439187D01*
X157044558Y-108422527D01*
X156935526Y-108400839D01*
X156929839Y-108400765D01*
X156929834Y-108400764D01*
X156738975Y-108398266D01*
X156738970Y-108398266D01*
X156733286Y-108398192D01*
X156727682Y-108399155D01*
X156727681Y-108399155D01*
X156539546Y-108431482D01*
X156539543Y-108431483D01*
X156533949Y-108432444D01*
X156496770Y-108446160D01*
X156349521Y-108500483D01*
X156349517Y-108500485D01*
X156344193Y-108502449D01*
X156339310Y-108505354D01*
X156339308Y-108505355D01*
X156209669Y-108582482D01*
X156170371Y-108605862D01*
X156018305Y-108739220D01*
X155893089Y-108898057D01*
X155890442Y-108903088D01*
X155869931Y-108942073D01*
X155798914Y-109077053D01*
X155797229Y-109082479D01*
X155797228Y-109082482D01*
X155775636Y-109152020D01*
X155738937Y-109270213D01*
X155715164Y-109471069D01*
X147762557Y-109471069D01*
X147746708Y-109298591D01*
X147711258Y-109172894D01*
X147693352Y-109109403D01*
X147693351Y-109109400D01*
X147691807Y-109103926D01*
X147602351Y-108922527D01*
X147481335Y-108760467D01*
X147374542Y-108661749D01*
X147336988Y-108627034D01*
X147336986Y-108627033D01*
X147332812Y-108623174D01*
X147311319Y-108609613D01*
X147166566Y-108518280D01*
X147166564Y-108518279D01*
X147161757Y-108515246D01*
X146973898Y-108440298D01*
X146968317Y-108439188D01*
X146968314Y-108439187D01*
X146884558Y-108422527D01*
X146775526Y-108400839D01*
X146769839Y-108400765D01*
X146769834Y-108400764D01*
X146578975Y-108398266D01*
X146578970Y-108398266D01*
X146573286Y-108398192D01*
X146567682Y-108399155D01*
X146567681Y-108399155D01*
X146379546Y-108431482D01*
X146379543Y-108431483D01*
X146373949Y-108432444D01*
X146336770Y-108446160D01*
X146189521Y-108500483D01*
X146189517Y-108500485D01*
X146184193Y-108502449D01*
X146179310Y-108505354D01*
X146179308Y-108505355D01*
X146049669Y-108582482D01*
X146010371Y-108605862D01*
X145858305Y-108739220D01*
X145733089Y-108898057D01*
X145730442Y-108903088D01*
X145709931Y-108942073D01*
X145638914Y-109077053D01*
X145637229Y-109082479D01*
X145637228Y-109082482D01*
X145615636Y-109152020D01*
X145578937Y-109270213D01*
X145555164Y-109471069D01*
X128157602Y-109471069D01*
X128163148Y-109461166D01*
X128169664Y-109449531D01*
X128231344Y-109267830D01*
X128232852Y-109263387D01*
X128232853Y-109263384D01*
X128234678Y-109258007D01*
X128235493Y-109252387D01*
X128263176Y-109061458D01*
X128263176Y-109061453D01*
X128263700Y-109057842D01*
X128263835Y-109052713D01*
X128265119Y-109003661D01*
X128265215Y-109000000D01*
X128246708Y-108798591D01*
X128201924Y-108639799D01*
X128193352Y-108609403D01*
X128193351Y-108609400D01*
X128191807Y-108603926D01*
X128102351Y-108422527D01*
X127981335Y-108260467D01*
X127900885Y-108186100D01*
X127836988Y-108127034D01*
X127836986Y-108127033D01*
X127832812Y-108123174D01*
X127826533Y-108119212D01*
X127718533Y-108051069D01*
X132255164Y-108051069D01*
X132255535Y-108056731D01*
X132255535Y-108056735D01*
X132260851Y-108137842D01*
X132268392Y-108252894D01*
X132318178Y-108448928D01*
X132320554Y-108454082D01*
X132392256Y-108609613D01*
X132402856Y-108632607D01*
X132519588Y-108797780D01*
X132664466Y-108938913D01*
X132832637Y-109051282D01*
X133018470Y-109131122D01*
X133110825Y-109152020D01*
X133210193Y-109174505D01*
X133210195Y-109174505D01*
X133215740Y-109175760D01*
X133325318Y-109180065D01*
X133412161Y-109183477D01*
X133412163Y-109183477D01*
X133417842Y-109183700D01*
X133423462Y-109182885D01*
X133423465Y-109182885D01*
X133612387Y-109155493D01*
X133612389Y-109155493D01*
X133618007Y-109154678D01*
X133623384Y-109152853D01*
X133623387Y-109152852D01*
X133751382Y-109109403D01*
X133809531Y-109089664D01*
X133986001Y-108990837D01*
X134006734Y-108973594D01*
X134137138Y-108865137D01*
X134141505Y-108861505D01*
X134191208Y-108801744D01*
X134267206Y-108710367D01*
X134267207Y-108710366D01*
X134270837Y-108706001D01*
X134369664Y-108529531D01*
X134416655Y-108391101D01*
X134432852Y-108343387D01*
X134432853Y-108343384D01*
X134434678Y-108338007D01*
X134435493Y-108332387D01*
X134463176Y-108141458D01*
X134463176Y-108141453D01*
X134463700Y-108137842D01*
X134464084Y-108123202D01*
X134465119Y-108083661D01*
X134465215Y-108080000D01*
X134446708Y-107878591D01*
X134416740Y-107772331D01*
X134393352Y-107689403D01*
X134393351Y-107689400D01*
X134391807Y-107683926D01*
X134302351Y-107502527D01*
X134181335Y-107340467D01*
X134111224Y-107275657D01*
X134036988Y-107207034D01*
X134036986Y-107207033D01*
X134032812Y-107203174D01*
X133880841Y-107107287D01*
X133866566Y-107098280D01*
X133866564Y-107098279D01*
X133861757Y-107095246D01*
X133673898Y-107020298D01*
X133668317Y-107019188D01*
X133668314Y-107019187D01*
X133600373Y-107005673D01*
X133475526Y-106980839D01*
X133469839Y-106980765D01*
X133469834Y-106980764D01*
X133278975Y-106978266D01*
X133278970Y-106978266D01*
X133273286Y-106978192D01*
X133267682Y-106979155D01*
X133267681Y-106979155D01*
X133079546Y-107011482D01*
X133079543Y-107011483D01*
X133073949Y-107012444D01*
X133026877Y-107029810D01*
X132889521Y-107080483D01*
X132889517Y-107080485D01*
X132884193Y-107082449D01*
X132879310Y-107085354D01*
X132879308Y-107085355D01*
X132842444Y-107107287D01*
X132710371Y-107185862D01*
X132558305Y-107319220D01*
X132433089Y-107478057D01*
X132338914Y-107657053D01*
X132337229Y-107662479D01*
X132337228Y-107662482D01*
X132321281Y-107713840D01*
X132278937Y-107850213D01*
X132255164Y-108051069D01*
X127718533Y-108051069D01*
X127666566Y-108018280D01*
X127666564Y-108018279D01*
X127661757Y-108015246D01*
X127473898Y-107940298D01*
X127468317Y-107939188D01*
X127468314Y-107939187D01*
X127400373Y-107925673D01*
X127275526Y-107900839D01*
X127269839Y-107900765D01*
X127269834Y-107900764D01*
X127078975Y-107898266D01*
X127078970Y-107898266D01*
X127073286Y-107898192D01*
X127067682Y-107899155D01*
X127067681Y-107899155D01*
X126879546Y-107931482D01*
X126879543Y-107931483D01*
X126873949Y-107932444D01*
X126852660Y-107940298D01*
X126689521Y-108000483D01*
X126689517Y-108000485D01*
X126684193Y-108002449D01*
X126679310Y-108005354D01*
X126679308Y-108005355D01*
X126515262Y-108102952D01*
X126510371Y-108105862D01*
X126358305Y-108239220D01*
X126233089Y-108398057D01*
X126230442Y-108403088D01*
X126207781Y-108446160D01*
X126138914Y-108577053D01*
X126137229Y-108582479D01*
X126137228Y-108582482D01*
X126112060Y-108663539D01*
X126078937Y-108770213D01*
X126055164Y-108971069D01*
X110965377Y-108971069D01*
X111039407Y-108897039D01*
X111045914Y-108885123D01*
X111037225Y-108873687D01*
X110843282Y-108732779D01*
X115725742Y-108732779D01*
X115726073Y-108746653D01*
X115733889Y-108750000D01*
X116732170Y-108750000D01*
X116747169Y-108745596D01*
X116748356Y-108744226D01*
X116750000Y-108736668D01*
X116750000Y-108732170D01*
X117250000Y-108732170D01*
X117254404Y-108747169D01*
X117255774Y-108748356D01*
X117263332Y-108750000D01*
X118261042Y-108750000D01*
X118274359Y-108746090D01*
X118275569Y-108737674D01*
X118227669Y-108558908D01*
X118223977Y-108548765D01*
X118132420Y-108352420D01*
X118127032Y-108343087D01*
X118002767Y-108165619D01*
X117995831Y-108157353D01*
X117842647Y-108004169D01*
X117834381Y-107997233D01*
X117656913Y-107872968D01*
X117647580Y-107867580D01*
X117451235Y-107776023D01*
X117441092Y-107772331D01*
X117267221Y-107725742D01*
X117253347Y-107726073D01*
X117250000Y-107733889D01*
X117250000Y-108732170D01*
X116750000Y-108732170D01*
X116750000Y-107738958D01*
X116746090Y-107725641D01*
X116737674Y-107724431D01*
X116558908Y-107772331D01*
X116548765Y-107776023D01*
X116352420Y-107867580D01*
X116343087Y-107872968D01*
X116165619Y-107997233D01*
X116157353Y-108004169D01*
X116004169Y-108157353D01*
X115997233Y-108165619D01*
X115872968Y-108343087D01*
X115867580Y-108352420D01*
X115776023Y-108548765D01*
X115772331Y-108558908D01*
X115725742Y-108732779D01*
X110843282Y-108732779D01*
X110829361Y-108722665D01*
X110822803Y-108718503D01*
X110564441Y-108576467D01*
X110557393Y-108573150D01*
X110283278Y-108464621D01*
X110275883Y-108462218D01*
X109990326Y-108388899D01*
X109982668Y-108387438D01*
X109690176Y-108350488D01*
X109682415Y-108350000D01*
X109387585Y-108350000D01*
X109379824Y-108350488D01*
X109087332Y-108387438D01*
X109079674Y-108388899D01*
X108794117Y-108462218D01*
X108786722Y-108464621D01*
X108512607Y-108573150D01*
X108505559Y-108576467D01*
X108417729Y-108624752D01*
X108349499Y-108639799D01*
X108283965Y-108615569D01*
X108241934Y-108559756D01*
X108236750Y-108490079D01*
X108249018Y-108456922D01*
X108252246Y-108450977D01*
X108252246Y-108450976D01*
X108254263Y-108447262D01*
X108256097Y-108442408D01*
X108352948Y-108186100D01*
X108352949Y-108186096D01*
X108354438Y-108182156D01*
X108355380Y-108178044D01*
X108416764Y-107910028D01*
X108416765Y-107910023D01*
X108417707Y-107905909D01*
X108439917Y-107657053D01*
X108442683Y-107626067D01*
X108442684Y-107626057D01*
X108442900Y-107623631D01*
X108443357Y-107580000D01*
X108424081Y-107297256D01*
X108420480Y-107279865D01*
X108380198Y-107085355D01*
X108366611Y-107019744D01*
X108365207Y-107015779D01*
X108365205Y-107015772D01*
X108273421Y-106756581D01*
X108272011Y-106752599D01*
X108244261Y-106698834D01*
X108231006Y-106630235D01*
X108256943Y-106565357D01*
X108313838Y-106524802D01*
X108383627Y-106521445D01*
X108414188Y-106533301D01*
X108505559Y-106583533D01*
X108512607Y-106586850D01*
X108786722Y-106695379D01*
X108794117Y-106697782D01*
X109079674Y-106771101D01*
X109087332Y-106772562D01*
X109379824Y-106809512D01*
X109387585Y-106810000D01*
X109682415Y-106810000D01*
X109690176Y-106809512D01*
X109982668Y-106772562D01*
X109990326Y-106771101D01*
X110275883Y-106697782D01*
X110283278Y-106695379D01*
X110557393Y-106586850D01*
X110564441Y-106583533D01*
X110822803Y-106441497D01*
X110829361Y-106437335D01*
X111037588Y-106286049D01*
X111045880Y-106275296D01*
X111039087Y-106262641D01*
X109182560Y-104406113D01*
X109893668Y-104406113D01*
X109893797Y-104407919D01*
X109897979Y-104414426D01*
X111390632Y-105907078D01*
X111403682Y-105914204D01*
X111413626Y-105907130D01*
X111482046Y-105824424D01*
X111486622Y-105818126D01*
X111644598Y-105569194D01*
X111648343Y-105562383D01*
X111773875Y-105295616D01*
X111776738Y-105288386D01*
X111867843Y-105007992D01*
X111869778Y-105000453D01*
X111875383Y-104971069D01*
X115975164Y-104971069D01*
X115975535Y-104976731D01*
X115975535Y-104976735D01*
X115980851Y-105057842D01*
X115988392Y-105172894D01*
X116038178Y-105368928D01*
X116040554Y-105374082D01*
X116103707Y-105511069D01*
X116122856Y-105552607D01*
X116239588Y-105717780D01*
X116384466Y-105858913D01*
X116552637Y-105971282D01*
X116738470Y-106051122D01*
X116834502Y-106072852D01*
X116930193Y-106094505D01*
X116930195Y-106094505D01*
X116935740Y-106095760D01*
X117053135Y-106100372D01*
X117132161Y-106103477D01*
X117132163Y-106103477D01*
X117137842Y-106103700D01*
X117143462Y-106102885D01*
X117143465Y-106102885D01*
X117332387Y-106075493D01*
X117332389Y-106075493D01*
X117338007Y-106074678D01*
X117343384Y-106072853D01*
X117343387Y-106072852D01*
X117516984Y-106013923D01*
X117529531Y-106009664D01*
X117706001Y-105910837D01*
X117740917Y-105881798D01*
X117857138Y-105785137D01*
X117861505Y-105781505D01*
X117918364Y-105713140D01*
X117987206Y-105630367D01*
X117987207Y-105630366D01*
X117990837Y-105626001D01*
X118004595Y-105601435D01*
X118061929Y-105499056D01*
X118089664Y-105449531D01*
X118127323Y-105338591D01*
X118152852Y-105263387D01*
X118152853Y-105263384D01*
X118154678Y-105258007D01*
X118160835Y-105215541D01*
X118183176Y-105061458D01*
X118183176Y-105061453D01*
X118183700Y-105057842D01*
X118185215Y-105000000D01*
X118182557Y-104971069D01*
X126135164Y-104971069D01*
X126135535Y-104976731D01*
X126135535Y-104976735D01*
X126140851Y-105057842D01*
X126148392Y-105172894D01*
X126198178Y-105368928D01*
X126200554Y-105374082D01*
X126263707Y-105511069D01*
X126282856Y-105552607D01*
X126399588Y-105717780D01*
X126544466Y-105858913D01*
X126712637Y-105971282D01*
X126898470Y-106051122D01*
X126994502Y-106072852D01*
X127090193Y-106094505D01*
X127090195Y-106094505D01*
X127095740Y-106095760D01*
X127213135Y-106100372D01*
X127292161Y-106103477D01*
X127292163Y-106103477D01*
X127297842Y-106103700D01*
X127303462Y-106102885D01*
X127303465Y-106102885D01*
X127492387Y-106075493D01*
X127492389Y-106075493D01*
X127498007Y-106074678D01*
X127503384Y-106072853D01*
X127503387Y-106072852D01*
X127676984Y-106013923D01*
X127689531Y-106009664D01*
X127866001Y-105910837D01*
X127900917Y-105881798D01*
X128017138Y-105785137D01*
X128021505Y-105781505D01*
X128078364Y-105713140D01*
X128147206Y-105630367D01*
X128147207Y-105630366D01*
X128150837Y-105626001D01*
X128164595Y-105601435D01*
X128215202Y-105511069D01*
X132255164Y-105511069D01*
X132255535Y-105516731D01*
X132255535Y-105516735D01*
X132260851Y-105597842D01*
X132268392Y-105712894D01*
X132318178Y-105908928D01*
X132320554Y-105914082D01*
X132394591Y-106074678D01*
X132402856Y-106092607D01*
X132519588Y-106257780D01*
X132664466Y-106398913D01*
X132832637Y-106511282D01*
X133018470Y-106591122D01*
X133053944Y-106599149D01*
X133210193Y-106634505D01*
X133210195Y-106634505D01*
X133215740Y-106635760D01*
X133333135Y-106640372D01*
X133412161Y-106643477D01*
X133412163Y-106643477D01*
X133417842Y-106643700D01*
X133423462Y-106642885D01*
X133423465Y-106642885D01*
X133612387Y-106615493D01*
X133612389Y-106615493D01*
X133618007Y-106614678D01*
X133623384Y-106612853D01*
X133623387Y-106612852D01*
X133763301Y-106565357D01*
X133809531Y-106549664D01*
X133986001Y-106450837D01*
X133996948Y-106441733D01*
X134137138Y-106325137D01*
X134141505Y-106321505D01*
X134270837Y-106166001D01*
X134369664Y-105989531D01*
X134425750Y-105824309D01*
X134432852Y-105803387D01*
X134432853Y-105803384D01*
X134433212Y-105802326D01*
X139704431Y-105802326D01*
X139752331Y-105981092D01*
X139756023Y-105991235D01*
X139847580Y-106187580D01*
X139852968Y-106196913D01*
X139977233Y-106374381D01*
X139984169Y-106382647D01*
X140137353Y-106535831D01*
X140145619Y-106542767D01*
X140323087Y-106667032D01*
X140332420Y-106672420D01*
X140528769Y-106763979D01*
X140538902Y-106767668D01*
X140636052Y-106793699D01*
X140695712Y-106830064D01*
X140726241Y-106892911D01*
X140717946Y-106962287D01*
X140673461Y-107016165D01*
X140646877Y-107029810D01*
X140509521Y-107080483D01*
X140509517Y-107080485D01*
X140504193Y-107082449D01*
X140499310Y-107085354D01*
X140499308Y-107085355D01*
X140462444Y-107107287D01*
X140330371Y-107185862D01*
X140178305Y-107319220D01*
X140053089Y-107478057D01*
X139958914Y-107657053D01*
X139957229Y-107662479D01*
X139957228Y-107662482D01*
X139941281Y-107713840D01*
X139898937Y-107850213D01*
X139875164Y-108051069D01*
X139875535Y-108056731D01*
X139875535Y-108056735D01*
X139880851Y-108137842D01*
X139888392Y-108252894D01*
X139938178Y-108448928D01*
X139940554Y-108454082D01*
X140012256Y-108609613D01*
X140022856Y-108632607D01*
X140139588Y-108797780D01*
X140284466Y-108938913D01*
X140452637Y-109051282D01*
X140638470Y-109131122D01*
X140730825Y-109152020D01*
X140830193Y-109174505D01*
X140830195Y-109174505D01*
X140835740Y-109175760D01*
X140945318Y-109180065D01*
X141032161Y-109183477D01*
X141032163Y-109183477D01*
X141037842Y-109183700D01*
X141043462Y-109182885D01*
X141043465Y-109182885D01*
X141232387Y-109155493D01*
X141232389Y-109155493D01*
X141238007Y-109154678D01*
X141243384Y-109152853D01*
X141243387Y-109152852D01*
X141371382Y-109109403D01*
X141429531Y-109089664D01*
X141606001Y-108990837D01*
X141626734Y-108973594D01*
X141757138Y-108865137D01*
X141761505Y-108861505D01*
X141811208Y-108801744D01*
X141887206Y-108710367D01*
X141887207Y-108710366D01*
X141890837Y-108706001D01*
X141989664Y-108529531D01*
X142036655Y-108391101D01*
X142052852Y-108343387D01*
X142052853Y-108343384D01*
X142054678Y-108338007D01*
X142055493Y-108332387D01*
X142083176Y-108141458D01*
X142083176Y-108141453D01*
X142083700Y-108137842D01*
X142084084Y-108123202D01*
X142085074Y-108085395D01*
X168708157Y-108085395D01*
X168727038Y-108301206D01*
X168728912Y-108311837D01*
X168784983Y-108521098D01*
X168788672Y-108531231D01*
X168880228Y-108727575D01*
X168885625Y-108736921D01*
X168923399Y-108790867D01*
X168933710Y-108799110D01*
X168946943Y-108792154D01*
X169646491Y-108092607D01*
X169652767Y-108081113D01*
X170371319Y-108081113D01*
X170371448Y-108082918D01*
X170375631Y-108089427D01*
X171079070Y-108792865D01*
X171090656Y-108799192D01*
X171102480Y-108790044D01*
X171139677Y-108736921D01*
X171145074Y-108727575D01*
X171175769Y-108661749D01*
X171221941Y-108609310D01*
X171289135Y-108590158D01*
X171356016Y-108610374D01*
X171401351Y-108663539D01*
X171412151Y-108714154D01*
X171412151Y-108924646D01*
X171415269Y-108950846D01*
X171460712Y-109053153D01*
X171539938Y-109132241D01*
X171550409Y-109136870D01*
X171550410Y-109136871D01*
X171633798Y-109173737D01*
X171633800Y-109173738D01*
X171642324Y-109177506D01*
X171668005Y-109180500D01*
X173357297Y-109180500D01*
X173360951Y-109180065D01*
X173360953Y-109180065D01*
X173365917Y-109179474D01*
X173383497Y-109177382D01*
X173485804Y-109131939D01*
X173564892Y-109052713D01*
X173586578Y-109003661D01*
X173606388Y-108958853D01*
X173606389Y-108958851D01*
X173610157Y-108950327D01*
X173613151Y-108924646D01*
X173613151Y-108501059D01*
X184195890Y-108501059D01*
X184202846Y-108514292D01*
X184902393Y-109213840D01*
X184916113Y-109221332D01*
X184917918Y-109221203D01*
X184924427Y-109217020D01*
X185627865Y-108513581D01*
X185634192Y-108501995D01*
X185625044Y-108490171D01*
X185571921Y-108452974D01*
X185562575Y-108447577D01*
X185366231Y-108356021D01*
X185356098Y-108352332D01*
X185146837Y-108296261D01*
X185136206Y-108294387D01*
X184920395Y-108275506D01*
X184909605Y-108275506D01*
X184693794Y-108294387D01*
X184683163Y-108296261D01*
X184473902Y-108352332D01*
X184463769Y-108356021D01*
X184267425Y-108447577D01*
X184258079Y-108452974D01*
X184204133Y-108490748D01*
X184195890Y-108501059D01*
X173613151Y-108501059D01*
X173613151Y-107235354D01*
X173612593Y-107230661D01*
X173611132Y-107218390D01*
X173610033Y-107209154D01*
X173564590Y-107106847D01*
X173485364Y-107027759D01*
X173474893Y-107023130D01*
X173474892Y-107023129D01*
X173391504Y-106986263D01*
X173391502Y-106986262D01*
X173382978Y-106982494D01*
X173357297Y-106979500D01*
X171668005Y-106979500D01*
X171664351Y-106979935D01*
X171664349Y-106979935D01*
X171659385Y-106980526D01*
X171641805Y-106982618D01*
X171539498Y-107028061D01*
X171460410Y-107107287D01*
X171455781Y-107117758D01*
X171455780Y-107117759D01*
X171424014Y-107189613D01*
X171415145Y-107209673D01*
X171412151Y-107235354D01*
X171412151Y-107445846D01*
X171392466Y-107512885D01*
X171339662Y-107558640D01*
X171270504Y-107568584D01*
X171206948Y-107539559D01*
X171175769Y-107498251D01*
X171145074Y-107432425D01*
X171139677Y-107423079D01*
X171101903Y-107369133D01*
X171091592Y-107360890D01*
X171078359Y-107367846D01*
X170378811Y-108067393D01*
X170371319Y-108081113D01*
X169652767Y-108081113D01*
X169653983Y-108078887D01*
X169653854Y-108077082D01*
X169649671Y-108070573D01*
X168946232Y-107367135D01*
X168934646Y-107360808D01*
X168922822Y-107369956D01*
X168885625Y-107423079D01*
X168880228Y-107432425D01*
X168788672Y-107628769D01*
X168784983Y-107638902D01*
X168728912Y-107848163D01*
X168727038Y-107858794D01*
X168708157Y-108074605D01*
X168708157Y-108085395D01*
X142085074Y-108085395D01*
X142085119Y-108083661D01*
X142085215Y-108080000D01*
X142066708Y-107878591D01*
X142036740Y-107772331D01*
X142013352Y-107689403D01*
X142013351Y-107689400D01*
X142011807Y-107683926D01*
X141922351Y-107502527D01*
X141801335Y-107340467D01*
X141731224Y-107275657D01*
X141656988Y-107207034D01*
X141656986Y-107207033D01*
X141652812Y-107203174D01*
X141500841Y-107107287D01*
X141486566Y-107098280D01*
X141486564Y-107098279D01*
X141481757Y-107095246D01*
X141312921Y-107027888D01*
X141278722Y-107001059D01*
X169293541Y-107001059D01*
X169300497Y-107014292D01*
X170000044Y-107713840D01*
X170013764Y-107721332D01*
X170015569Y-107721203D01*
X170022078Y-107717020D01*
X170725516Y-107013581D01*
X170731843Y-107001995D01*
X170722695Y-106990171D01*
X170669572Y-106952974D01*
X170660226Y-106947577D01*
X170463882Y-106856021D01*
X170453749Y-106852332D01*
X170244488Y-106796261D01*
X170233857Y-106794387D01*
X170018046Y-106775506D01*
X170007256Y-106775506D01*
X169791445Y-106794387D01*
X169780814Y-106796261D01*
X169571553Y-106852332D01*
X169561420Y-106856021D01*
X169365076Y-106947577D01*
X169355730Y-106952974D01*
X169301784Y-106990748D01*
X169293541Y-107001059D01*
X141278722Y-107001059D01*
X141257949Y-106984763D01*
X141235019Y-106918764D01*
X141251410Y-106850844D01*
X141301920Y-106802568D01*
X141326777Y-106792941D01*
X141421098Y-106767668D01*
X141431231Y-106763979D01*
X141627580Y-106672420D01*
X141636913Y-106667032D01*
X141814381Y-106542767D01*
X141822647Y-106535831D01*
X141975831Y-106382647D01*
X141982767Y-106374381D01*
X142107032Y-106196913D01*
X142112420Y-106187580D01*
X142203977Y-105991235D01*
X142207669Y-105981092D01*
X142254258Y-105807221D01*
X142253927Y-105793347D01*
X142246111Y-105790000D01*
X139718958Y-105790000D01*
X139705641Y-105793910D01*
X139704431Y-105802326D01*
X134433212Y-105802326D01*
X134434678Y-105798007D01*
X134445450Y-105723715D01*
X134463176Y-105601458D01*
X134463176Y-105601453D01*
X134463700Y-105597842D01*
X134465215Y-105540000D01*
X134446708Y-105338591D01*
X134428147Y-105272779D01*
X139705742Y-105272779D01*
X139706073Y-105286653D01*
X139713889Y-105290000D01*
X142241042Y-105290000D01*
X142254359Y-105286090D01*
X142255569Y-105277674D01*
X142207669Y-105098908D01*
X142203977Y-105088765D01*
X142112420Y-104892420D01*
X142107032Y-104883087D01*
X141982767Y-104705619D01*
X141975831Y-104697353D01*
X141822647Y-104544169D01*
X141814381Y-104537233D01*
X141636913Y-104412968D01*
X141627580Y-104407580D01*
X141431231Y-104316021D01*
X141421095Y-104312331D01*
X141322358Y-104285875D01*
X141262697Y-104249510D01*
X141232168Y-104186663D01*
X141240463Y-104117288D01*
X141284948Y-104063410D01*
X141314592Y-104048681D01*
X141404149Y-104018280D01*
X141429531Y-104009664D01*
X141498448Y-103971069D01*
X145475164Y-103971069D01*
X145475535Y-103976731D01*
X145475535Y-103976735D01*
X145480769Y-104056586D01*
X145488392Y-104172894D01*
X145538178Y-104368928D01*
X145540554Y-104374082D01*
X145590494Y-104482408D01*
X145622856Y-104552607D01*
X145739588Y-104717780D01*
X145884466Y-104858913D01*
X146052637Y-104971282D01*
X146238470Y-105051122D01*
X146321885Y-105069997D01*
X146430193Y-105094505D01*
X146430195Y-105094505D01*
X146435740Y-105095760D01*
X146553135Y-105100372D01*
X146632161Y-105103477D01*
X146632163Y-105103477D01*
X146637842Y-105103700D01*
X146643462Y-105102885D01*
X146643465Y-105102885D01*
X146832387Y-105075493D01*
X146832389Y-105075493D01*
X146838007Y-105074678D01*
X146843384Y-105072853D01*
X146843387Y-105072852D01*
X146929598Y-105043587D01*
X147029531Y-105009664D01*
X147206001Y-104910837D01*
X147230388Y-104890555D01*
X147357138Y-104785137D01*
X147361505Y-104781505D01*
X147411208Y-104721744D01*
X147487206Y-104630367D01*
X147487207Y-104630366D01*
X147490837Y-104626001D01*
X147503200Y-104603926D01*
X147586886Y-104454491D01*
X147589664Y-104449531D01*
X147630692Y-104328668D01*
X147652852Y-104263387D01*
X147652853Y-104263384D01*
X147654678Y-104258007D01*
X147658473Y-104231837D01*
X147683176Y-104061458D01*
X147683176Y-104061453D01*
X147683700Y-104057842D01*
X147683876Y-104051148D01*
X147685119Y-104003661D01*
X147685215Y-104000000D01*
X147682557Y-103971069D01*
X155635164Y-103971069D01*
X155635535Y-103976731D01*
X155635535Y-103976735D01*
X155640769Y-104056586D01*
X155648392Y-104172894D01*
X155698178Y-104368928D01*
X155700554Y-104374082D01*
X155750494Y-104482408D01*
X155782856Y-104552607D01*
X155899588Y-104717780D01*
X156044466Y-104858913D01*
X156212637Y-104971282D01*
X156398470Y-105051122D01*
X156481885Y-105069997D01*
X156590193Y-105094505D01*
X156590195Y-105094505D01*
X156595740Y-105095760D01*
X156713135Y-105100372D01*
X156792161Y-105103477D01*
X156792163Y-105103477D01*
X156797842Y-105103700D01*
X156803462Y-105102885D01*
X156803465Y-105102885D01*
X156975062Y-105078005D01*
X184140808Y-105078005D01*
X184149956Y-105089829D01*
X184203079Y-105127026D01*
X184212425Y-105132423D01*
X184408769Y-105223979D01*
X184418902Y-105227668D01*
X184628163Y-105283739D01*
X184638794Y-105285613D01*
X184854605Y-105304494D01*
X184865395Y-105304494D01*
X185081206Y-105285613D01*
X185091837Y-105283739D01*
X185301098Y-105227668D01*
X185311231Y-105223979D01*
X185507575Y-105132423D01*
X185516921Y-105127026D01*
X185570867Y-105089252D01*
X185579110Y-105078941D01*
X185572154Y-105065708D01*
X184872607Y-104366160D01*
X184858887Y-104358668D01*
X184857082Y-104358797D01*
X184850573Y-104362980D01*
X184147135Y-105066419D01*
X184140808Y-105078005D01*
X156975062Y-105078005D01*
X156992387Y-105075493D01*
X156992389Y-105075493D01*
X156998007Y-105074678D01*
X157003384Y-105072853D01*
X157003387Y-105072852D01*
X157089598Y-105043587D01*
X157189531Y-105009664D01*
X157366001Y-104910837D01*
X157390388Y-104890555D01*
X157517138Y-104785137D01*
X157521505Y-104781505D01*
X157571208Y-104721744D01*
X157647206Y-104630367D01*
X157647207Y-104630366D01*
X157650837Y-104626001D01*
X157663200Y-104603926D01*
X157746886Y-104454491D01*
X157749664Y-104449531D01*
X157790692Y-104328668D01*
X157812852Y-104263387D01*
X157812853Y-104263384D01*
X157814678Y-104258007D01*
X157818473Y-104231837D01*
X157843176Y-104061458D01*
X157843176Y-104061453D01*
X157843700Y-104057842D01*
X157843876Y-104051148D01*
X157845074Y-104005395D01*
X183555506Y-104005395D01*
X183574387Y-104221206D01*
X183576261Y-104231837D01*
X183632332Y-104441098D01*
X183636021Y-104451231D01*
X183727577Y-104647575D01*
X183732974Y-104656921D01*
X183770748Y-104710867D01*
X183781059Y-104719110D01*
X183794292Y-104712154D01*
X184493840Y-104012607D01*
X184500116Y-104001113D01*
X185218668Y-104001113D01*
X185218797Y-104002918D01*
X185222980Y-104009427D01*
X185926419Y-104712865D01*
X185938005Y-104719192D01*
X185949829Y-104710044D01*
X185987026Y-104656921D01*
X185992423Y-104647575D01*
X186083979Y-104451231D01*
X186087667Y-104441100D01*
X186095850Y-104410561D01*
X186132216Y-104350901D01*
X186195063Y-104320373D01*
X186264439Y-104328668D01*
X186318316Y-104373154D01*
X186328232Y-104390737D01*
X186402856Y-104552607D01*
X186519588Y-104717780D01*
X186664466Y-104858913D01*
X186832637Y-104971282D01*
X187018470Y-105051122D01*
X187101885Y-105069997D01*
X187210193Y-105094505D01*
X187210195Y-105094505D01*
X187215740Y-105095760D01*
X187333135Y-105100372D01*
X187412161Y-105103477D01*
X187412163Y-105103477D01*
X187417842Y-105103700D01*
X187423462Y-105102885D01*
X187423465Y-105102885D01*
X187612387Y-105075493D01*
X187612389Y-105075493D01*
X187618007Y-105074678D01*
X187623384Y-105072853D01*
X187623387Y-105072852D01*
X187709598Y-105043587D01*
X187809531Y-105009664D01*
X187986001Y-104910837D01*
X188010388Y-104890555D01*
X188137138Y-104785137D01*
X188141505Y-104781505D01*
X188191208Y-104721744D01*
X188267206Y-104630367D01*
X188267207Y-104630366D01*
X188270837Y-104626001D01*
X188283200Y-104603926D01*
X188366886Y-104454491D01*
X188369664Y-104449531D01*
X188404161Y-104347906D01*
X191994010Y-104347906D01*
X192003932Y-104412740D01*
X192006280Y-104422599D01*
X192077325Y-104639960D01*
X192081255Y-104649309D01*
X192186842Y-104852140D01*
X192192248Y-104860725D01*
X192329544Y-105043587D01*
X192336279Y-105051173D01*
X192501603Y-105209160D01*
X192509483Y-105215541D01*
X192698382Y-105344399D01*
X192707205Y-105349411D01*
X192718938Y-105354857D01*
X192771459Y-105400937D01*
X192790730Y-105468097D01*
X192770632Y-105535013D01*
X192739091Y-105568031D01*
X192600454Y-105667651D01*
X192444800Y-105828274D01*
X192441722Y-105832854D01*
X192441720Y-105832857D01*
X192323129Y-106009339D01*
X192320049Y-106013923D01*
X192317828Y-106018983D01*
X192253292Y-106166001D01*
X192230146Y-106218728D01*
X192177931Y-106436218D01*
X192177613Y-106441733D01*
X192169000Y-106591122D01*
X192165056Y-106659517D01*
X192175866Y-106748846D01*
X192188836Y-106856021D01*
X192191927Y-106881566D01*
X192193552Y-106886848D01*
X192256071Y-107090071D01*
X192256073Y-107090077D01*
X192257695Y-107095348D01*
X192360281Y-107294105D01*
X192363640Y-107298483D01*
X192363641Y-107298484D01*
X192493082Y-107467176D01*
X192493086Y-107467180D01*
X192496442Y-107471554D01*
X192661875Y-107622086D01*
X192851350Y-107740944D01*
X192856468Y-107743001D01*
X192856471Y-107743003D01*
X192990249Y-107796781D01*
X193058879Y-107824370D01*
X193277902Y-107869728D01*
X193334652Y-107873000D01*
X193574252Y-107873000D01*
X193576995Y-107872755D01*
X193576999Y-107872755D01*
X193734784Y-107858673D01*
X193734786Y-107858673D01*
X193740284Y-107858182D01*
X193776908Y-107848163D01*
X193950693Y-107800621D01*
X193950694Y-107800621D01*
X193956026Y-107799162D01*
X194157907Y-107702869D01*
X194184270Y-107683926D01*
X194275506Y-107618366D01*
X194339546Y-107572349D01*
X194495200Y-107411726D01*
X194523269Y-107369956D01*
X194616871Y-107230661D01*
X194616872Y-107230658D01*
X194619951Y-107226077D01*
X194678307Y-107093139D01*
X194707632Y-107026335D01*
X194707634Y-107026330D01*
X194709854Y-107021272D01*
X194762069Y-106803782D01*
X194766386Y-106728903D01*
X194774626Y-106586000D01*
X194774626Y-106585999D01*
X194774944Y-106580483D01*
X194752972Y-106398913D01*
X194748737Y-106363918D01*
X194748736Y-106363914D01*
X194748073Y-106358434D01*
X194742149Y-106339177D01*
X194683929Y-106149929D01*
X194683927Y-106149923D01*
X194682305Y-106144652D01*
X194660748Y-106102885D01*
X194599461Y-105984145D01*
X194579719Y-105945895D01*
X194576359Y-105941516D01*
X194446918Y-105772824D01*
X194446914Y-105772820D01*
X194443558Y-105768446D01*
X194278125Y-105617914D01*
X194273445Y-105614978D01*
X194273442Y-105614976D01*
X194207611Y-105573680D01*
X194161280Y-105521380D01*
X194150580Y-105452335D01*
X194178908Y-105388465D01*
X194206981Y-105365638D01*
X194206232Y-105364480D01*
X194402498Y-105237510D01*
X194410540Y-105231317D01*
X194579661Y-105077430D01*
X194586592Y-105069997D01*
X194728305Y-104890555D01*
X194733927Y-104882095D01*
X194844431Y-104681918D01*
X194848595Y-104672653D01*
X194924924Y-104457107D01*
X194927518Y-104447288D01*
X194945283Y-104347554D01*
X194943847Y-104334469D01*
X194929519Y-104330000D01*
X192009100Y-104330000D01*
X191995965Y-104333857D01*
X191994010Y-104347906D01*
X188404161Y-104347906D01*
X188410692Y-104328668D01*
X188432852Y-104263387D01*
X188432853Y-104263384D01*
X188434678Y-104258007D01*
X188438473Y-104231837D01*
X188463176Y-104061458D01*
X188463176Y-104061453D01*
X188463700Y-104057842D01*
X188463876Y-104051148D01*
X188465119Y-104003661D01*
X188465215Y-104000000D01*
X188447981Y-103812446D01*
X191994717Y-103812446D01*
X191996153Y-103825531D01*
X192010481Y-103830000D01*
X194930900Y-103830000D01*
X194944035Y-103826143D01*
X194945990Y-103812094D01*
X194936068Y-103747260D01*
X194933720Y-103737401D01*
X194862675Y-103520040D01*
X194858745Y-103510691D01*
X194753158Y-103307860D01*
X194747752Y-103299275D01*
X194610456Y-103116413D01*
X194603721Y-103108827D01*
X194487533Y-102997795D01*
X194452666Y-102937247D01*
X194456068Y-102867460D01*
X194496660Y-102810591D01*
X194536806Y-102790363D01*
X194540846Y-102789882D01*
X194643153Y-102744439D01*
X194722241Y-102665213D01*
X194749336Y-102603926D01*
X194763737Y-102571353D01*
X194763738Y-102571351D01*
X194767506Y-102562827D01*
X194770500Y-102537146D01*
X194770500Y-100542854D01*
X194767382Y-100516654D01*
X194721939Y-100414347D01*
X194642713Y-100335259D01*
X194632242Y-100330630D01*
X194632241Y-100330629D01*
X194548853Y-100293763D01*
X194548851Y-100293762D01*
X194540327Y-100289994D01*
X194514646Y-100287000D01*
X192425354Y-100287000D01*
X192421700Y-100287435D01*
X192421698Y-100287435D01*
X192418245Y-100287846D01*
X192399154Y-100290118D01*
X192296847Y-100335561D01*
X192217759Y-100414787D01*
X192172494Y-100517173D01*
X192169500Y-100542854D01*
X192169500Y-102537146D01*
X192172618Y-102563346D01*
X192218061Y-102665653D01*
X192297287Y-102744741D01*
X192307758Y-102749370D01*
X192307759Y-102749371D01*
X192391145Y-102786236D01*
X192391146Y-102786236D01*
X192399673Y-102790006D01*
X192402927Y-102790385D01*
X192459694Y-102825329D01*
X192489947Y-102888310D01*
X192481348Y-102957648D01*
X192451029Y-103000050D01*
X192360334Y-103082576D01*
X192353408Y-103090003D01*
X192211695Y-103269445D01*
X192206073Y-103277905D01*
X192095569Y-103478082D01*
X192091405Y-103487347D01*
X192015076Y-103702893D01*
X192012482Y-103712712D01*
X191994717Y-103812446D01*
X188447981Y-103812446D01*
X188446708Y-103798591D01*
X188402320Y-103641203D01*
X188393352Y-103609403D01*
X188393351Y-103609400D01*
X188391807Y-103603926D01*
X188302351Y-103422527D01*
X188181335Y-103260467D01*
X188086599Y-103172894D01*
X188036988Y-103127034D01*
X188036986Y-103127033D01*
X188032812Y-103123174D01*
X188028002Y-103120139D01*
X187866566Y-103018280D01*
X187866564Y-103018279D01*
X187861757Y-103015246D01*
X187673898Y-102940298D01*
X187668317Y-102939188D01*
X187668314Y-102939187D01*
X187581883Y-102921995D01*
X187475526Y-102900839D01*
X187469839Y-102900765D01*
X187469834Y-102900764D01*
X187278975Y-102898266D01*
X187278970Y-102898266D01*
X187273286Y-102898192D01*
X187267682Y-102899155D01*
X187267681Y-102899155D01*
X187079546Y-102931482D01*
X187079543Y-102931483D01*
X187073949Y-102932444D01*
X187052660Y-102940298D01*
X186889521Y-103000483D01*
X186889517Y-103000485D01*
X186884193Y-103002449D01*
X186879310Y-103005354D01*
X186879308Y-103005355D01*
X186715262Y-103102952D01*
X186710371Y-103105862D01*
X186558305Y-103239220D01*
X186433089Y-103398057D01*
X186430442Y-103403088D01*
X186386111Y-103487347D01*
X186338914Y-103577053D01*
X186337229Y-103582480D01*
X186337226Y-103582487D01*
X186333848Y-103593367D01*
X186295170Y-103651555D01*
X186231173Y-103679594D01*
X186162176Y-103668583D01*
X186110086Y-103622017D01*
X186095650Y-103588692D01*
X186087668Y-103558902D01*
X186083979Y-103548769D01*
X185992423Y-103352425D01*
X185987026Y-103343079D01*
X185949252Y-103289133D01*
X185938941Y-103280890D01*
X185925708Y-103287846D01*
X185226160Y-103987393D01*
X185218668Y-104001113D01*
X184500116Y-104001113D01*
X184501332Y-103998887D01*
X184501203Y-103997082D01*
X184497020Y-103990573D01*
X183793581Y-103287135D01*
X183781995Y-103280808D01*
X183770171Y-103289956D01*
X183732974Y-103343079D01*
X183727577Y-103352425D01*
X183636021Y-103548769D01*
X183632332Y-103558902D01*
X183576261Y-103768163D01*
X183574387Y-103778794D01*
X183555506Y-103994605D01*
X183555506Y-104005395D01*
X157845074Y-104005395D01*
X157845119Y-104003661D01*
X157845215Y-104000000D01*
X157826708Y-103798591D01*
X157782320Y-103641203D01*
X157773352Y-103609403D01*
X157773351Y-103609400D01*
X157771807Y-103603926D01*
X157682351Y-103422527D01*
X157561335Y-103260467D01*
X157466599Y-103172894D01*
X157416988Y-103127034D01*
X157416986Y-103127033D01*
X157412812Y-103123174D01*
X157408002Y-103120139D01*
X157246566Y-103018280D01*
X157246564Y-103018279D01*
X157241757Y-103015246D01*
X157053898Y-102940298D01*
X157048317Y-102939188D01*
X157048314Y-102939187D01*
X156961883Y-102921995D01*
X156957177Y-102921059D01*
X184140890Y-102921059D01*
X184147846Y-102934292D01*
X184847393Y-103633840D01*
X184861113Y-103641332D01*
X184862918Y-103641203D01*
X184869427Y-103637020D01*
X185572865Y-102933581D01*
X185579192Y-102921995D01*
X185570044Y-102910171D01*
X185516921Y-102872974D01*
X185507575Y-102867577D01*
X185311231Y-102776021D01*
X185301098Y-102772332D01*
X185091837Y-102716261D01*
X185081206Y-102714387D01*
X184865395Y-102695506D01*
X184854605Y-102695506D01*
X184638794Y-102714387D01*
X184628163Y-102716261D01*
X184418902Y-102772332D01*
X184408769Y-102776021D01*
X184212425Y-102867577D01*
X184203079Y-102872974D01*
X184149133Y-102910748D01*
X184140890Y-102921059D01*
X156957177Y-102921059D01*
X156855526Y-102900839D01*
X156849839Y-102900765D01*
X156849834Y-102900764D01*
X156658975Y-102898266D01*
X156658970Y-102898266D01*
X156653286Y-102898192D01*
X156647682Y-102899155D01*
X156647681Y-102899155D01*
X156459546Y-102931482D01*
X156459543Y-102931483D01*
X156453949Y-102932444D01*
X156432660Y-102940298D01*
X156269521Y-103000483D01*
X156269517Y-103000485D01*
X156264193Y-103002449D01*
X156259310Y-103005354D01*
X156259308Y-103005355D01*
X156095262Y-103102952D01*
X156090371Y-103105862D01*
X155938305Y-103239220D01*
X155813089Y-103398057D01*
X155810442Y-103403088D01*
X155766111Y-103487347D01*
X155718914Y-103577053D01*
X155717229Y-103582479D01*
X155717228Y-103582482D01*
X155687075Y-103679594D01*
X155658937Y-103770213D01*
X155657171Y-103785137D01*
X155638938Y-103939187D01*
X155635164Y-103971069D01*
X147682557Y-103971069D01*
X147666708Y-103798591D01*
X147622320Y-103641203D01*
X147613352Y-103609403D01*
X147613351Y-103609400D01*
X147611807Y-103603926D01*
X147522351Y-103422527D01*
X147401335Y-103260467D01*
X147306599Y-103172894D01*
X147256988Y-103127034D01*
X147256986Y-103127033D01*
X147252812Y-103123174D01*
X147248002Y-103120139D01*
X147086566Y-103018280D01*
X147086564Y-103018279D01*
X147081757Y-103015246D01*
X146893898Y-102940298D01*
X146888317Y-102939188D01*
X146888314Y-102939187D01*
X146801883Y-102921995D01*
X146695526Y-102900839D01*
X146689839Y-102900765D01*
X146689834Y-102900764D01*
X146498975Y-102898266D01*
X146498970Y-102898266D01*
X146493286Y-102898192D01*
X146487682Y-102899155D01*
X146487681Y-102899155D01*
X146299546Y-102931482D01*
X146299543Y-102931483D01*
X146293949Y-102932444D01*
X146272660Y-102940298D01*
X146109521Y-103000483D01*
X146109517Y-103000485D01*
X146104193Y-103002449D01*
X146099310Y-103005354D01*
X146099308Y-103005355D01*
X145935262Y-103102952D01*
X145930371Y-103105862D01*
X145778305Y-103239220D01*
X145653089Y-103398057D01*
X145650442Y-103403088D01*
X145606111Y-103487347D01*
X145558914Y-103577053D01*
X145557229Y-103582479D01*
X145557228Y-103582482D01*
X145527075Y-103679594D01*
X145498937Y-103770213D01*
X145497171Y-103785137D01*
X145478938Y-103939187D01*
X145475164Y-103971069D01*
X141498448Y-103971069D01*
X141567419Y-103932444D01*
X141601048Y-103913611D01*
X141601050Y-103913610D01*
X141606001Y-103910837D01*
X141616687Y-103901950D01*
X141757138Y-103785137D01*
X141761505Y-103781505D01*
X141881673Y-103637020D01*
X141887206Y-103630367D01*
X141887207Y-103630366D01*
X141890837Y-103626001D01*
X141903200Y-103603926D01*
X141986886Y-103454491D01*
X141989664Y-103449531D01*
X142044549Y-103287846D01*
X142052852Y-103263387D01*
X142052853Y-103263384D01*
X142054678Y-103258007D01*
X142056185Y-103247617D01*
X142083176Y-103061458D01*
X142083176Y-103061453D01*
X142083700Y-103057842D01*
X142085215Y-103000000D01*
X142066708Y-102798591D01*
X142011807Y-102603926D01*
X141922351Y-102422527D01*
X141801335Y-102260467D01*
X141652812Y-102123174D01*
X141648002Y-102120139D01*
X141486566Y-102018280D01*
X141486564Y-102018279D01*
X141481757Y-102015246D01*
X141293898Y-101940298D01*
X141288317Y-101939188D01*
X141288314Y-101939187D01*
X141220373Y-101925673D01*
X141095526Y-101900839D01*
X141089839Y-101900765D01*
X141089834Y-101900764D01*
X140898975Y-101898266D01*
X140898970Y-101898266D01*
X140893286Y-101898192D01*
X140887682Y-101899155D01*
X140887681Y-101899155D01*
X140699546Y-101931482D01*
X140699543Y-101931483D01*
X140693949Y-101932444D01*
X140644731Y-101950601D01*
X140509521Y-102000483D01*
X140509517Y-102000485D01*
X140504193Y-102002449D01*
X140499310Y-102005354D01*
X140499308Y-102005355D01*
X140375621Y-102078941D01*
X140330371Y-102105862D01*
X140178305Y-102239220D01*
X140053089Y-102398057D01*
X140050442Y-102403088D01*
X139981847Y-102533465D01*
X139958914Y-102577053D01*
X139957229Y-102582479D01*
X139957228Y-102582482D01*
X139934652Y-102655191D01*
X139898937Y-102770213D01*
X139898269Y-102775857D01*
X139878938Y-102939187D01*
X139875164Y-102971069D01*
X139875535Y-102976731D01*
X139875535Y-102976735D01*
X139880851Y-103057842D01*
X139888392Y-103172894D01*
X139938178Y-103368928D01*
X140022856Y-103552607D01*
X140139588Y-103717780D01*
X140284466Y-103858913D01*
X140452637Y-103971282D01*
X140548320Y-104012391D01*
X140627021Y-104046203D01*
X140638336Y-104051065D01*
X140638337Y-104051065D01*
X140638470Y-104051122D01*
X140638459Y-104051148D01*
X140694528Y-104089488D01*
X140721725Y-104153847D01*
X140709810Y-104222693D01*
X140662565Y-104274168D01*
X140630626Y-104287755D01*
X140538905Y-104312331D01*
X140528769Y-104316021D01*
X140332420Y-104407580D01*
X140323087Y-104412968D01*
X140145619Y-104537233D01*
X140137353Y-104544169D01*
X139984169Y-104697353D01*
X139977233Y-104705619D01*
X139852968Y-104883087D01*
X139847580Y-104892420D01*
X139756023Y-105088765D01*
X139752331Y-105098908D01*
X139705742Y-105272779D01*
X134428147Y-105272779D01*
X134414384Y-105223979D01*
X134393352Y-105149403D01*
X134393351Y-105149400D01*
X134391807Y-105143926D01*
X134302351Y-104962527D01*
X134181335Y-104800467D01*
X134053089Y-104681918D01*
X134036988Y-104667034D01*
X134036986Y-104667033D01*
X134032812Y-104663174D01*
X134011319Y-104649613D01*
X133866566Y-104558280D01*
X133866564Y-104558279D01*
X133861757Y-104555246D01*
X133673898Y-104480298D01*
X133668317Y-104479188D01*
X133668314Y-104479187D01*
X133600373Y-104465673D01*
X133475526Y-104440839D01*
X133469839Y-104440765D01*
X133469834Y-104440764D01*
X133278975Y-104438266D01*
X133278970Y-104438266D01*
X133273286Y-104438192D01*
X133267682Y-104439155D01*
X133267681Y-104439155D01*
X133079546Y-104471482D01*
X133079543Y-104471483D01*
X133073949Y-104472444D01*
X133052660Y-104480298D01*
X132889521Y-104540483D01*
X132889517Y-104540485D01*
X132884193Y-104542449D01*
X132879310Y-104545354D01*
X132879308Y-104545355D01*
X132743754Y-104626001D01*
X132710371Y-104645862D01*
X132558305Y-104779220D01*
X132433089Y-104938057D01*
X132338914Y-105117053D01*
X132337229Y-105122479D01*
X132337228Y-105122482D01*
X132330570Y-105143926D01*
X132278937Y-105310213D01*
X132255164Y-105511069D01*
X128215202Y-105511069D01*
X128221929Y-105499056D01*
X128249664Y-105449531D01*
X128287323Y-105338591D01*
X128312852Y-105263387D01*
X128312853Y-105263384D01*
X128314678Y-105258007D01*
X128320835Y-105215541D01*
X128343176Y-105061458D01*
X128343176Y-105061453D01*
X128343700Y-105057842D01*
X128345215Y-105000000D01*
X128326708Y-104798591D01*
X128283634Y-104645862D01*
X128273352Y-104609403D01*
X128273351Y-104609400D01*
X128271807Y-104603926D01*
X128182351Y-104422527D01*
X128061335Y-104260467D01*
X127966599Y-104172894D01*
X127916988Y-104127034D01*
X127916986Y-104127033D01*
X127912812Y-104123174D01*
X127891319Y-104109613D01*
X127746566Y-104018280D01*
X127746564Y-104018279D01*
X127741757Y-104015246D01*
X127553898Y-103940298D01*
X127548317Y-103939188D01*
X127548314Y-103939187D01*
X127480373Y-103925673D01*
X127355526Y-103900839D01*
X127349839Y-103900765D01*
X127349834Y-103900764D01*
X127158975Y-103898266D01*
X127158970Y-103898266D01*
X127153286Y-103898192D01*
X127147682Y-103899155D01*
X127147681Y-103899155D01*
X126959546Y-103931482D01*
X126959543Y-103931483D01*
X126953949Y-103932444D01*
X126932660Y-103940298D01*
X126769521Y-104000483D01*
X126769517Y-104000485D01*
X126764193Y-104002449D01*
X126759310Y-104005354D01*
X126759308Y-104005355D01*
X126595262Y-104102952D01*
X126590371Y-104105862D01*
X126438305Y-104239220D01*
X126313089Y-104398057D01*
X126310442Y-104403088D01*
X126308079Y-104407580D01*
X126218914Y-104577053D01*
X126217229Y-104582479D01*
X126217228Y-104582482D01*
X126189230Y-104672653D01*
X126158937Y-104770213D01*
X126135164Y-104971069D01*
X118182557Y-104971069D01*
X118166708Y-104798591D01*
X118123634Y-104645862D01*
X118113352Y-104609403D01*
X118113351Y-104609400D01*
X118111807Y-104603926D01*
X118022351Y-104422527D01*
X117901335Y-104260467D01*
X117806599Y-104172894D01*
X117756988Y-104127034D01*
X117756986Y-104127033D01*
X117752812Y-104123174D01*
X117731319Y-104109613D01*
X117586566Y-104018280D01*
X117586564Y-104018279D01*
X117581757Y-104015246D01*
X117393898Y-103940298D01*
X117388317Y-103939188D01*
X117388314Y-103939187D01*
X117320373Y-103925673D01*
X117195526Y-103900839D01*
X117189839Y-103900765D01*
X117189834Y-103900764D01*
X116998975Y-103898266D01*
X116998970Y-103898266D01*
X116993286Y-103898192D01*
X116987682Y-103899155D01*
X116987681Y-103899155D01*
X116799546Y-103931482D01*
X116799543Y-103931483D01*
X116793949Y-103932444D01*
X116772660Y-103940298D01*
X116609521Y-104000483D01*
X116609517Y-104000485D01*
X116604193Y-104002449D01*
X116599310Y-104005354D01*
X116599308Y-104005355D01*
X116435262Y-104102952D01*
X116430371Y-104105862D01*
X116278305Y-104239220D01*
X116153089Y-104398057D01*
X116150442Y-104403088D01*
X116148079Y-104407580D01*
X116058914Y-104577053D01*
X116057229Y-104582479D01*
X116057228Y-104582482D01*
X116029230Y-104672653D01*
X115998937Y-104770213D01*
X115975164Y-104971069D01*
X111875383Y-104971069D01*
X111925023Y-104710849D01*
X111925998Y-104703129D01*
X111944510Y-104408894D01*
X111944510Y-104401106D01*
X111925998Y-104106871D01*
X111925023Y-104099151D01*
X111876474Y-103844646D01*
X132259500Y-103844646D01*
X132262618Y-103870846D01*
X132308061Y-103973153D01*
X132387287Y-104052241D01*
X132397758Y-104056870D01*
X132397759Y-104056871D01*
X132481147Y-104093737D01*
X132481149Y-104093738D01*
X132489673Y-104097506D01*
X132515354Y-104100500D01*
X134204646Y-104100500D01*
X134208300Y-104100065D01*
X134208302Y-104100065D01*
X134215981Y-104099151D01*
X134230846Y-104097382D01*
X134333153Y-104051939D01*
X134412241Y-103972713D01*
X134427063Y-103939187D01*
X134453737Y-103878853D01*
X134453738Y-103878851D01*
X134457506Y-103870327D01*
X134460500Y-103844646D01*
X134460500Y-102155354D01*
X134457382Y-102129154D01*
X134411939Y-102026847D01*
X134332713Y-101947759D01*
X134322242Y-101943130D01*
X134322241Y-101943129D01*
X134238853Y-101906263D01*
X134238851Y-101906262D01*
X134230327Y-101902494D01*
X134204646Y-101899500D01*
X132515354Y-101899500D01*
X132511700Y-101899935D01*
X132511698Y-101899935D01*
X132506734Y-101900526D01*
X132489154Y-101902618D01*
X132386847Y-101948061D01*
X132307759Y-102027287D01*
X132303130Y-102037758D01*
X132303129Y-102037759D01*
X132269149Y-102114621D01*
X132262494Y-102129673D01*
X132259500Y-102155354D01*
X132259500Y-103844646D01*
X111876474Y-103844646D01*
X111869778Y-103809547D01*
X111867843Y-103802008D01*
X111776738Y-103521614D01*
X111773875Y-103514384D01*
X111648343Y-103247617D01*
X111644598Y-103240806D01*
X111486622Y-102991874D01*
X111482046Y-102985576D01*
X111414604Y-102904053D01*
X111402283Y-102895730D01*
X111391716Y-102901838D01*
X109901160Y-104392393D01*
X109893668Y-104406113D01*
X109182560Y-104406113D01*
X109181447Y-104405000D01*
X107679368Y-102902922D01*
X107666318Y-102895796D01*
X107656374Y-102902870D01*
X107587954Y-102985576D01*
X107583378Y-102991874D01*
X107425402Y-103240806D01*
X107421657Y-103247617D01*
X107296125Y-103514384D01*
X107293262Y-103521614D01*
X107202157Y-103802008D01*
X107200222Y-103809547D01*
X107144977Y-104099151D01*
X107144002Y-104106871D01*
X107125490Y-104401106D01*
X107125490Y-104408894D01*
X107144002Y-104703129D01*
X107144977Y-104710849D01*
X107200222Y-105000453D01*
X107202157Y-105007992D01*
X107293262Y-105288386D01*
X107296125Y-105295616D01*
X107407546Y-105532395D01*
X107418280Y-105601435D01*
X107389983Y-105665319D01*
X107331640Y-105703762D01*
X107261775Y-105704561D01*
X107245510Y-105698735D01*
X107167361Y-105664430D01*
X107069577Y-105621505D01*
X107069569Y-105621502D01*
X107065712Y-105619809D01*
X106793154Y-105542169D01*
X106512581Y-105502238D01*
X106363908Y-105501459D01*
X106233405Y-105500776D01*
X106233404Y-105500776D01*
X106229185Y-105500754D01*
X106028140Y-105527222D01*
X105952401Y-105537193D01*
X105952399Y-105537193D01*
X105948209Y-105537745D01*
X105674853Y-105612527D01*
X105670970Y-105614183D01*
X105670965Y-105614185D01*
X105473746Y-105698306D01*
X105404358Y-105706502D01*
X105341555Y-105675883D01*
X105305275Y-105616170D01*
X105307038Y-105546323D01*
X105312898Y-105531451D01*
X105423875Y-105295616D01*
X105426738Y-105288386D01*
X105517843Y-105007992D01*
X105519778Y-105000453D01*
X105575023Y-104710849D01*
X105575998Y-104703129D01*
X105594510Y-104408894D01*
X105594510Y-104401106D01*
X105575998Y-104106871D01*
X105575023Y-104099151D01*
X105519778Y-103809547D01*
X105517843Y-103802008D01*
X105426738Y-103521614D01*
X105423875Y-103514384D01*
X105298343Y-103247617D01*
X105294598Y-103240806D01*
X105136622Y-102991874D01*
X105132046Y-102985576D01*
X105064604Y-102904053D01*
X105052283Y-102895730D01*
X105041716Y-102901838D01*
X103538553Y-104405000D01*
X103185000Y-104758553D01*
X101680593Y-106262961D01*
X101674086Y-106274877D01*
X93660500Y-106274877D01*
X93660500Y-104408894D01*
X100775490Y-104408894D01*
X100794002Y-104703129D01*
X100794977Y-104710849D01*
X100850222Y-105000453D01*
X100852157Y-105007992D01*
X100943262Y-105288386D01*
X100946125Y-105295616D01*
X101071657Y-105562383D01*
X101075402Y-105569194D01*
X101233378Y-105818126D01*
X101237954Y-105824424D01*
X101305396Y-105905947D01*
X101317717Y-105914270D01*
X101328284Y-105908162D01*
X102818840Y-104417607D01*
X102826332Y-104403887D01*
X102826203Y-104402081D01*
X102822021Y-104395574D01*
X101329368Y-102902922D01*
X101316318Y-102895796D01*
X101306374Y-102902870D01*
X101237954Y-102985576D01*
X101233378Y-102991874D01*
X101075402Y-103240806D01*
X101071657Y-103247617D01*
X100946125Y-103514384D01*
X100943262Y-103521614D01*
X100852157Y-103802008D01*
X100850222Y-103809547D01*
X100794977Y-104099151D01*
X100794002Y-104106871D01*
X100775490Y-104401106D01*
X100775490Y-104408894D01*
X93660500Y-104408894D01*
X93660500Y-102534704D01*
X101674120Y-102534704D01*
X101680913Y-102547359D01*
X103172393Y-104038840D01*
X103186113Y-104046332D01*
X103187919Y-104046203D01*
X103194426Y-104042021D01*
X104689407Y-102547039D01*
X104695914Y-102535123D01*
X104695596Y-102534704D01*
X108024120Y-102534704D01*
X108030913Y-102547359D01*
X109522393Y-104038840D01*
X109536113Y-104046332D01*
X109537919Y-104046203D01*
X109544426Y-104042021D01*
X111039407Y-102547039D01*
X111045914Y-102535123D01*
X111037225Y-102523687D01*
X110829361Y-102372665D01*
X110822803Y-102368503D01*
X110564441Y-102226467D01*
X110557393Y-102223150D01*
X110283278Y-102114621D01*
X110275883Y-102112218D01*
X110142633Y-102078005D01*
X121440808Y-102078005D01*
X121449956Y-102089829D01*
X121503079Y-102127026D01*
X121512425Y-102132423D01*
X121708769Y-102223979D01*
X121718902Y-102227668D01*
X121928163Y-102283739D01*
X121938794Y-102285613D01*
X122154605Y-102304494D01*
X122165395Y-102304494D01*
X122381206Y-102285613D01*
X122391837Y-102283739D01*
X122601098Y-102227668D01*
X122611231Y-102223979D01*
X122807575Y-102132423D01*
X122816921Y-102127026D01*
X122870867Y-102089252D01*
X122879110Y-102078941D01*
X122872154Y-102065708D01*
X122172607Y-101366160D01*
X122158887Y-101358668D01*
X122157082Y-101358797D01*
X122150573Y-101362980D01*
X121447135Y-102066419D01*
X121440808Y-102078005D01*
X110142633Y-102078005D01*
X109990326Y-102038899D01*
X109982668Y-102037438D01*
X109690176Y-102000488D01*
X109682415Y-102000000D01*
X109387585Y-102000000D01*
X109379824Y-102000488D01*
X109087332Y-102037438D01*
X109079674Y-102038899D01*
X108794117Y-102112218D01*
X108786722Y-102114621D01*
X108512607Y-102223150D01*
X108505559Y-102226467D01*
X108247197Y-102368503D01*
X108240639Y-102372665D01*
X108032412Y-102523951D01*
X108024120Y-102534704D01*
X104695596Y-102534704D01*
X104687225Y-102523687D01*
X104479361Y-102372665D01*
X104472803Y-102368503D01*
X104214441Y-102226467D01*
X104207393Y-102223150D01*
X103933278Y-102114621D01*
X103925883Y-102112218D01*
X103640326Y-102038899D01*
X103632668Y-102037438D01*
X103340176Y-102000488D01*
X103332415Y-102000000D01*
X103037585Y-102000000D01*
X103029824Y-102000488D01*
X102737332Y-102037438D01*
X102729674Y-102038899D01*
X102444117Y-102112218D01*
X102436722Y-102114621D01*
X102162607Y-102223150D01*
X102155559Y-102226467D01*
X101897197Y-102368503D01*
X101890639Y-102372665D01*
X101682412Y-102523951D01*
X101674120Y-102534704D01*
X93660500Y-102534704D01*
X93660500Y-101005395D01*
X120855506Y-101005395D01*
X120874387Y-101221206D01*
X120876261Y-101231837D01*
X120932332Y-101441098D01*
X120936021Y-101451231D01*
X121027577Y-101647575D01*
X121032974Y-101656921D01*
X121070748Y-101710867D01*
X121081059Y-101719110D01*
X121094292Y-101712154D01*
X121793840Y-101012607D01*
X121800116Y-101001113D01*
X122518668Y-101001113D01*
X122518797Y-101002918D01*
X122522980Y-101009427D01*
X123226419Y-101712865D01*
X123238005Y-101719192D01*
X123249829Y-101710044D01*
X123287026Y-101656921D01*
X123292423Y-101647575D01*
X123383979Y-101451231D01*
X123387667Y-101441100D01*
X123395850Y-101410561D01*
X123432216Y-101350901D01*
X123495063Y-101320373D01*
X123564439Y-101328668D01*
X123618316Y-101373154D01*
X123628232Y-101390737D01*
X123702856Y-101552607D01*
X123819588Y-101717780D01*
X123964466Y-101858913D01*
X124132637Y-101971282D01*
X124318470Y-102051122D01*
X124414502Y-102072852D01*
X124510193Y-102094505D01*
X124510195Y-102094505D01*
X124515740Y-102095760D01*
X124633135Y-102100372D01*
X124712161Y-102103477D01*
X124712163Y-102103477D01*
X124717842Y-102103700D01*
X124723462Y-102102885D01*
X124723465Y-102102885D01*
X124912387Y-102075493D01*
X124912389Y-102075493D01*
X124918007Y-102074678D01*
X124923384Y-102072853D01*
X124923387Y-102072852D01*
X125028092Y-102037309D01*
X125109531Y-102009664D01*
X125247419Y-101932444D01*
X125281048Y-101913611D01*
X125281050Y-101913610D01*
X125286001Y-101910837D01*
X125296033Y-101902494D01*
X125437138Y-101785137D01*
X125441505Y-101781505D01*
X125491208Y-101721744D01*
X125567206Y-101630367D01*
X125567207Y-101630366D01*
X125570837Y-101626001D01*
X125669664Y-101449531D01*
X125710692Y-101328668D01*
X125732852Y-101263387D01*
X125732853Y-101263384D01*
X125734678Y-101258007D01*
X125735493Y-101252387D01*
X125763176Y-101061458D01*
X125763176Y-101061453D01*
X125763700Y-101057842D01*
X125765215Y-101000000D01*
X125746708Y-100798591D01*
X125702320Y-100641203D01*
X125693352Y-100609403D01*
X125693351Y-100609400D01*
X125691807Y-100603926D01*
X125602351Y-100422527D01*
X125481335Y-100260467D01*
X125394377Y-100180084D01*
X125370492Y-100158005D01*
X169446110Y-100158005D01*
X169455258Y-100169829D01*
X169508381Y-100207026D01*
X169517727Y-100212423D01*
X169714071Y-100303979D01*
X169724204Y-100307668D01*
X169933465Y-100363739D01*
X169944096Y-100365613D01*
X170159907Y-100384494D01*
X170170697Y-100384494D01*
X170386508Y-100365613D01*
X170397139Y-100363739D01*
X170606400Y-100307668D01*
X170616533Y-100303979D01*
X170812877Y-100212423D01*
X170822223Y-100207026D01*
X170876169Y-100169252D01*
X170884412Y-100158941D01*
X170877456Y-100145708D01*
X170177909Y-99446160D01*
X170164189Y-99438668D01*
X170162384Y-99438797D01*
X170155875Y-99442980D01*
X169452437Y-100146419D01*
X169446110Y-100158005D01*
X125370492Y-100158005D01*
X125336988Y-100127034D01*
X125336986Y-100127033D01*
X125332812Y-100123174D01*
X125234653Y-100061240D01*
X125166566Y-100018280D01*
X125166564Y-100018279D01*
X125161757Y-100015246D01*
X124973898Y-99940298D01*
X124968317Y-99939188D01*
X124968314Y-99939187D01*
X124881883Y-99921995D01*
X124775526Y-99900839D01*
X124769839Y-99900765D01*
X124769834Y-99900764D01*
X124578975Y-99898266D01*
X124578970Y-99898266D01*
X124573286Y-99898192D01*
X124567682Y-99899155D01*
X124567681Y-99899155D01*
X124379546Y-99931482D01*
X124379543Y-99931483D01*
X124373949Y-99932444D01*
X124352660Y-99940298D01*
X124189521Y-100000483D01*
X124189517Y-100000485D01*
X124184193Y-100002449D01*
X124179310Y-100005354D01*
X124179308Y-100005355D01*
X124098967Y-100053153D01*
X124010371Y-100105862D01*
X123858305Y-100239220D01*
X123733089Y-100398057D01*
X123638914Y-100577053D01*
X123637229Y-100582480D01*
X123637226Y-100582487D01*
X123633848Y-100593367D01*
X123595170Y-100651555D01*
X123531173Y-100679594D01*
X123462176Y-100668583D01*
X123410086Y-100622017D01*
X123395650Y-100588692D01*
X123387668Y-100558902D01*
X123383979Y-100548769D01*
X123292423Y-100352425D01*
X123287026Y-100343079D01*
X123249252Y-100289133D01*
X123238941Y-100280890D01*
X123225708Y-100287846D01*
X122526160Y-100987393D01*
X122518668Y-101001113D01*
X121800116Y-101001113D01*
X121801332Y-100998887D01*
X121801203Y-100997082D01*
X121797020Y-100990573D01*
X121093581Y-100287135D01*
X121081995Y-100280808D01*
X121070171Y-100289956D01*
X121032974Y-100343079D01*
X121027577Y-100352425D01*
X120936021Y-100548769D01*
X120932332Y-100558902D01*
X120876261Y-100768163D01*
X120874387Y-100778794D01*
X120855506Y-100994605D01*
X120855506Y-101005395D01*
X93660500Y-101005395D01*
X93660500Y-99921059D01*
X121440890Y-99921059D01*
X121447846Y-99934292D01*
X122147393Y-100633840D01*
X122161113Y-100641332D01*
X122162918Y-100641203D01*
X122169427Y-100637020D01*
X122872865Y-99933581D01*
X122879192Y-99921995D01*
X122870044Y-99910171D01*
X122816921Y-99872974D01*
X122807575Y-99867577D01*
X122611231Y-99776021D01*
X122601098Y-99772332D01*
X122391837Y-99716261D01*
X122381206Y-99714387D01*
X122165395Y-99695506D01*
X122154605Y-99695506D01*
X121938794Y-99714387D01*
X121928163Y-99716261D01*
X121718902Y-99772332D01*
X121708769Y-99776021D01*
X121512425Y-99867577D01*
X121503079Y-99872974D01*
X121449133Y-99910748D01*
X121440890Y-99921059D01*
X93660500Y-99921059D01*
X93660500Y-99085395D01*
X168860808Y-99085395D01*
X168879689Y-99301206D01*
X168881563Y-99311837D01*
X168937634Y-99521098D01*
X168941323Y-99531231D01*
X169032879Y-99727575D01*
X169038276Y-99736921D01*
X169076050Y-99790867D01*
X169086361Y-99799110D01*
X169099594Y-99792154D01*
X169799142Y-99092607D01*
X169805418Y-99081113D01*
X170523970Y-99081113D01*
X170524099Y-99082918D01*
X170528282Y-99089427D01*
X171231721Y-99792865D01*
X171243307Y-99799192D01*
X171255131Y-99790044D01*
X171292328Y-99736921D01*
X171297725Y-99727575D01*
X171328420Y-99661749D01*
X171374592Y-99609310D01*
X171441786Y-99590158D01*
X171508667Y-99610374D01*
X171554002Y-99663539D01*
X171564802Y-99714154D01*
X171564802Y-99924646D01*
X171567920Y-99950846D01*
X171613363Y-100053153D01*
X171692589Y-100132241D01*
X171703060Y-100136870D01*
X171703061Y-100136871D01*
X171786449Y-100173737D01*
X171786451Y-100173738D01*
X171794975Y-100177506D01*
X171820656Y-100180500D01*
X173509948Y-100180500D01*
X173513602Y-100180065D01*
X173513604Y-100180065D01*
X173518568Y-100179474D01*
X173536148Y-100177382D01*
X173638455Y-100131939D01*
X173717543Y-100052713D01*
X173732766Y-100018280D01*
X173759039Y-99958853D01*
X173759040Y-99958851D01*
X173762808Y-99950327D01*
X173765802Y-99924646D01*
X173765802Y-99658005D01*
X184195808Y-99658005D01*
X184204956Y-99669829D01*
X184258079Y-99707026D01*
X184267425Y-99712423D01*
X184463769Y-99803979D01*
X184473902Y-99807668D01*
X184683163Y-99863739D01*
X184693794Y-99865613D01*
X184909605Y-99884494D01*
X184920395Y-99884494D01*
X185136206Y-99865613D01*
X185146837Y-99863739D01*
X185356098Y-99807668D01*
X185366231Y-99803979D01*
X185562575Y-99712423D01*
X185571921Y-99707026D01*
X185625867Y-99669252D01*
X185634110Y-99658941D01*
X185627154Y-99645708D01*
X184927607Y-98946160D01*
X184913887Y-98938668D01*
X184912082Y-98938797D01*
X184905573Y-98942980D01*
X184202135Y-99646419D01*
X184195808Y-99658005D01*
X173765802Y-99658005D01*
X173765802Y-98585395D01*
X183610506Y-98585395D01*
X183629387Y-98801206D01*
X183631261Y-98811837D01*
X183687332Y-99021098D01*
X183691021Y-99031231D01*
X183782577Y-99227575D01*
X183787974Y-99236921D01*
X183825748Y-99290867D01*
X183836059Y-99299110D01*
X183849292Y-99292154D01*
X184548840Y-98592607D01*
X184555116Y-98581113D01*
X185273668Y-98581113D01*
X185273797Y-98582918D01*
X185277980Y-98589427D01*
X185981419Y-99292865D01*
X185993005Y-99299192D01*
X186004829Y-99290044D01*
X186042026Y-99236921D01*
X186047423Y-99227575D01*
X186138979Y-99031231D01*
X186142667Y-99021100D01*
X186150850Y-98990561D01*
X186187216Y-98930901D01*
X186250063Y-98900373D01*
X186319439Y-98908668D01*
X186373316Y-98953154D01*
X186383232Y-98970737D01*
X186457856Y-99132607D01*
X186574588Y-99297780D01*
X186719466Y-99438913D01*
X186887637Y-99551282D01*
X187073470Y-99631122D01*
X187169502Y-99652852D01*
X187265193Y-99674505D01*
X187265195Y-99674505D01*
X187270740Y-99675760D01*
X187388135Y-99680372D01*
X187467161Y-99683477D01*
X187467163Y-99683477D01*
X187472842Y-99683700D01*
X187478462Y-99682885D01*
X187478465Y-99682885D01*
X187667387Y-99655493D01*
X187667389Y-99655493D01*
X187673007Y-99654678D01*
X187678384Y-99652853D01*
X187678387Y-99652852D01*
X187763090Y-99624099D01*
X187864531Y-99589664D01*
X188041001Y-99490837D01*
X188098543Y-99442980D01*
X188192138Y-99365137D01*
X188196505Y-99361505D01*
X188246655Y-99301206D01*
X188322206Y-99210367D01*
X188322207Y-99210366D01*
X188325837Y-99206001D01*
X188424664Y-99029531D01*
X188465692Y-98908668D01*
X188487852Y-98843387D01*
X188487853Y-98843384D01*
X188489678Y-98838007D01*
X188490493Y-98832387D01*
X188518176Y-98641458D01*
X188518176Y-98641453D01*
X188518700Y-98637842D01*
X188520215Y-98580000D01*
X188501708Y-98378591D01*
X188472190Y-98273927D01*
X188448352Y-98189403D01*
X188448351Y-98189400D01*
X188446807Y-98183926D01*
X188357351Y-98002527D01*
X188236335Y-97840467D01*
X188103613Y-97717780D01*
X188091988Y-97707034D01*
X188091986Y-97707033D01*
X188087812Y-97703174D01*
X187995338Y-97644827D01*
X187921566Y-97598280D01*
X187921564Y-97598279D01*
X187916757Y-97595246D01*
X187728898Y-97520298D01*
X187723317Y-97519188D01*
X187723314Y-97519187D01*
X187636883Y-97501995D01*
X187530526Y-97480839D01*
X187524839Y-97480765D01*
X187524834Y-97480764D01*
X187333975Y-97478266D01*
X187333970Y-97478266D01*
X187328286Y-97478192D01*
X187322682Y-97479155D01*
X187322681Y-97479155D01*
X187134546Y-97511482D01*
X187134543Y-97511483D01*
X187128949Y-97512444D01*
X187107660Y-97520298D01*
X186944521Y-97580483D01*
X186944517Y-97580485D01*
X186939193Y-97582449D01*
X186934310Y-97585354D01*
X186934308Y-97585355D01*
X186814030Y-97656913D01*
X186765371Y-97685862D01*
X186613305Y-97819220D01*
X186488089Y-97978057D01*
X186485442Y-97983088D01*
X186475215Y-98002527D01*
X186393914Y-98157053D01*
X186392229Y-98162480D01*
X186392226Y-98162487D01*
X186388848Y-98173367D01*
X186350170Y-98231555D01*
X186286173Y-98259594D01*
X186217176Y-98248583D01*
X186165086Y-98202017D01*
X186150650Y-98168692D01*
X186142668Y-98138902D01*
X186138979Y-98128769D01*
X186047423Y-97932425D01*
X186042026Y-97923079D01*
X186004252Y-97869133D01*
X185993941Y-97860890D01*
X185980708Y-97867846D01*
X185281160Y-98567393D01*
X185273668Y-98581113D01*
X184555116Y-98581113D01*
X184556332Y-98578887D01*
X184556203Y-98577082D01*
X184552020Y-98570573D01*
X183848581Y-97867135D01*
X183836995Y-97860808D01*
X183825171Y-97869956D01*
X183787974Y-97923079D01*
X183782577Y-97932425D01*
X183691021Y-98128769D01*
X183687332Y-98138902D01*
X183631261Y-98348163D01*
X183629387Y-98358794D01*
X183610506Y-98574605D01*
X183610506Y-98585395D01*
X173765802Y-98585395D01*
X173765802Y-98235354D01*
X173762684Y-98209154D01*
X173717241Y-98106847D01*
X173638015Y-98027759D01*
X173627544Y-98023130D01*
X173627543Y-98023129D01*
X173544155Y-97986263D01*
X173544153Y-97986262D01*
X173535629Y-97982494D01*
X173509948Y-97979500D01*
X171820656Y-97979500D01*
X171817002Y-97979935D01*
X171817000Y-97979935D01*
X171812036Y-97980526D01*
X171794456Y-97982618D01*
X171692149Y-98028061D01*
X171613061Y-98107287D01*
X171608432Y-98117758D01*
X171608431Y-98117759D01*
X171579179Y-98183926D01*
X171567796Y-98209673D01*
X171564802Y-98235354D01*
X171564802Y-98445846D01*
X171545117Y-98512885D01*
X171492313Y-98558640D01*
X171423155Y-98568584D01*
X171359599Y-98539559D01*
X171328420Y-98498251D01*
X171297725Y-98432425D01*
X171292328Y-98423079D01*
X171254554Y-98369133D01*
X171244243Y-98360890D01*
X171231010Y-98367846D01*
X170531462Y-99067393D01*
X170523970Y-99081113D01*
X169805418Y-99081113D01*
X169806634Y-99078887D01*
X169806505Y-99077082D01*
X169802322Y-99070573D01*
X169098883Y-98367135D01*
X169087297Y-98360808D01*
X169075473Y-98369956D01*
X169038276Y-98423079D01*
X169032879Y-98432425D01*
X168941323Y-98628769D01*
X168937634Y-98638902D01*
X168881563Y-98848163D01*
X168879689Y-98858794D01*
X168860808Y-99074605D01*
X168860808Y-99085395D01*
X93660500Y-99085395D01*
X93660500Y-94342326D01*
X95907667Y-94342326D01*
X95960168Y-94538264D01*
X95963857Y-94548397D01*
X96059110Y-94752667D01*
X96064508Y-94762017D01*
X96193784Y-94946643D01*
X96200719Y-94954907D01*
X96360093Y-95114281D01*
X96368357Y-95121216D01*
X96552983Y-95250492D01*
X96562333Y-95255890D01*
X96716747Y-95327895D01*
X96769186Y-95374067D01*
X96788338Y-95441261D01*
X96768122Y-95508142D01*
X96719186Y-95551489D01*
X96636393Y-95592318D01*
X96636389Y-95592320D01*
X96631290Y-95594835D01*
X96461867Y-95721349D01*
X96458012Y-95725519D01*
X96458009Y-95725522D01*
X96414740Y-95772331D01*
X96318337Y-95876619D01*
X96315303Y-95881428D01*
X96315302Y-95881429D01*
X96237859Y-96004169D01*
X96205505Y-96055446D01*
X96127152Y-96251840D01*
X96126042Y-96257421D01*
X96126041Y-96257424D01*
X96121361Y-96280953D01*
X96085901Y-96459225D01*
X96085827Y-96464912D01*
X96085826Y-96464917D01*
X96083207Y-96664966D01*
X96083133Y-96670654D01*
X96084096Y-96676258D01*
X96084096Y-96676259D01*
X96096281Y-96747169D01*
X96118941Y-96879047D01*
X96192127Y-97077425D01*
X96195029Y-97082303D01*
X96195030Y-97082305D01*
X96205125Y-97099272D01*
X96300238Y-97259144D01*
X96439655Y-97418119D01*
X96444119Y-97421638D01*
X96444122Y-97421641D01*
X96485793Y-97454491D01*
X96605708Y-97549024D01*
X96792836Y-97647477D01*
X96798267Y-97649163D01*
X96798271Y-97649165D01*
X96972210Y-97703174D01*
X96994773Y-97710180D01*
X97000418Y-97710848D01*
X97000422Y-97710849D01*
X97092476Y-97721744D01*
X97166455Y-97730500D01*
X97538641Y-97730500D01*
X97695560Y-97716081D01*
X97899069Y-97658686D01*
X98088710Y-97565165D01*
X98258133Y-97438651D01*
X98261988Y-97434481D01*
X98261991Y-97434478D01*
X98337925Y-97352332D01*
X98401663Y-97283381D01*
X98414948Y-97262326D01*
X115804431Y-97262326D01*
X115852331Y-97441092D01*
X115856023Y-97451235D01*
X115947580Y-97647580D01*
X115952968Y-97656913D01*
X116077233Y-97834381D01*
X116084169Y-97842647D01*
X116237353Y-97995831D01*
X116245619Y-98002767D01*
X116423087Y-98127032D01*
X116432420Y-98132420D01*
X116628765Y-98223977D01*
X116638908Y-98227669D01*
X116812779Y-98274258D01*
X116826653Y-98273927D01*
X116830000Y-98266111D01*
X116830000Y-98261042D01*
X117330000Y-98261042D01*
X117333910Y-98274359D01*
X117342326Y-98275569D01*
X117521092Y-98227669D01*
X117531235Y-98223977D01*
X117727580Y-98132420D01*
X117736913Y-98127032D01*
X117914381Y-98002767D01*
X117922647Y-97995831D01*
X118075831Y-97842647D01*
X118082767Y-97834381D01*
X118207032Y-97656913D01*
X118212420Y-97647580D01*
X118303977Y-97451235D01*
X118307669Y-97441092D01*
X118354258Y-97267221D01*
X118353927Y-97253347D01*
X118346111Y-97250000D01*
X117347830Y-97250000D01*
X117332831Y-97254404D01*
X117331644Y-97255774D01*
X117330000Y-97263332D01*
X117330000Y-98261042D01*
X116830000Y-98261042D01*
X116830000Y-97267830D01*
X116825596Y-97252831D01*
X116824226Y-97251644D01*
X116816668Y-97250000D01*
X115818958Y-97250000D01*
X115805641Y-97253910D01*
X115804431Y-97262326D01*
X98414948Y-97262326D01*
X98511461Y-97109363D01*
X98511462Y-97109361D01*
X98514495Y-97104554D01*
X98567750Y-96971069D01*
X126135164Y-96971069D01*
X126135535Y-96976731D01*
X126135535Y-96976735D01*
X126140851Y-97057842D01*
X126148392Y-97172894D01*
X126198178Y-97368928D01*
X126200554Y-97374082D01*
X126264865Y-97513581D01*
X126282856Y-97552607D01*
X126399588Y-97717780D01*
X126544466Y-97858913D01*
X126712637Y-97971282D01*
X126898470Y-98051122D01*
X126994502Y-98072852D01*
X127090193Y-98094505D01*
X127090195Y-98094505D01*
X127095740Y-98095760D01*
X127213135Y-98100372D01*
X127292161Y-98103477D01*
X127292163Y-98103477D01*
X127297842Y-98103700D01*
X127303462Y-98102885D01*
X127303465Y-98102885D01*
X127492387Y-98075493D01*
X127492389Y-98075493D01*
X127498007Y-98074678D01*
X127503384Y-98072853D01*
X127503387Y-98072852D01*
X127636225Y-98027759D01*
X127689531Y-98009664D01*
X127800396Y-97947577D01*
X127861048Y-97913611D01*
X127861050Y-97913610D01*
X127866001Y-97910837D01*
X127926056Y-97860890D01*
X128017138Y-97785137D01*
X128021505Y-97781505D01*
X128132976Y-97647477D01*
X128147206Y-97630367D01*
X128147207Y-97630366D01*
X128150837Y-97626001D01*
X128166362Y-97598280D01*
X128220807Y-97501059D01*
X128249664Y-97449531D01*
X128284099Y-97348090D01*
X128312852Y-97263387D01*
X128312853Y-97263384D01*
X128314678Y-97258007D01*
X128343700Y-97057842D01*
X128345215Y-97000000D01*
X128342557Y-96971069D01*
X129975164Y-96971069D01*
X129975535Y-96976731D01*
X129975535Y-96976735D01*
X129980851Y-97057842D01*
X129988392Y-97172894D01*
X130038178Y-97368928D01*
X130040554Y-97374082D01*
X130104865Y-97513581D01*
X130122856Y-97552607D01*
X130239588Y-97717780D01*
X130384466Y-97858913D01*
X130552637Y-97971282D01*
X130738470Y-98051122D01*
X130834502Y-98072852D01*
X130930193Y-98094505D01*
X130930195Y-98094505D01*
X130935740Y-98095760D01*
X131053135Y-98100372D01*
X131132161Y-98103477D01*
X131132163Y-98103477D01*
X131137842Y-98103700D01*
X131143462Y-98102885D01*
X131143465Y-98102885D01*
X131332387Y-98075493D01*
X131332389Y-98075493D01*
X131338007Y-98074678D01*
X131343384Y-98072853D01*
X131343387Y-98072852D01*
X131476225Y-98027759D01*
X131529531Y-98009664D01*
X131640396Y-97947577D01*
X131701048Y-97913611D01*
X131701050Y-97913610D01*
X131706001Y-97910837D01*
X131766056Y-97860890D01*
X131857138Y-97785137D01*
X131861505Y-97781505D01*
X131972976Y-97647477D01*
X131987206Y-97630367D01*
X131987207Y-97630366D01*
X131990837Y-97626001D01*
X132006362Y-97598280D01*
X132060807Y-97501059D01*
X132089664Y-97449531D01*
X132124099Y-97348090D01*
X132152852Y-97263387D01*
X132152853Y-97263384D01*
X132154678Y-97258007D01*
X132183700Y-97057842D01*
X132185215Y-97000000D01*
X132182557Y-96971069D01*
X140135164Y-96971069D01*
X140135535Y-96976731D01*
X140135535Y-96976735D01*
X140140851Y-97057842D01*
X140148392Y-97172894D01*
X140198178Y-97368928D01*
X140200554Y-97374082D01*
X140264865Y-97513581D01*
X140282856Y-97552607D01*
X140399588Y-97717780D01*
X140544466Y-97858913D01*
X140712637Y-97971282D01*
X140898470Y-98051122D01*
X140994502Y-98072852D01*
X141090193Y-98094505D01*
X141090195Y-98094505D01*
X141095740Y-98095760D01*
X141213135Y-98100372D01*
X141292161Y-98103477D01*
X141292163Y-98103477D01*
X141297842Y-98103700D01*
X141303462Y-98102885D01*
X141303465Y-98102885D01*
X141492387Y-98075493D01*
X141492389Y-98075493D01*
X141498007Y-98074678D01*
X141503384Y-98072853D01*
X141503387Y-98072852D01*
X141636225Y-98027759D01*
X141689531Y-98009664D01*
X141800396Y-97947577D01*
X141861048Y-97913611D01*
X141861050Y-97913610D01*
X141866001Y-97910837D01*
X141926056Y-97860890D01*
X142017138Y-97785137D01*
X142021505Y-97781505D01*
X142132976Y-97647477D01*
X142147206Y-97630367D01*
X142147207Y-97630366D01*
X142150837Y-97626001D01*
X142166362Y-97598280D01*
X142220807Y-97501059D01*
X142249664Y-97449531D01*
X142284099Y-97348090D01*
X142312852Y-97263387D01*
X142312853Y-97263384D01*
X142314678Y-97258007D01*
X142343700Y-97057842D01*
X142345215Y-97000000D01*
X142342557Y-96971069D01*
X145315164Y-96971069D01*
X145315535Y-96976731D01*
X145315535Y-96976735D01*
X145320851Y-97057842D01*
X145328392Y-97172894D01*
X145378178Y-97368928D01*
X145380554Y-97374082D01*
X145444865Y-97513581D01*
X145462856Y-97552607D01*
X145579588Y-97717780D01*
X145724466Y-97858913D01*
X145892637Y-97971282D01*
X146078470Y-98051122D01*
X146174502Y-98072852D01*
X146270193Y-98094505D01*
X146270195Y-98094505D01*
X146275740Y-98095760D01*
X146393135Y-98100372D01*
X146472161Y-98103477D01*
X146472163Y-98103477D01*
X146477842Y-98103700D01*
X146483462Y-98102885D01*
X146483465Y-98102885D01*
X146672387Y-98075493D01*
X146672389Y-98075493D01*
X146678007Y-98074678D01*
X146683384Y-98072853D01*
X146683387Y-98072852D01*
X146816225Y-98027759D01*
X146869531Y-98009664D01*
X146980396Y-97947577D01*
X147041048Y-97913611D01*
X147041050Y-97913610D01*
X147046001Y-97910837D01*
X147106056Y-97860890D01*
X147197138Y-97785137D01*
X147201505Y-97781505D01*
X147312976Y-97647477D01*
X147327206Y-97630367D01*
X147327207Y-97630366D01*
X147330837Y-97626001D01*
X147346362Y-97598280D01*
X147400807Y-97501059D01*
X147429664Y-97449531D01*
X147464099Y-97348090D01*
X147492852Y-97263387D01*
X147492853Y-97263384D01*
X147494678Y-97258007D01*
X147523700Y-97057842D01*
X147525215Y-97000000D01*
X147522557Y-96971069D01*
X155475164Y-96971069D01*
X155475535Y-96976731D01*
X155475535Y-96976735D01*
X155480851Y-97057842D01*
X155488392Y-97172894D01*
X155538178Y-97368928D01*
X155540554Y-97374082D01*
X155604865Y-97513581D01*
X155622856Y-97552607D01*
X155739588Y-97717780D01*
X155884466Y-97858913D01*
X156052637Y-97971282D01*
X156238470Y-98051122D01*
X156334502Y-98072852D01*
X156430193Y-98094505D01*
X156430195Y-98094505D01*
X156435740Y-98095760D01*
X156553135Y-98100372D01*
X156632161Y-98103477D01*
X156632163Y-98103477D01*
X156637842Y-98103700D01*
X156643462Y-98102885D01*
X156643465Y-98102885D01*
X156832387Y-98075493D01*
X156832389Y-98075493D01*
X156838007Y-98074678D01*
X156843384Y-98072853D01*
X156843387Y-98072852D01*
X156976225Y-98027759D01*
X157029531Y-98009664D01*
X157044896Y-98001059D01*
X169446192Y-98001059D01*
X169453148Y-98014292D01*
X170152695Y-98713840D01*
X170166415Y-98721332D01*
X170168220Y-98721203D01*
X170174729Y-98717020D01*
X170878167Y-98013581D01*
X170884494Y-98001995D01*
X170875346Y-97990171D01*
X170822223Y-97952974D01*
X170812877Y-97947577D01*
X170616533Y-97856021D01*
X170606400Y-97852332D01*
X170397139Y-97796261D01*
X170386508Y-97794387D01*
X170170697Y-97775506D01*
X170159907Y-97775506D01*
X169944096Y-97794387D01*
X169933465Y-97796261D01*
X169724204Y-97852332D01*
X169714071Y-97856021D01*
X169517727Y-97947577D01*
X169508381Y-97952974D01*
X169454435Y-97990748D01*
X169446192Y-98001059D01*
X157044896Y-98001059D01*
X157140396Y-97947577D01*
X157201048Y-97913611D01*
X157201050Y-97913610D01*
X157206001Y-97910837D01*
X157266056Y-97860890D01*
X157357138Y-97785137D01*
X157361505Y-97781505D01*
X157472976Y-97647477D01*
X157487206Y-97630367D01*
X157487207Y-97630366D01*
X157490837Y-97626001D01*
X157506362Y-97598280D01*
X157560807Y-97501059D01*
X184195890Y-97501059D01*
X184202846Y-97514292D01*
X184902393Y-98213840D01*
X184916113Y-98221332D01*
X184917918Y-98221203D01*
X184924427Y-98217020D01*
X185627865Y-97513581D01*
X185634192Y-97501995D01*
X185625044Y-97490171D01*
X185571921Y-97452974D01*
X185562575Y-97447577D01*
X185366231Y-97356021D01*
X185356098Y-97352332D01*
X185146837Y-97296261D01*
X185136206Y-97294387D01*
X184920395Y-97275506D01*
X184909605Y-97275506D01*
X184693794Y-97294387D01*
X184683163Y-97296261D01*
X184473902Y-97352332D01*
X184463769Y-97356021D01*
X184267425Y-97447577D01*
X184258079Y-97452974D01*
X184204133Y-97490748D01*
X184195890Y-97501059D01*
X157560807Y-97501059D01*
X157589664Y-97449531D01*
X157624099Y-97348090D01*
X157652852Y-97263387D01*
X157652853Y-97263384D01*
X157654678Y-97258007D01*
X157683700Y-97057842D01*
X157685215Y-97000000D01*
X157666708Y-96798591D01*
X157611807Y-96603926D01*
X157522351Y-96422527D01*
X157401335Y-96260467D01*
X157252812Y-96123174D01*
X157220762Y-96102952D01*
X157086566Y-96018280D01*
X157086564Y-96018279D01*
X157081757Y-96015246D01*
X156893898Y-95940298D01*
X156888317Y-95939188D01*
X156888314Y-95939187D01*
X156820373Y-95925673D01*
X156695526Y-95900839D01*
X156689839Y-95900765D01*
X156689834Y-95900764D01*
X156498975Y-95898266D01*
X156498970Y-95898266D01*
X156493286Y-95898192D01*
X156487682Y-95899155D01*
X156487681Y-95899155D01*
X156299546Y-95931482D01*
X156299543Y-95931483D01*
X156293949Y-95932444D01*
X156272660Y-95940298D01*
X156109521Y-96000483D01*
X156109517Y-96000485D01*
X156104193Y-96002449D01*
X156099310Y-96005354D01*
X156099308Y-96005355D01*
X155969513Y-96082575D01*
X155930371Y-96105862D01*
X155778305Y-96239220D01*
X155653089Y-96398057D01*
X155558914Y-96577053D01*
X155557229Y-96582479D01*
X155557228Y-96582482D01*
X155550570Y-96603926D01*
X155498937Y-96770213D01*
X155475164Y-96971069D01*
X147522557Y-96971069D01*
X147506708Y-96798591D01*
X147451807Y-96603926D01*
X147362351Y-96422527D01*
X147241335Y-96260467D01*
X147092812Y-96123174D01*
X147060762Y-96102952D01*
X146926566Y-96018280D01*
X146926564Y-96018279D01*
X146921757Y-96015246D01*
X146733898Y-95940298D01*
X146728317Y-95939188D01*
X146728314Y-95939187D01*
X146660373Y-95925673D01*
X146535526Y-95900839D01*
X146529839Y-95900765D01*
X146529834Y-95900764D01*
X146338975Y-95898266D01*
X146338970Y-95898266D01*
X146333286Y-95898192D01*
X146327682Y-95899155D01*
X146327681Y-95899155D01*
X146139546Y-95931482D01*
X146139543Y-95931483D01*
X146133949Y-95932444D01*
X146112660Y-95940298D01*
X145949521Y-96000483D01*
X145949517Y-96000485D01*
X145944193Y-96002449D01*
X145939310Y-96005354D01*
X145939308Y-96005355D01*
X145809513Y-96082575D01*
X145770371Y-96105862D01*
X145618305Y-96239220D01*
X145493089Y-96398057D01*
X145398914Y-96577053D01*
X145397229Y-96582479D01*
X145397228Y-96582482D01*
X145390570Y-96603926D01*
X145338937Y-96770213D01*
X145315164Y-96971069D01*
X142342557Y-96971069D01*
X142326708Y-96798591D01*
X142271807Y-96603926D01*
X142182351Y-96422527D01*
X142061335Y-96260467D01*
X141912812Y-96123174D01*
X141880762Y-96102952D01*
X141746566Y-96018280D01*
X141746564Y-96018279D01*
X141741757Y-96015246D01*
X141553898Y-95940298D01*
X141548317Y-95939188D01*
X141548314Y-95939187D01*
X141480373Y-95925673D01*
X141355526Y-95900839D01*
X141349839Y-95900765D01*
X141349834Y-95900764D01*
X141158975Y-95898266D01*
X141158970Y-95898266D01*
X141153286Y-95898192D01*
X141147682Y-95899155D01*
X141147681Y-95899155D01*
X140959546Y-95931482D01*
X140959543Y-95931483D01*
X140953949Y-95932444D01*
X140932660Y-95940298D01*
X140769521Y-96000483D01*
X140769517Y-96000485D01*
X140764193Y-96002449D01*
X140759310Y-96005354D01*
X140759308Y-96005355D01*
X140629513Y-96082575D01*
X140590371Y-96105862D01*
X140438305Y-96239220D01*
X140313089Y-96398057D01*
X140218914Y-96577053D01*
X140217229Y-96582479D01*
X140217228Y-96582482D01*
X140210570Y-96603926D01*
X140158937Y-96770213D01*
X140135164Y-96971069D01*
X132182557Y-96971069D01*
X132166708Y-96798591D01*
X132111807Y-96603926D01*
X132022351Y-96422527D01*
X131901335Y-96260467D01*
X131752812Y-96123174D01*
X131720762Y-96102952D01*
X131586566Y-96018280D01*
X131586564Y-96018279D01*
X131581757Y-96015246D01*
X131393898Y-95940298D01*
X131388317Y-95939188D01*
X131388314Y-95939187D01*
X131320373Y-95925673D01*
X131195526Y-95900839D01*
X131189839Y-95900765D01*
X131189834Y-95900764D01*
X130998975Y-95898266D01*
X130998970Y-95898266D01*
X130993286Y-95898192D01*
X130987682Y-95899155D01*
X130987681Y-95899155D01*
X130799546Y-95931482D01*
X130799543Y-95931483D01*
X130793949Y-95932444D01*
X130772660Y-95940298D01*
X130609521Y-96000483D01*
X130609517Y-96000485D01*
X130604193Y-96002449D01*
X130599310Y-96005354D01*
X130599308Y-96005355D01*
X130469513Y-96082575D01*
X130430371Y-96105862D01*
X130278305Y-96239220D01*
X130153089Y-96398057D01*
X130058914Y-96577053D01*
X130057229Y-96582479D01*
X130057228Y-96582482D01*
X130050570Y-96603926D01*
X129998937Y-96770213D01*
X129975164Y-96971069D01*
X128342557Y-96971069D01*
X128326708Y-96798591D01*
X128271807Y-96603926D01*
X128182351Y-96422527D01*
X128061335Y-96260467D01*
X127912812Y-96123174D01*
X127880762Y-96102952D01*
X127746566Y-96018280D01*
X127746564Y-96018279D01*
X127741757Y-96015246D01*
X127553898Y-95940298D01*
X127548317Y-95939188D01*
X127548314Y-95939187D01*
X127480373Y-95925673D01*
X127355526Y-95900839D01*
X127349839Y-95900765D01*
X127349834Y-95900764D01*
X127158975Y-95898266D01*
X127158970Y-95898266D01*
X127153286Y-95898192D01*
X127147682Y-95899155D01*
X127147681Y-95899155D01*
X126959546Y-95931482D01*
X126959543Y-95931483D01*
X126953949Y-95932444D01*
X126932660Y-95940298D01*
X126769521Y-96000483D01*
X126769517Y-96000485D01*
X126764193Y-96002449D01*
X126759310Y-96005354D01*
X126759308Y-96005355D01*
X126629513Y-96082575D01*
X126590371Y-96105862D01*
X126438305Y-96239220D01*
X126313089Y-96398057D01*
X126218914Y-96577053D01*
X126217229Y-96582479D01*
X126217228Y-96582482D01*
X126210570Y-96603926D01*
X126158937Y-96770213D01*
X126135164Y-96971069D01*
X98567750Y-96971069D01*
X98592848Y-96908160D01*
X98597580Y-96884373D01*
X98621366Y-96764790D01*
X98627733Y-96732779D01*
X115805742Y-96732779D01*
X115806073Y-96746653D01*
X115813889Y-96750000D01*
X116812170Y-96750000D01*
X116827169Y-96745596D01*
X116828356Y-96744226D01*
X116830000Y-96736668D01*
X116830000Y-96732170D01*
X117330000Y-96732170D01*
X117334404Y-96747169D01*
X117335774Y-96748356D01*
X117343332Y-96750000D01*
X118341042Y-96750000D01*
X118354359Y-96746090D01*
X118355569Y-96737674D01*
X118307669Y-96558908D01*
X118303977Y-96548765D01*
X118212420Y-96352420D01*
X118207032Y-96343087D01*
X118082767Y-96165619D01*
X118075831Y-96157353D01*
X117922647Y-96004169D01*
X117914381Y-95997233D01*
X117736913Y-95872968D01*
X117727580Y-95867580D01*
X117531235Y-95776023D01*
X117521092Y-95772331D01*
X117347221Y-95725742D01*
X117333347Y-95726073D01*
X117330000Y-95733889D01*
X117330000Y-96732170D01*
X116830000Y-96732170D01*
X116830000Y-95738958D01*
X116826090Y-95725641D01*
X116817674Y-95724431D01*
X116638908Y-95772331D01*
X116628765Y-95776023D01*
X116432420Y-95867580D01*
X116423087Y-95872968D01*
X116245619Y-95997233D01*
X116237353Y-96004169D01*
X116084169Y-96157353D01*
X116077233Y-96165619D01*
X115952968Y-96343087D01*
X115947580Y-96352420D01*
X115856023Y-96548765D01*
X115852331Y-96558908D01*
X115805742Y-96732779D01*
X98627733Y-96732779D01*
X98634099Y-96700775D01*
X98634494Y-96670654D01*
X98636793Y-96495034D01*
X98636793Y-96495029D01*
X98636867Y-96489346D01*
X98635904Y-96483741D01*
X98602021Y-96286550D01*
X98602020Y-96286547D01*
X98601059Y-96280953D01*
X98527873Y-96082575D01*
X98524970Y-96077695D01*
X98422668Y-95905740D01*
X98422666Y-95905737D01*
X98419762Y-95900856D01*
X98280345Y-95741881D01*
X98275881Y-95738362D01*
X98275878Y-95738359D01*
X98201508Y-95679731D01*
X98114292Y-95610976D01*
X97998185Y-95549889D01*
X97948024Y-95501257D01*
X97932118Y-95433222D01*
X97955519Y-95367387D01*
X98003519Y-95327771D01*
X98157667Y-95255890D01*
X98167017Y-95250492D01*
X98351643Y-95121216D01*
X98359907Y-95114281D01*
X98519279Y-94954909D01*
X98526215Y-94946643D01*
X98655498Y-94762008D01*
X98660886Y-94752676D01*
X98756143Y-94548397D01*
X98759832Y-94538264D01*
X98811022Y-94347221D01*
X98810691Y-94333347D01*
X98802875Y-94330000D01*
X95922194Y-94330000D01*
X95908877Y-94333910D01*
X95907667Y-94342326D01*
X93660500Y-94342326D01*
X93660500Y-89726636D01*
X95885001Y-89726636D01*
X95885331Y-89733015D01*
X95895151Y-89827671D01*
X95897997Y-89840849D01*
X95948920Y-89993481D01*
X95954991Y-90006443D01*
X96039438Y-90142907D01*
X96048325Y-90154120D01*
X96161904Y-90267501D01*
X96173135Y-90276370D01*
X96309741Y-90360575D01*
X96322718Y-90366627D01*
X96475446Y-90417285D01*
X96488614Y-90420108D01*
X96503444Y-90421627D01*
X96568128Y-90448041D01*
X96608263Y-90505234D01*
X96611106Y-90575045D01*
X96575755Y-90635312D01*
X96564999Y-90644336D01*
X96472860Y-90713140D01*
X96461867Y-90721349D01*
X96458012Y-90725519D01*
X96458009Y-90725522D01*
X96421492Y-90765026D01*
X96318337Y-90876619D01*
X96315303Y-90881428D01*
X96315302Y-90881429D01*
X96209650Y-91048877D01*
X96205505Y-91055446D01*
X96127152Y-91251840D01*
X96126042Y-91257421D01*
X96126041Y-91257424D01*
X96122375Y-91275857D01*
X96085901Y-91459225D01*
X96085827Y-91464912D01*
X96085826Y-91464917D01*
X96083207Y-91664966D01*
X96083133Y-91670654D01*
X96084096Y-91676258D01*
X96084096Y-91676259D01*
X96087331Y-91695083D01*
X96118941Y-91879047D01*
X96192127Y-92077425D01*
X96195029Y-92082303D01*
X96195030Y-92082305D01*
X96272869Y-92213140D01*
X96300238Y-92259144D01*
X96439655Y-92418119D01*
X96444119Y-92421638D01*
X96444122Y-92421641D01*
X96507092Y-92471282D01*
X96605708Y-92549024D01*
X96721815Y-92610111D01*
X96771976Y-92658743D01*
X96787882Y-92726778D01*
X96764481Y-92792613D01*
X96716481Y-92832229D01*
X96562333Y-92904110D01*
X96552983Y-92909508D01*
X96368357Y-93038784D01*
X96360093Y-93045719D01*
X96200721Y-93205091D01*
X96193785Y-93213357D01*
X96064502Y-93397992D01*
X96059114Y-93407324D01*
X95963857Y-93611603D01*
X95960168Y-93621736D01*
X95908978Y-93812779D01*
X95909309Y-93826653D01*
X95917125Y-93830000D01*
X98797806Y-93830000D01*
X98811123Y-93826090D01*
X98812333Y-93817674D01*
X98759832Y-93621736D01*
X98756143Y-93611603D01*
X98660890Y-93407333D01*
X98655492Y-93397983D01*
X98526216Y-93213357D01*
X98519281Y-93205093D01*
X98359907Y-93045719D01*
X98351643Y-93038784D01*
X98167017Y-92909508D01*
X98157667Y-92904110D01*
X98003253Y-92832105D01*
X97950814Y-92785933D01*
X97931662Y-92718739D01*
X97951878Y-92651858D01*
X98000814Y-92608511D01*
X98083607Y-92567682D01*
X98083611Y-92567680D01*
X98088710Y-92565165D01*
X98258133Y-92438651D01*
X98261988Y-92434481D01*
X98261991Y-92434478D01*
X98345030Y-92344646D01*
X98401663Y-92283381D01*
X98414259Y-92263418D01*
X98511461Y-92109363D01*
X98511462Y-92109361D01*
X98514495Y-92104554D01*
X98592848Y-91908160D01*
X98597580Y-91884373D01*
X98632988Y-91706359D01*
X98634099Y-91700775D01*
X98634494Y-91670654D01*
X98636793Y-91495034D01*
X98636793Y-91495029D01*
X98636867Y-91489346D01*
X98634700Y-91476735D01*
X98633726Y-91471069D01*
X109577544Y-91471069D01*
X109577915Y-91476731D01*
X109577915Y-91476735D01*
X109583231Y-91557842D01*
X109590772Y-91672894D01*
X109640558Y-91868928D01*
X109725236Y-92052607D01*
X109841968Y-92217780D01*
X109986846Y-92358913D01*
X110155017Y-92471282D01*
X110340850Y-92551122D01*
X110366257Y-92556871D01*
X110532573Y-92594505D01*
X110532575Y-92594505D01*
X110538120Y-92595760D01*
X110647698Y-92600065D01*
X110734541Y-92603477D01*
X110734543Y-92603477D01*
X110740222Y-92603700D01*
X110745842Y-92602885D01*
X110745845Y-92602885D01*
X110934767Y-92575493D01*
X110934769Y-92575493D01*
X110940387Y-92574678D01*
X110945764Y-92572853D01*
X110945767Y-92572852D01*
X111031241Y-92543837D01*
X111131911Y-92509664D01*
X111308381Y-92410837D01*
X111346838Y-92378853D01*
X111387967Y-92344646D01*
X112081880Y-92344646D01*
X112084998Y-92370846D01*
X112130441Y-92473153D01*
X112209667Y-92552241D01*
X112220138Y-92556870D01*
X112220139Y-92556871D01*
X112303527Y-92593737D01*
X112303529Y-92593738D01*
X112312053Y-92597506D01*
X112337734Y-92600500D01*
X114027026Y-92600500D01*
X114030680Y-92600065D01*
X114030682Y-92600065D01*
X114035646Y-92599474D01*
X114053226Y-92597382D01*
X114155533Y-92551939D01*
X114234621Y-92472713D01*
X114260750Y-92413611D01*
X114276117Y-92378853D01*
X114276118Y-92378851D01*
X114279886Y-92370327D01*
X114282880Y-92344646D01*
X114282880Y-90655354D01*
X114279762Y-90629154D01*
X114234319Y-90526847D01*
X114155093Y-90447759D01*
X114144622Y-90443130D01*
X114144621Y-90443129D01*
X114061233Y-90406263D01*
X114061231Y-90406262D01*
X114052707Y-90402494D01*
X114027026Y-90399500D01*
X112337734Y-90399500D01*
X112334080Y-90399935D01*
X112334078Y-90399935D01*
X112329114Y-90400526D01*
X112311534Y-90402618D01*
X112209227Y-90448061D01*
X112130139Y-90527287D01*
X112125510Y-90537758D01*
X112125509Y-90537759D01*
X112093743Y-90609613D01*
X112084874Y-90629673D01*
X112081880Y-90655354D01*
X112081880Y-92344646D01*
X111387967Y-92344646D01*
X111448483Y-92294315D01*
X111463885Y-92281505D01*
X111593217Y-92126001D01*
X111692044Y-91949531D01*
X111757058Y-91758007D01*
X111757873Y-91752387D01*
X111785556Y-91561458D01*
X111785556Y-91561453D01*
X111786080Y-91557842D01*
X111787595Y-91500000D01*
X111769088Y-91298591D01*
X111714187Y-91103926D01*
X111624731Y-90922527D01*
X111503715Y-90760467D01*
X111368323Y-90635312D01*
X111359368Y-90627034D01*
X111359366Y-90627033D01*
X111355192Y-90623174D01*
X111350382Y-90620139D01*
X111188946Y-90518280D01*
X111188944Y-90518279D01*
X111184137Y-90515246D01*
X110996278Y-90440298D01*
X110990697Y-90439188D01*
X110990694Y-90439187D01*
X110901252Y-90421396D01*
X110797906Y-90400839D01*
X110792219Y-90400765D01*
X110792214Y-90400764D01*
X110601355Y-90398266D01*
X110601350Y-90398266D01*
X110595666Y-90398192D01*
X110590062Y-90399155D01*
X110590061Y-90399155D01*
X110401926Y-90431482D01*
X110401923Y-90431483D01*
X110396329Y-90432444D01*
X110350013Y-90449531D01*
X110211901Y-90500483D01*
X110211897Y-90500485D01*
X110206573Y-90502449D01*
X110201690Y-90505354D01*
X110201688Y-90505355D01*
X110037642Y-90602952D01*
X110032751Y-90605862D01*
X109880685Y-90739220D01*
X109755469Y-90898057D01*
X109752822Y-90903088D01*
X109698211Y-91006886D01*
X109661294Y-91077053D01*
X109659609Y-91082479D01*
X109659608Y-91082482D01*
X109653273Y-91102885D01*
X109601317Y-91270213D01*
X109577544Y-91471069D01*
X98633726Y-91471069D01*
X98602021Y-91286550D01*
X98602020Y-91286547D01*
X98601059Y-91280953D01*
X98527873Y-91082575D01*
X98523175Y-91074678D01*
X98422668Y-90905740D01*
X98422666Y-90905737D01*
X98419762Y-90900856D01*
X98280345Y-90741881D01*
X98153787Y-90642111D01*
X98113328Y-90585151D01*
X98110086Y-90515357D01*
X98145093Y-90454890D01*
X98207233Y-90422947D01*
X98217759Y-90421396D01*
X98232672Y-90419849D01*
X98245849Y-90417003D01*
X98398481Y-90366080D01*
X98411443Y-90360009D01*
X98547907Y-90275562D01*
X98559120Y-90266675D01*
X98672501Y-90153096D01*
X98681370Y-90141865D01*
X98765575Y-90005259D01*
X98771627Y-89992282D01*
X98778663Y-89971069D01*
X130815164Y-89971069D01*
X130815535Y-89976731D01*
X130815535Y-89976735D01*
X130820851Y-90057842D01*
X130828392Y-90172894D01*
X130878178Y-90368928D01*
X130880554Y-90374082D01*
X130941017Y-90505234D01*
X130962856Y-90552607D01*
X131079588Y-90717780D01*
X131224466Y-90858913D01*
X131392637Y-90971282D01*
X131578470Y-91051122D01*
X131670825Y-91072020D01*
X131770193Y-91094505D01*
X131770195Y-91094505D01*
X131775740Y-91095760D01*
X131893135Y-91100372D01*
X131972161Y-91103477D01*
X131972163Y-91103477D01*
X131977842Y-91103700D01*
X131983462Y-91102885D01*
X131983465Y-91102885D01*
X132172387Y-91075493D01*
X132172389Y-91075493D01*
X132178007Y-91074678D01*
X132183384Y-91072853D01*
X132183387Y-91072852D01*
X132268090Y-91044099D01*
X132369531Y-91009664D01*
X132546001Y-90910837D01*
X132552130Y-90905740D01*
X132697138Y-90785137D01*
X132701505Y-90781505D01*
X132751208Y-90721744D01*
X132827206Y-90630367D01*
X132827207Y-90630366D01*
X132830837Y-90626001D01*
X132833832Y-90620654D01*
X132926886Y-90454491D01*
X132929664Y-90449531D01*
X132994678Y-90258007D01*
X133009889Y-90153096D01*
X133023176Y-90061458D01*
X133023176Y-90061453D01*
X133023700Y-90057842D01*
X133025215Y-90000000D01*
X133022557Y-89971069D01*
X140975164Y-89971069D01*
X140975535Y-89976731D01*
X140975535Y-89976735D01*
X140980851Y-90057842D01*
X140988392Y-90172894D01*
X141038178Y-90368928D01*
X141040554Y-90374082D01*
X141101017Y-90505234D01*
X141122856Y-90552607D01*
X141239588Y-90717780D01*
X141384466Y-90858913D01*
X141552637Y-90971282D01*
X141738470Y-91051122D01*
X141830825Y-91072020D01*
X141930193Y-91094505D01*
X141930195Y-91094505D01*
X141935740Y-91095760D01*
X142053135Y-91100372D01*
X142132161Y-91103477D01*
X142132163Y-91103477D01*
X142137842Y-91103700D01*
X142143462Y-91102885D01*
X142143465Y-91102885D01*
X142332387Y-91075493D01*
X142332389Y-91075493D01*
X142338007Y-91074678D01*
X142343384Y-91072853D01*
X142343387Y-91072852D01*
X142428090Y-91044099D01*
X142529531Y-91009664D01*
X142706001Y-90910837D01*
X142712130Y-90905740D01*
X142857138Y-90785137D01*
X142861505Y-90781505D01*
X142911208Y-90721744D01*
X142987206Y-90630367D01*
X142987207Y-90630366D01*
X142990837Y-90626001D01*
X142993832Y-90620654D01*
X143086886Y-90454491D01*
X143089664Y-90449531D01*
X143154678Y-90258007D01*
X143169889Y-90153096D01*
X143183176Y-90061458D01*
X143183176Y-90061453D01*
X143183700Y-90057842D01*
X143185215Y-90000000D01*
X143166708Y-89798591D01*
X143111807Y-89603926D01*
X143022351Y-89422527D01*
X142901335Y-89260467D01*
X142862584Y-89224646D01*
X154379500Y-89224646D01*
X154379935Y-89228300D01*
X154379935Y-89228302D01*
X154380526Y-89233266D01*
X154382618Y-89250846D01*
X154428061Y-89353153D01*
X154507287Y-89432241D01*
X154517758Y-89436870D01*
X154517759Y-89436871D01*
X154601147Y-89473737D01*
X154601149Y-89473738D01*
X154609673Y-89477506D01*
X154635354Y-89480500D01*
X156924646Y-89480500D01*
X156928300Y-89480065D01*
X156928302Y-89480065D01*
X156933266Y-89479474D01*
X156950846Y-89477382D01*
X157053153Y-89431939D01*
X157132241Y-89352713D01*
X157139730Y-89335774D01*
X157173737Y-89258853D01*
X157173738Y-89258851D01*
X157177506Y-89250327D01*
X157180500Y-89224646D01*
X157180500Y-88045665D01*
X164535119Y-88045665D01*
X164535412Y-88050747D01*
X164535412Y-88050748D01*
X164540867Y-88145349D01*
X164548376Y-88275580D01*
X164570089Y-88371929D01*
X164583926Y-88433325D01*
X164599006Y-88500242D01*
X164685649Y-88713618D01*
X164688311Y-88717962D01*
X164803317Y-88905635D01*
X164803321Y-88905640D01*
X164805979Y-88909978D01*
X164809311Y-88913824D01*
X164809312Y-88913826D01*
X164895340Y-89013139D01*
X164956763Y-89084048D01*
X164960673Y-89087294D01*
X164960677Y-89087298D01*
X165040253Y-89153363D01*
X165133953Y-89231154D01*
X165233516Y-89289334D01*
X165325923Y-89343332D01*
X165332790Y-89347345D01*
X165337543Y-89349160D01*
X165337545Y-89349161D01*
X165368064Y-89360815D01*
X165547934Y-89429501D01*
X165552920Y-89430515D01*
X165552922Y-89430516D01*
X165582758Y-89436586D01*
X165773607Y-89475414D01*
X165912309Y-89480500D01*
X165998670Y-89483667D01*
X165998673Y-89483667D01*
X166003749Y-89483853D01*
X166232178Y-89454591D01*
X166306675Y-89432241D01*
X166447892Y-89389874D01*
X166447895Y-89389873D01*
X166452761Y-89388413D01*
X166457324Y-89386177D01*
X166457328Y-89386176D01*
X166566218Y-89332831D01*
X166659574Y-89287096D01*
X166847062Y-89153363D01*
X167010190Y-88990803D01*
X167144577Y-88803783D01*
X167246615Y-88597325D01*
X167313563Y-88376975D01*
X167341112Y-88167718D01*
X167343191Y-88151924D01*
X167343191Y-88151921D01*
X167343622Y-88148649D01*
X167345300Y-88080000D01*
X167339291Y-88006904D01*
X167336187Y-87969154D01*
X167326430Y-87850478D01*
X167270326Y-87627120D01*
X167178496Y-87415924D01*
X167175736Y-87411658D01*
X167175733Y-87411652D01*
X167056167Y-87226832D01*
X167056165Y-87226830D01*
X167053405Y-87222563D01*
X166898412Y-87052229D01*
X166894427Y-87049082D01*
X166894424Y-87049079D01*
X166750423Y-86935354D01*
X166717681Y-86909496D01*
X166713235Y-86907042D01*
X166713231Y-86907039D01*
X166520520Y-86800657D01*
X166520517Y-86800656D01*
X166516065Y-86798198D01*
X166340885Y-86736163D01*
X166303779Y-86723023D01*
X166303778Y-86723023D01*
X166298978Y-86721323D01*
X166244575Y-86711632D01*
X166077260Y-86681829D01*
X166077255Y-86681829D01*
X166072250Y-86680937D01*
X165981875Y-86679833D01*
X165847061Y-86678185D01*
X165847059Y-86678185D01*
X165841971Y-86678123D01*
X165836942Y-86678893D01*
X165836936Y-86678893D01*
X165706950Y-86698784D01*
X165614325Y-86712958D01*
X165395424Y-86784506D01*
X165390910Y-86786856D01*
X165195664Y-86888494D01*
X165195658Y-86888498D01*
X165191149Y-86890845D01*
X165006984Y-87029119D01*
X165003469Y-87032798D01*
X165003466Y-87032800D01*
X164896282Y-87144963D01*
X164847877Y-87195616D01*
X164845013Y-87199815D01*
X164845011Y-87199817D01*
X164829495Y-87222563D01*
X164718099Y-87385863D01*
X164621136Y-87594752D01*
X164619774Y-87599662D01*
X164619774Y-87599663D01*
X164566054Y-87793373D01*
X164559592Y-87816673D01*
X164535119Y-88045665D01*
X157180500Y-88045665D01*
X157180500Y-86935354D01*
X157177382Y-86909154D01*
X157131939Y-86806847D01*
X157052713Y-86727759D01*
X157042242Y-86723130D01*
X157042241Y-86723129D01*
X156958853Y-86686263D01*
X156958851Y-86686262D01*
X156950327Y-86682494D01*
X156924646Y-86679500D01*
X154635354Y-86679500D01*
X154631700Y-86679935D01*
X154631698Y-86679935D01*
X154626734Y-86680526D01*
X154609154Y-86682618D01*
X154506847Y-86728061D01*
X154427759Y-86807287D01*
X154423130Y-86817758D01*
X154423129Y-86817759D01*
X154389467Y-86893901D01*
X154382494Y-86909673D01*
X154379500Y-86935354D01*
X154379500Y-89224646D01*
X142862584Y-89224646D01*
X142788661Y-89156312D01*
X142756988Y-89127034D01*
X142756986Y-89127033D01*
X142752812Y-89123174D01*
X142690801Y-89084048D01*
X142586566Y-89018280D01*
X142586564Y-89018279D01*
X142581757Y-89015246D01*
X142393898Y-88940298D01*
X142388317Y-88939188D01*
X142388314Y-88939187D01*
X142320373Y-88925673D01*
X142195526Y-88900839D01*
X142189839Y-88900765D01*
X142189834Y-88900764D01*
X141998975Y-88898266D01*
X141998970Y-88898266D01*
X141993286Y-88898192D01*
X141987682Y-88899155D01*
X141987681Y-88899155D01*
X141799546Y-88931482D01*
X141799543Y-88931483D01*
X141793949Y-88932444D01*
X141772660Y-88940298D01*
X141609521Y-89000483D01*
X141609517Y-89000485D01*
X141604193Y-89002449D01*
X141599310Y-89005354D01*
X141599308Y-89005355D01*
X141582683Y-89015246D01*
X141430371Y-89105862D01*
X141278305Y-89239220D01*
X141153089Y-89398057D01*
X141058914Y-89577053D01*
X141057229Y-89582479D01*
X141057228Y-89582482D01*
X141050570Y-89603926D01*
X140998937Y-89770213D01*
X140975164Y-89971069D01*
X133022557Y-89971069D01*
X133006708Y-89798591D01*
X132951807Y-89603926D01*
X132862351Y-89422527D01*
X132741335Y-89260467D01*
X132628661Y-89156312D01*
X132596988Y-89127034D01*
X132596986Y-89127033D01*
X132592812Y-89123174D01*
X132530801Y-89084048D01*
X132426566Y-89018280D01*
X132426564Y-89018279D01*
X132421757Y-89015246D01*
X132233898Y-88940298D01*
X132228317Y-88939188D01*
X132228314Y-88939187D01*
X132160373Y-88925673D01*
X132035526Y-88900839D01*
X132029839Y-88900765D01*
X132029834Y-88900764D01*
X131838975Y-88898266D01*
X131838970Y-88898266D01*
X131833286Y-88898192D01*
X131827682Y-88899155D01*
X131827681Y-88899155D01*
X131639546Y-88931482D01*
X131639543Y-88931483D01*
X131633949Y-88932444D01*
X131612660Y-88940298D01*
X131449521Y-89000483D01*
X131449517Y-89000485D01*
X131444193Y-89002449D01*
X131439310Y-89005354D01*
X131439308Y-89005355D01*
X131422683Y-89015246D01*
X131270371Y-89105862D01*
X131118305Y-89239220D01*
X130993089Y-89398057D01*
X130898914Y-89577053D01*
X130897229Y-89582479D01*
X130897228Y-89582482D01*
X130890570Y-89603926D01*
X130838937Y-89770213D01*
X130815164Y-89971069D01*
X98778663Y-89971069D01*
X98822285Y-89839554D01*
X98825108Y-89826387D01*
X98834678Y-89732981D01*
X98835000Y-89726675D01*
X98835000Y-89347830D01*
X98830596Y-89332831D01*
X98829226Y-89331644D01*
X98821668Y-89330000D01*
X95902831Y-89330000D01*
X95887832Y-89334404D01*
X95886645Y-89335774D01*
X95885001Y-89343332D01*
X95885001Y-89726636D01*
X93660500Y-89726636D01*
X93660500Y-88812170D01*
X95885000Y-88812170D01*
X95889404Y-88827169D01*
X95890774Y-88828356D01*
X95898332Y-88830000D01*
X97092170Y-88830000D01*
X97107169Y-88825596D01*
X97108356Y-88824226D01*
X97110000Y-88816668D01*
X97110000Y-88812170D01*
X97610000Y-88812170D01*
X97614404Y-88827169D01*
X97615774Y-88828356D01*
X97623332Y-88830000D01*
X98817169Y-88830000D01*
X98832168Y-88825596D01*
X98833355Y-88824226D01*
X98834999Y-88816668D01*
X98834999Y-88433364D01*
X98834669Y-88426985D01*
X98824849Y-88332329D01*
X98822003Y-88319151D01*
X98771080Y-88166519D01*
X98765009Y-88153557D01*
X98680562Y-88017093D01*
X98671675Y-88005880D01*
X98558096Y-87892499D01*
X98546865Y-87883630D01*
X98410259Y-87799425D01*
X98397282Y-87793373D01*
X98244554Y-87742715D01*
X98231387Y-87739892D01*
X98137981Y-87730322D01*
X98131675Y-87730000D01*
X97627830Y-87730000D01*
X97612831Y-87734404D01*
X97611644Y-87735774D01*
X97610000Y-87743332D01*
X97610000Y-88812170D01*
X97110000Y-88812170D01*
X97110000Y-87747831D01*
X97105596Y-87732832D01*
X97104226Y-87731645D01*
X97096668Y-87730001D01*
X96588364Y-87730001D01*
X96581985Y-87730331D01*
X96487329Y-87740151D01*
X96474151Y-87742997D01*
X96321519Y-87793920D01*
X96308557Y-87799991D01*
X96172093Y-87884438D01*
X96160880Y-87893325D01*
X96047499Y-88006904D01*
X96038630Y-88018135D01*
X95954425Y-88154741D01*
X95948373Y-88167718D01*
X95897715Y-88320446D01*
X95894892Y-88333613D01*
X95885322Y-88427019D01*
X95885000Y-88433325D01*
X95885000Y-88812170D01*
X93660500Y-88812170D01*
X93660500Y-84824646D01*
X171359500Y-84824646D01*
X171362618Y-84850846D01*
X171408061Y-84953153D01*
X171487287Y-85032241D01*
X171497758Y-85036870D01*
X171497759Y-85036871D01*
X171581147Y-85073737D01*
X171581149Y-85073738D01*
X171589673Y-85077506D01*
X171615354Y-85080500D01*
X174104646Y-85080500D01*
X174108300Y-85080065D01*
X174108302Y-85080065D01*
X174113266Y-85079474D01*
X174130846Y-85077382D01*
X174233153Y-85031939D01*
X174312241Y-84952713D01*
X174318014Y-84939655D01*
X174353737Y-84858853D01*
X174353738Y-84858851D01*
X174357506Y-84850327D01*
X174360500Y-84824646D01*
X174360500Y-83543214D01*
X174854806Y-83543214D01*
X174855099Y-83548296D01*
X174855099Y-83548297D01*
X174856759Y-83577081D01*
X174869010Y-83789545D01*
X174890660Y-83885614D01*
X174906170Y-83954435D01*
X174923255Y-84030249D01*
X175016084Y-84258861D01*
X175018746Y-84263205D01*
X175142344Y-84464898D01*
X175142348Y-84464903D01*
X175145006Y-84469241D01*
X175148338Y-84473087D01*
X175148339Y-84473089D01*
X175246431Y-84586329D01*
X175306557Y-84655741D01*
X175310467Y-84658988D01*
X175310471Y-84658991D01*
X175396007Y-84730004D01*
X175496399Y-84813351D01*
X175598967Y-84873287D01*
X175705036Y-84935269D01*
X175705040Y-84935271D01*
X175709433Y-84937838D01*
X175939939Y-85025859D01*
X175994064Y-85036871D01*
X176176741Y-85074038D01*
X176176744Y-85074038D01*
X176181726Y-85075052D01*
X176343367Y-85080979D01*
X176423221Y-85083907D01*
X176423224Y-85083907D01*
X176428300Y-85084093D01*
X176673041Y-85052741D01*
X176726889Y-85036586D01*
X176904502Y-84983300D01*
X176904506Y-84983299D01*
X176909374Y-84981838D01*
X177130954Y-84873287D01*
X177135099Y-84870330D01*
X177135103Y-84870328D01*
X177327686Y-84732959D01*
X177331829Y-84730004D01*
X177506605Y-84555837D01*
X177650588Y-84355463D01*
X177707259Y-84240797D01*
X177757654Y-84138831D01*
X177757655Y-84138830D01*
X177759911Y-84134264D01*
X177831639Y-83898180D01*
X177858291Y-83695734D01*
X177863414Y-83656825D01*
X177863414Y-83656822D01*
X177863845Y-83653550D01*
X177865643Y-83580000D01*
X177864607Y-83567393D01*
X177862619Y-83543214D01*
X178354806Y-83543214D01*
X178355099Y-83548296D01*
X178355099Y-83548297D01*
X178356759Y-83577081D01*
X178369010Y-83789545D01*
X178390660Y-83885614D01*
X178406170Y-83954435D01*
X178423255Y-84030249D01*
X178516084Y-84258861D01*
X178518746Y-84263205D01*
X178642344Y-84464898D01*
X178642348Y-84464903D01*
X178645006Y-84469241D01*
X178648338Y-84473087D01*
X178648339Y-84473089D01*
X178746431Y-84586329D01*
X178806557Y-84655741D01*
X178810467Y-84658988D01*
X178810471Y-84658991D01*
X178896007Y-84730004D01*
X178996399Y-84813351D01*
X179098967Y-84873287D01*
X179205036Y-84935269D01*
X179205040Y-84935271D01*
X179209433Y-84937838D01*
X179439939Y-85025859D01*
X179494064Y-85036871D01*
X179676741Y-85074038D01*
X179676744Y-85074038D01*
X179681726Y-85075052D01*
X179843367Y-85080979D01*
X179923221Y-85083907D01*
X179923224Y-85083907D01*
X179928300Y-85084093D01*
X180173041Y-85052741D01*
X180226889Y-85036586D01*
X180404502Y-84983300D01*
X180404506Y-84983299D01*
X180409374Y-84981838D01*
X180630954Y-84873287D01*
X180635099Y-84870330D01*
X180635103Y-84870328D01*
X180827686Y-84732959D01*
X180831829Y-84730004D01*
X181006605Y-84555837D01*
X181150588Y-84355463D01*
X181207259Y-84240797D01*
X181257654Y-84138831D01*
X181257655Y-84138830D01*
X181259911Y-84134264D01*
X181331639Y-83898180D01*
X181358291Y-83695734D01*
X181363414Y-83656825D01*
X181363414Y-83656822D01*
X181363845Y-83653550D01*
X181365643Y-83580000D01*
X181364607Y-83567393D01*
X181362619Y-83543214D01*
X181854806Y-83543214D01*
X181855099Y-83548296D01*
X181855099Y-83548297D01*
X181856759Y-83577081D01*
X181869010Y-83789545D01*
X181890660Y-83885614D01*
X181906170Y-83954435D01*
X181923255Y-84030249D01*
X182016084Y-84258861D01*
X182018746Y-84263205D01*
X182142344Y-84464898D01*
X182142348Y-84464903D01*
X182145006Y-84469241D01*
X182148338Y-84473087D01*
X182148339Y-84473089D01*
X182246431Y-84586329D01*
X182306557Y-84655741D01*
X182310467Y-84658988D01*
X182310471Y-84658991D01*
X182396007Y-84730004D01*
X182496399Y-84813351D01*
X182598967Y-84873287D01*
X182705036Y-84935269D01*
X182705040Y-84935271D01*
X182709433Y-84937838D01*
X182939939Y-85025859D01*
X182994064Y-85036871D01*
X183176741Y-85074038D01*
X183176744Y-85074038D01*
X183181726Y-85075052D01*
X183343367Y-85080979D01*
X183423221Y-85083907D01*
X183423224Y-85083907D01*
X183428300Y-85084093D01*
X183673041Y-85052741D01*
X183726889Y-85036586D01*
X183904502Y-84983300D01*
X183904506Y-84983299D01*
X183909374Y-84981838D01*
X184130954Y-84873287D01*
X184135099Y-84870330D01*
X184135103Y-84870328D01*
X184327686Y-84732959D01*
X184331829Y-84730004D01*
X184506605Y-84555837D01*
X184650588Y-84355463D01*
X184707259Y-84240797D01*
X184757654Y-84138831D01*
X184757655Y-84138830D01*
X184759911Y-84134264D01*
X184831639Y-83898180D01*
X184858291Y-83695734D01*
X184863414Y-83656825D01*
X184863414Y-83656822D01*
X184863845Y-83653550D01*
X184865643Y-83580000D01*
X184864607Y-83567393D01*
X184862619Y-83543214D01*
X185354806Y-83543214D01*
X185355099Y-83548296D01*
X185355099Y-83548297D01*
X185356759Y-83577081D01*
X185369010Y-83789545D01*
X185390660Y-83885614D01*
X185406170Y-83954435D01*
X185423255Y-84030249D01*
X185516084Y-84258861D01*
X185518746Y-84263205D01*
X185642344Y-84464898D01*
X185642348Y-84464903D01*
X185645006Y-84469241D01*
X185648338Y-84473087D01*
X185648339Y-84473089D01*
X185746431Y-84586329D01*
X185806557Y-84655741D01*
X185810467Y-84658988D01*
X185810471Y-84658991D01*
X185896007Y-84730004D01*
X185996399Y-84813351D01*
X186098967Y-84873287D01*
X186205036Y-84935269D01*
X186205040Y-84935271D01*
X186209433Y-84937838D01*
X186439939Y-85025859D01*
X186494064Y-85036871D01*
X186676741Y-85074038D01*
X186676744Y-85074038D01*
X186681726Y-85075052D01*
X186843367Y-85080979D01*
X186923221Y-85083907D01*
X186923224Y-85083907D01*
X186928300Y-85084093D01*
X187173041Y-85052741D01*
X187226889Y-85036586D01*
X187404502Y-84983300D01*
X187404506Y-84983299D01*
X187409374Y-84981838D01*
X187484055Y-84945252D01*
X189353748Y-84945252D01*
X189362321Y-84956588D01*
X189452896Y-85023000D01*
X189460692Y-85027871D01*
X189676148Y-85141229D01*
X189684574Y-85144893D01*
X189914430Y-85225161D01*
X189923292Y-85227536D01*
X190162500Y-85272952D01*
X190171611Y-85273990D01*
X190414889Y-85283548D01*
X190424077Y-85283227D01*
X190666098Y-85256722D01*
X190675114Y-85255051D01*
X190910573Y-85193059D01*
X190919245Y-85190073D01*
X191142939Y-85093967D01*
X191151089Y-85089724D01*
X191358122Y-84961608D01*
X191361867Y-84958887D01*
X191369512Y-84947287D01*
X191363545Y-84937098D01*
X190372607Y-83946160D01*
X190358887Y-83938668D01*
X190357081Y-83938797D01*
X190350574Y-83942979D01*
X189360299Y-84933254D01*
X189353748Y-84945252D01*
X187484055Y-84945252D01*
X187630954Y-84873287D01*
X187635099Y-84870330D01*
X187635103Y-84870328D01*
X187827686Y-84732959D01*
X187831829Y-84730004D01*
X188006605Y-84555837D01*
X188150588Y-84355463D01*
X188207259Y-84240797D01*
X188257654Y-84138831D01*
X188257655Y-84138830D01*
X188259911Y-84134264D01*
X188331639Y-83898180D01*
X188358291Y-83695734D01*
X188363414Y-83656825D01*
X188363414Y-83656822D01*
X188363845Y-83653550D01*
X188365643Y-83580000D01*
X188364607Y-83567393D01*
X188362353Y-83539978D01*
X188656038Y-83539978D01*
X188667719Y-83783154D01*
X188668840Y-83792282D01*
X188716338Y-84031069D01*
X188718787Y-84039903D01*
X188801066Y-84269068D01*
X188804792Y-84277437D01*
X188920037Y-84491919D01*
X188924967Y-84499657D01*
X188983479Y-84578014D01*
X188994560Y-84586329D01*
X189006782Y-84579665D01*
X189993840Y-83592607D01*
X190000116Y-83581113D01*
X190718668Y-83581113D01*
X190718797Y-83582919D01*
X190722979Y-83589426D01*
X191715934Y-84582381D01*
X191728115Y-84589032D01*
X191736325Y-84582886D01*
X191855688Y-84397315D01*
X191860070Y-84389244D01*
X191960065Y-84167266D01*
X191963208Y-84158630D01*
X192029294Y-83924304D01*
X192031123Y-83915319D01*
X192062039Y-83672305D01*
X192062512Y-83666113D01*
X192064686Y-83583100D01*
X192064537Y-83576902D01*
X192046383Y-83332613D01*
X192045025Y-83323524D01*
X191991293Y-83086063D01*
X191988609Y-83077286D01*
X191900365Y-82850365D01*
X191896418Y-82842089D01*
X191775596Y-82630695D01*
X191770470Y-82623096D01*
X191737421Y-82581174D01*
X191725683Y-82572836D01*
X191714335Y-82579218D01*
X190726160Y-83567393D01*
X190718668Y-83581113D01*
X190000116Y-83581113D01*
X190001332Y-83578887D01*
X190001203Y-83577081D01*
X189997021Y-83570574D01*
X189004872Y-82578425D01*
X188991777Y-82571275D01*
X188981898Y-82578283D01*
X188975064Y-82586501D01*
X188969736Y-82593970D01*
X188843430Y-82802116D01*
X188839260Y-82810298D01*
X188745106Y-83034832D01*
X188742199Y-83043520D01*
X188682265Y-83279510D01*
X188680671Y-83288551D01*
X188656279Y-83530788D01*
X188656038Y-83539978D01*
X188362353Y-83539978D01*
X188346832Y-83351208D01*
X188345425Y-83334089D01*
X188334892Y-83292153D01*
X188302350Y-83162599D01*
X188285316Y-83094783D01*
X188281525Y-83086063D01*
X188227454Y-82961711D01*
X188186928Y-82868507D01*
X188052905Y-82661339D01*
X187984808Y-82586501D01*
X187890278Y-82482613D01*
X187890274Y-82482609D01*
X187886846Y-82478842D01*
X187693210Y-82325918D01*
X187578026Y-82262333D01*
X187488519Y-82212922D01*
X189351596Y-82212922D01*
X189356097Y-82222544D01*
X190347393Y-83213840D01*
X190361113Y-83221332D01*
X190362919Y-83221203D01*
X190369426Y-83217021D01*
X191360284Y-82226163D01*
X191366565Y-82214660D01*
X191357303Y-82202742D01*
X191229011Y-82113743D01*
X191221113Y-82109090D01*
X191002747Y-82001404D01*
X190994232Y-81997964D01*
X190762352Y-81923739D01*
X190753432Y-81921597D01*
X190513123Y-81882460D01*
X190503972Y-81881660D01*
X190260536Y-81878473D01*
X190251358Y-81879035D01*
X190010127Y-81911864D01*
X190001136Y-81913775D01*
X189767391Y-81981906D01*
X189758806Y-81985115D01*
X189537693Y-82087050D01*
X189529663Y-82091501D01*
X189360588Y-82202351D01*
X189351596Y-82212922D01*
X187488519Y-82212922D01*
X187481653Y-82209132D01*
X187481650Y-82209131D01*
X187477198Y-82206673D01*
X187244610Y-82124309D01*
X187057587Y-82090995D01*
X187006702Y-82081931D01*
X187006701Y-82081931D01*
X187001694Y-82081039D01*
X186909767Y-82079916D01*
X186760062Y-82078087D01*
X186760060Y-82078087D01*
X186754972Y-82078025D01*
X186511070Y-82115347D01*
X186276540Y-82192003D01*
X186272026Y-82194353D01*
X186062194Y-82303584D01*
X186062188Y-82303588D01*
X186057679Y-82305935D01*
X185977974Y-82365779D01*
X185885457Y-82435243D01*
X185860364Y-82454083D01*
X185856848Y-82457762D01*
X185856846Y-82457764D01*
X185769441Y-82549229D01*
X185689896Y-82632468D01*
X185687032Y-82636667D01*
X185687030Y-82636669D01*
X185603521Y-82759089D01*
X185550851Y-82836300D01*
X185446965Y-83060104D01*
X185445605Y-83065008D01*
X185385023Y-83283460D01*
X185381026Y-83297871D01*
X185354806Y-83543214D01*
X184862619Y-83543214D01*
X184846832Y-83351208D01*
X184845425Y-83334089D01*
X184834892Y-83292153D01*
X184802350Y-83162599D01*
X184785316Y-83094783D01*
X184781525Y-83086063D01*
X184727454Y-82961711D01*
X184686928Y-82868507D01*
X184552905Y-82661339D01*
X184484808Y-82586501D01*
X184390278Y-82482613D01*
X184390274Y-82482609D01*
X184386846Y-82478842D01*
X184193210Y-82325918D01*
X184078026Y-82262333D01*
X183981653Y-82209132D01*
X183981650Y-82209131D01*
X183977198Y-82206673D01*
X183744610Y-82124309D01*
X183557587Y-82090995D01*
X183506702Y-82081931D01*
X183506701Y-82081931D01*
X183501694Y-82081039D01*
X183409767Y-82079916D01*
X183260062Y-82078087D01*
X183260060Y-82078087D01*
X183254972Y-82078025D01*
X183011070Y-82115347D01*
X182776540Y-82192003D01*
X182772026Y-82194353D01*
X182562194Y-82303584D01*
X182562188Y-82303588D01*
X182557679Y-82305935D01*
X182477974Y-82365779D01*
X182385457Y-82435243D01*
X182360364Y-82454083D01*
X182356848Y-82457762D01*
X182356846Y-82457764D01*
X182269441Y-82549229D01*
X182189896Y-82632468D01*
X182187032Y-82636667D01*
X182187030Y-82636669D01*
X182103521Y-82759089D01*
X182050851Y-82836300D01*
X181946965Y-83060104D01*
X181945605Y-83065008D01*
X181885023Y-83283460D01*
X181881026Y-83297871D01*
X181854806Y-83543214D01*
X181362619Y-83543214D01*
X181346832Y-83351208D01*
X181345425Y-83334089D01*
X181334892Y-83292153D01*
X181302350Y-83162599D01*
X181285316Y-83094783D01*
X181281525Y-83086063D01*
X181227454Y-82961711D01*
X181186928Y-82868507D01*
X181052905Y-82661339D01*
X180984808Y-82586501D01*
X180890278Y-82482613D01*
X180890274Y-82482609D01*
X180886846Y-82478842D01*
X180693210Y-82325918D01*
X180578026Y-82262333D01*
X180481653Y-82209132D01*
X180481650Y-82209131D01*
X180477198Y-82206673D01*
X180244610Y-82124309D01*
X180057587Y-82090995D01*
X180006702Y-82081931D01*
X180006701Y-82081931D01*
X180001694Y-82081039D01*
X179909767Y-82079916D01*
X179760062Y-82078087D01*
X179760060Y-82078087D01*
X179754972Y-82078025D01*
X179511070Y-82115347D01*
X179276540Y-82192003D01*
X179272026Y-82194353D01*
X179062194Y-82303584D01*
X179062188Y-82303588D01*
X179057679Y-82305935D01*
X178977974Y-82365779D01*
X178885457Y-82435243D01*
X178860364Y-82454083D01*
X178856848Y-82457762D01*
X178856846Y-82457764D01*
X178769441Y-82549229D01*
X178689896Y-82632468D01*
X178687032Y-82636667D01*
X178687030Y-82636669D01*
X178603521Y-82759089D01*
X178550851Y-82836300D01*
X178446965Y-83060104D01*
X178445605Y-83065008D01*
X178385023Y-83283460D01*
X178381026Y-83297871D01*
X178354806Y-83543214D01*
X177862619Y-83543214D01*
X177846832Y-83351208D01*
X177845425Y-83334089D01*
X177834892Y-83292153D01*
X177802350Y-83162599D01*
X177785316Y-83094783D01*
X177781525Y-83086063D01*
X177727454Y-82961711D01*
X177686928Y-82868507D01*
X177552905Y-82661339D01*
X177484808Y-82586501D01*
X177390278Y-82482613D01*
X177390274Y-82482609D01*
X177386846Y-82478842D01*
X177193210Y-82325918D01*
X177078026Y-82262333D01*
X176981653Y-82209132D01*
X176981650Y-82209131D01*
X176977198Y-82206673D01*
X176744610Y-82124309D01*
X176557587Y-82090995D01*
X176506702Y-82081931D01*
X176506701Y-82081931D01*
X176501694Y-82081039D01*
X176409767Y-82079916D01*
X176260062Y-82078087D01*
X176260060Y-82078087D01*
X176254972Y-82078025D01*
X176011070Y-82115347D01*
X175776540Y-82192003D01*
X175772026Y-82194353D01*
X175562194Y-82303584D01*
X175562188Y-82303588D01*
X175557679Y-82305935D01*
X175477974Y-82365779D01*
X175385457Y-82435243D01*
X175360364Y-82454083D01*
X175356848Y-82457762D01*
X175356846Y-82457764D01*
X175269441Y-82549229D01*
X175189896Y-82632468D01*
X175187032Y-82636667D01*
X175187030Y-82636669D01*
X175103521Y-82759089D01*
X175050851Y-82836300D01*
X174946965Y-83060104D01*
X174945605Y-83065008D01*
X174885023Y-83283460D01*
X174881026Y-83297871D01*
X174854806Y-83543214D01*
X174360500Y-83543214D01*
X174360500Y-82335354D01*
X174357382Y-82309154D01*
X174311939Y-82206847D01*
X174232713Y-82127759D01*
X174222242Y-82123130D01*
X174222241Y-82123129D01*
X174138853Y-82086263D01*
X174138851Y-82086262D01*
X174130327Y-82082494D01*
X174104646Y-82079500D01*
X171615354Y-82079500D01*
X171611700Y-82079935D01*
X171611698Y-82079935D01*
X171606734Y-82080526D01*
X171589154Y-82082618D01*
X171486847Y-82128061D01*
X171407759Y-82207287D01*
X171403130Y-82217758D01*
X171403129Y-82217759D01*
X171392873Y-82240959D01*
X171362494Y-82309673D01*
X171359500Y-82335354D01*
X171359500Y-84824646D01*
X93660500Y-84824646D01*
X93660500Y-83328206D01*
X94781168Y-83328206D01*
X94788571Y-83338469D01*
X94930179Y-83452530D01*
X94936249Y-83456843D01*
X95206139Y-83625161D01*
X95212709Y-83628728D01*
X95500861Y-83763403D01*
X95507798Y-83766149D01*
X95810052Y-83865233D01*
X95817263Y-83867125D01*
X96129238Y-83929181D01*
X96136616Y-83930192D01*
X96453787Y-83954318D01*
X96461250Y-83954435D01*
X96779003Y-83940284D01*
X96786436Y-83939502D01*
X97100191Y-83887279D01*
X97107463Y-83885614D01*
X97412683Y-83796072D01*
X97419693Y-83793548D01*
X97711949Y-83667986D01*
X97718609Y-83664636D01*
X97993652Y-83504878D01*
X97999868Y-83500748D01*
X98212047Y-83340569D01*
X98220368Y-83329358D01*
X98213759Y-83317312D01*
X98139219Y-83242772D01*
X124189500Y-83242772D01*
X124193946Y-83279510D01*
X124196780Y-83302927D01*
X124200364Y-83332547D01*
X124203296Y-83339951D01*
X124203296Y-83339953D01*
X124232949Y-83414847D01*
X124255887Y-83472783D01*
X124260999Y-83479517D01*
X124260999Y-83479518D01*
X124341968Y-83586190D01*
X124347078Y-83592922D01*
X124353810Y-83598032D01*
X124451661Y-83672305D01*
X124467217Y-83684113D01*
X124475078Y-83687225D01*
X124475079Y-83687226D01*
X124600047Y-83736704D01*
X124600049Y-83736704D01*
X124607453Y-83739636D01*
X124615357Y-83740592D01*
X124615359Y-83740593D01*
X124655563Y-83745458D01*
X124697228Y-83750500D01*
X126022772Y-83750500D01*
X126064437Y-83745458D01*
X126104641Y-83740593D01*
X126104643Y-83740592D01*
X126112547Y-83739636D01*
X126119951Y-83736704D01*
X126119953Y-83736704D01*
X126244921Y-83687226D01*
X126244922Y-83687225D01*
X126252783Y-83684113D01*
X126268340Y-83672305D01*
X126366190Y-83598032D01*
X126372922Y-83592922D01*
X126378032Y-83586190D01*
X126459001Y-83479518D01*
X126459001Y-83479517D01*
X126464113Y-83472783D01*
X126487052Y-83414847D01*
X126516704Y-83339953D01*
X126516704Y-83339951D01*
X126519636Y-83332547D01*
X126523221Y-83302927D01*
X126526054Y-83279510D01*
X126530500Y-83242772D01*
X126530500Y-82935090D01*
X126550185Y-82868051D01*
X126602989Y-82822296D01*
X126672147Y-82812352D01*
X126735703Y-82841377D01*
X126774685Y-82904567D01*
X126791911Y-82972395D01*
X126794285Y-82977545D01*
X126794287Y-82977550D01*
X126879596Y-83162599D01*
X126881974Y-83167757D01*
X126885252Y-83172395D01*
X127002621Y-83338469D01*
X127006131Y-83343436D01*
X127160224Y-83493547D01*
X127164947Y-83496703D01*
X127164951Y-83496706D01*
X127215959Y-83530788D01*
X127339093Y-83613063D01*
X127536746Y-83697981D01*
X127542294Y-83699236D01*
X127542299Y-83699238D01*
X127633203Y-83719807D01*
X127746565Y-83745458D01*
X127890487Y-83751113D01*
X127955842Y-83753681D01*
X127955844Y-83753681D01*
X127961522Y-83753904D01*
X127967142Y-83753089D01*
X127967145Y-83753089D01*
X128168798Y-83723850D01*
X128174419Y-83723035D01*
X128179796Y-83721210D01*
X128179799Y-83721209D01*
X128289079Y-83684113D01*
X128378125Y-83653886D01*
X128565819Y-83548773D01*
X128731215Y-83411215D01*
X128868773Y-83245819D01*
X128973886Y-83058125D01*
X129012973Y-82942979D01*
X129041209Y-82859799D01*
X129041210Y-82859796D01*
X129043035Y-82854419D01*
X129047679Y-82822388D01*
X129076779Y-82758868D01*
X129135602Y-82721163D01*
X129205471Y-82721245D01*
X129264205Y-82759089D01*
X129290581Y-82809658D01*
X129302326Y-82855904D01*
X129331911Y-82972395D01*
X129334285Y-82977545D01*
X129334287Y-82977550D01*
X129419596Y-83162599D01*
X129421974Y-83167757D01*
X129425252Y-83172395D01*
X129542621Y-83338469D01*
X129546131Y-83343436D01*
X129700224Y-83493547D01*
X129704947Y-83496703D01*
X129704951Y-83496706D01*
X129755959Y-83530788D01*
X129879093Y-83613063D01*
X130076746Y-83697981D01*
X130082294Y-83699236D01*
X130082299Y-83699238D01*
X130173203Y-83719807D01*
X130286565Y-83745458D01*
X130430487Y-83751113D01*
X130495842Y-83753681D01*
X130495844Y-83753681D01*
X130501522Y-83753904D01*
X130507142Y-83753089D01*
X130507145Y-83753089D01*
X130708798Y-83723850D01*
X130714419Y-83723035D01*
X130719796Y-83721210D01*
X130719799Y-83721209D01*
X130829079Y-83684113D01*
X130918125Y-83653886D01*
X131105819Y-83548773D01*
X131271215Y-83411215D01*
X131408773Y-83245819D01*
X131513886Y-83058125D01*
X131552973Y-82942979D01*
X131581209Y-82859799D01*
X131581210Y-82859796D01*
X131583035Y-82854419D01*
X131587679Y-82822388D01*
X131616779Y-82758868D01*
X131675602Y-82721163D01*
X131745471Y-82721245D01*
X131804205Y-82759089D01*
X131830581Y-82809658D01*
X131842326Y-82855904D01*
X131871911Y-82972395D01*
X131874285Y-82977545D01*
X131874287Y-82977550D01*
X131959596Y-83162599D01*
X131961974Y-83167757D01*
X131965252Y-83172395D01*
X132082621Y-83338469D01*
X132086131Y-83343436D01*
X132240224Y-83493547D01*
X132244947Y-83496703D01*
X132244951Y-83496706D01*
X132295959Y-83530788D01*
X132419093Y-83613063D01*
X132616746Y-83697981D01*
X132622294Y-83699236D01*
X132622299Y-83699238D01*
X132713203Y-83719807D01*
X132826565Y-83745458D01*
X132970487Y-83751113D01*
X133035842Y-83753681D01*
X133035844Y-83753681D01*
X133041522Y-83753904D01*
X133047142Y-83753089D01*
X133047145Y-83753089D01*
X133248798Y-83723850D01*
X133254419Y-83723035D01*
X133259796Y-83721210D01*
X133259799Y-83721209D01*
X133369079Y-83684113D01*
X133458125Y-83653886D01*
X133645819Y-83548773D01*
X133811215Y-83411215D01*
X133948773Y-83245819D01*
X134053886Y-83058125D01*
X134092973Y-82942979D01*
X134121209Y-82859799D01*
X134121210Y-82859796D01*
X134123035Y-82854419D01*
X134127679Y-82822388D01*
X134156779Y-82758868D01*
X134215602Y-82721163D01*
X134285471Y-82721245D01*
X134344205Y-82759089D01*
X134370581Y-82809658D01*
X134382326Y-82855904D01*
X134411911Y-82972395D01*
X134414285Y-82977545D01*
X134414287Y-82977550D01*
X134499596Y-83162599D01*
X134501974Y-83167757D01*
X134505252Y-83172395D01*
X134622621Y-83338469D01*
X134626131Y-83343436D01*
X134780224Y-83493547D01*
X134784947Y-83496703D01*
X134784951Y-83496706D01*
X134835959Y-83530788D01*
X134959093Y-83613063D01*
X135156746Y-83697981D01*
X135162294Y-83699236D01*
X135162299Y-83699238D01*
X135253203Y-83719807D01*
X135366565Y-83745458D01*
X135510487Y-83751113D01*
X135575842Y-83753681D01*
X135575844Y-83753681D01*
X135581522Y-83753904D01*
X135587142Y-83753089D01*
X135587145Y-83753089D01*
X135788798Y-83723850D01*
X135794419Y-83723035D01*
X135799796Y-83721210D01*
X135799799Y-83721209D01*
X135909079Y-83684113D01*
X135998125Y-83653886D01*
X136185819Y-83548773D01*
X136351215Y-83411215D01*
X136488773Y-83245819D01*
X136593886Y-83058125D01*
X136632973Y-82942979D01*
X136661209Y-82859799D01*
X136661210Y-82859796D01*
X136663035Y-82854419D01*
X136667679Y-82822388D01*
X136696779Y-82758868D01*
X136755602Y-82721163D01*
X136825471Y-82721245D01*
X136884205Y-82759089D01*
X136910581Y-82809658D01*
X136922326Y-82855904D01*
X136951911Y-82972395D01*
X136954285Y-82977545D01*
X136954287Y-82977550D01*
X137039596Y-83162599D01*
X137041974Y-83167757D01*
X137045252Y-83172395D01*
X137162621Y-83338469D01*
X137166131Y-83343436D01*
X137320224Y-83493547D01*
X137324947Y-83496703D01*
X137324951Y-83496706D01*
X137375959Y-83530788D01*
X137499093Y-83613063D01*
X137696746Y-83697981D01*
X137702294Y-83699236D01*
X137702299Y-83699238D01*
X137793203Y-83719807D01*
X137906565Y-83745458D01*
X138050487Y-83751113D01*
X138115842Y-83753681D01*
X138115844Y-83753681D01*
X138121522Y-83753904D01*
X138127142Y-83753089D01*
X138127145Y-83753089D01*
X138328798Y-83723850D01*
X138334419Y-83723035D01*
X138339796Y-83721210D01*
X138339799Y-83721209D01*
X138449079Y-83684113D01*
X138538125Y-83653886D01*
X138725819Y-83548773D01*
X138891215Y-83411215D01*
X139028773Y-83245819D01*
X139133886Y-83058125D01*
X139172973Y-82942979D01*
X139201209Y-82859799D01*
X139201210Y-82859796D01*
X139203035Y-82854419D01*
X139207679Y-82822388D01*
X139236779Y-82758868D01*
X139295602Y-82721163D01*
X139365471Y-82721245D01*
X139424205Y-82759089D01*
X139450581Y-82809658D01*
X139462326Y-82855904D01*
X139491911Y-82972395D01*
X139494285Y-82977545D01*
X139494287Y-82977550D01*
X139579596Y-83162599D01*
X139581974Y-83167757D01*
X139585252Y-83172395D01*
X139702621Y-83338469D01*
X139706131Y-83343436D01*
X139860224Y-83493547D01*
X139864947Y-83496703D01*
X139864951Y-83496706D01*
X139915959Y-83530788D01*
X140039093Y-83613063D01*
X140236746Y-83697981D01*
X140242294Y-83699236D01*
X140242299Y-83699238D01*
X140333203Y-83719807D01*
X140446565Y-83745458D01*
X140590487Y-83751113D01*
X140655842Y-83753681D01*
X140655844Y-83753681D01*
X140661522Y-83753904D01*
X140667142Y-83753089D01*
X140667145Y-83753089D01*
X140868798Y-83723850D01*
X140874419Y-83723035D01*
X140879796Y-83721210D01*
X140879799Y-83721209D01*
X140989079Y-83684113D01*
X141078125Y-83653886D01*
X141265819Y-83548773D01*
X141431215Y-83411215D01*
X141568773Y-83245819D01*
X141673886Y-83058125D01*
X141712973Y-82942979D01*
X141741209Y-82859799D01*
X141741210Y-82859796D01*
X141743035Y-82854419D01*
X141747679Y-82822388D01*
X141776779Y-82758868D01*
X141835602Y-82721163D01*
X141905471Y-82721245D01*
X141964205Y-82759089D01*
X141990581Y-82809658D01*
X142002326Y-82855904D01*
X142031911Y-82972395D01*
X142034285Y-82977545D01*
X142034287Y-82977550D01*
X142119596Y-83162599D01*
X142121974Y-83167757D01*
X142125252Y-83172395D01*
X142242621Y-83338469D01*
X142246131Y-83343436D01*
X142400224Y-83493547D01*
X142404947Y-83496703D01*
X142404951Y-83496706D01*
X142455959Y-83530788D01*
X142579093Y-83613063D01*
X142776746Y-83697981D01*
X142782294Y-83699236D01*
X142782299Y-83699238D01*
X142873203Y-83719807D01*
X142986565Y-83745458D01*
X143130487Y-83751113D01*
X143195842Y-83753681D01*
X143195844Y-83753681D01*
X143201522Y-83753904D01*
X143207142Y-83753089D01*
X143207145Y-83753089D01*
X143408798Y-83723850D01*
X143414419Y-83723035D01*
X143419796Y-83721210D01*
X143419799Y-83721209D01*
X143448268Y-83711545D01*
X144907538Y-83711545D01*
X144912736Y-83718489D01*
X145081620Y-83817178D01*
X145090772Y-83821562D01*
X145291714Y-83898294D01*
X145301457Y-83901125D01*
X145512246Y-83944011D01*
X145522316Y-83945211D01*
X145737281Y-83953094D01*
X145747402Y-83952634D01*
X145960772Y-83925301D01*
X145970685Y-83923194D01*
X146176722Y-83861380D01*
X146186166Y-83857678D01*
X146379326Y-83763050D01*
X146388052Y-83757849D01*
X146441385Y-83719807D01*
X146449653Y-83709275D01*
X146442777Y-83696330D01*
X145692607Y-82946160D01*
X145678887Y-82938668D01*
X145677081Y-82938797D01*
X145670574Y-82942979D01*
X144914189Y-83699364D01*
X144907538Y-83711545D01*
X143448268Y-83711545D01*
X143529079Y-83684113D01*
X143618125Y-83653886D01*
X143805819Y-83548773D01*
X143971215Y-83411215D01*
X144108773Y-83245819D01*
X144111548Y-83240864D01*
X144111551Y-83240860D01*
X144193089Y-83095261D01*
X144243020Y-83046387D01*
X144311448Y-83032267D01*
X144376648Y-83057383D01*
X144416168Y-83109197D01*
X144451047Y-83195093D01*
X144455629Y-83204163D01*
X144540032Y-83341897D01*
X144550324Y-83351208D01*
X144558961Y-83347486D01*
X145313840Y-82592607D01*
X145320116Y-82581113D01*
X146038668Y-82581113D01*
X146038797Y-82582919D01*
X146042979Y-82589426D01*
X146796912Y-83343359D01*
X146808731Y-83349812D01*
X146820282Y-83340988D01*
X146855374Y-83292153D01*
X146860597Y-83283460D01*
X146949762Y-83103047D01*
X146997112Y-83051668D01*
X147064723Y-83034045D01*
X147131129Y-83055773D01*
X147173537Y-83106073D01*
X147199596Y-83162599D01*
X147201974Y-83167757D01*
X147205252Y-83172395D01*
X147322621Y-83338469D01*
X147326131Y-83343436D01*
X147480224Y-83493547D01*
X147484947Y-83496703D01*
X147484951Y-83496706D01*
X147535959Y-83530788D01*
X147659093Y-83613063D01*
X147856746Y-83697981D01*
X147862294Y-83699236D01*
X147862299Y-83699238D01*
X147953203Y-83719807D01*
X148066565Y-83745458D01*
X148210487Y-83751113D01*
X148275842Y-83753681D01*
X148275844Y-83753681D01*
X148281522Y-83753904D01*
X148287142Y-83753089D01*
X148287145Y-83753089D01*
X148488798Y-83723850D01*
X148494419Y-83723035D01*
X148499796Y-83721210D01*
X148499799Y-83721209D01*
X148609079Y-83684113D01*
X148698125Y-83653886D01*
X148885819Y-83548773D01*
X149051215Y-83411215D01*
X149188773Y-83245819D01*
X149293886Y-83058125D01*
X149332973Y-82942979D01*
X149361209Y-82859799D01*
X149361210Y-82859796D01*
X149363035Y-82854419D01*
X149393904Y-82641522D01*
X149395515Y-82580000D01*
X149375831Y-82365779D01*
X149370753Y-82347772D01*
X155959500Y-82347772D01*
X155970364Y-82437547D01*
X155973296Y-82444951D01*
X155973296Y-82444953D01*
X155993459Y-82495878D01*
X156025887Y-82577783D01*
X156030999Y-82584517D01*
X156030999Y-82584518D01*
X156067395Y-82632468D01*
X156117078Y-82697922D01*
X156123810Y-82703032D01*
X156182886Y-82747873D01*
X156237217Y-82789113D01*
X156245078Y-82792225D01*
X156245079Y-82792226D01*
X156370047Y-82841704D01*
X156370049Y-82841704D01*
X156377453Y-82844636D01*
X156385357Y-82845592D01*
X156385359Y-82845593D01*
X156438073Y-82851972D01*
X156467228Y-82855500D01*
X157752772Y-82855500D01*
X157781927Y-82851972D01*
X157834641Y-82845593D01*
X157834643Y-82845592D01*
X157842547Y-82844636D01*
X157849951Y-82841704D01*
X157849953Y-82841704D01*
X157974921Y-82792226D01*
X157974922Y-82792225D01*
X157982783Y-82789113D01*
X158037115Y-82747873D01*
X158096190Y-82703032D01*
X158102922Y-82697922D01*
X158152605Y-82632468D01*
X158189001Y-82584518D01*
X158189001Y-82584517D01*
X158194113Y-82577783D01*
X158226542Y-82495878D01*
X158246704Y-82444953D01*
X158246704Y-82444951D01*
X158249636Y-82437547D01*
X158260500Y-82347772D01*
X158260500Y-82055328D01*
X158280185Y-81988289D01*
X158332989Y-81942534D01*
X158402147Y-81932590D01*
X158465703Y-81961615D01*
X158503845Y-82021670D01*
X158531314Y-82119069D01*
X158533828Y-82124166D01*
X158533828Y-82124167D01*
X158534735Y-82126006D01*
X158624835Y-82308710D01*
X158751349Y-82478133D01*
X158755519Y-82481988D01*
X158755522Y-82481991D01*
X158779432Y-82504093D01*
X158906619Y-82621663D01*
X158911428Y-82624697D01*
X158911429Y-82624698D01*
X159027482Y-82697922D01*
X159085446Y-82734495D01*
X159281840Y-82812848D01*
X159287421Y-82813958D01*
X159287424Y-82813959D01*
X159329806Y-82822389D01*
X159489225Y-82854099D01*
X159494912Y-82854173D01*
X159494917Y-82854174D01*
X159694966Y-82856793D01*
X159694971Y-82856793D01*
X159700654Y-82856867D01*
X159706258Y-82855904D01*
X159706259Y-82855904D01*
X159903450Y-82822021D01*
X159903453Y-82822020D01*
X159909047Y-82821059D01*
X160107425Y-82747873D01*
X160121867Y-82739281D01*
X160284260Y-82642668D01*
X160284263Y-82642666D01*
X160289144Y-82639762D01*
X160448119Y-82500345D01*
X160451638Y-82495881D01*
X160451641Y-82495878D01*
X160544830Y-82377667D01*
X160579024Y-82334292D01*
X160677477Y-82147164D01*
X160681074Y-82135582D01*
X160720955Y-82007141D01*
X160740180Y-81945227D01*
X160740289Y-81944308D01*
X160772746Y-81884187D01*
X160833909Y-81850411D01*
X160903624Y-81855063D01*
X160959756Y-81896667D01*
X160980189Y-81937792D01*
X161031314Y-82119069D01*
X161033828Y-82124166D01*
X161033828Y-82124167D01*
X161034735Y-82126006D01*
X161124835Y-82308710D01*
X161251349Y-82478133D01*
X161255519Y-82481988D01*
X161255522Y-82481991D01*
X161279432Y-82504093D01*
X161406619Y-82621663D01*
X161411428Y-82624697D01*
X161411429Y-82624698D01*
X161527482Y-82697922D01*
X161585446Y-82734495D01*
X161781840Y-82812848D01*
X161787421Y-82813958D01*
X161787424Y-82813959D01*
X161829806Y-82822389D01*
X161989225Y-82854099D01*
X161994912Y-82854173D01*
X161994917Y-82854174D01*
X162194966Y-82856793D01*
X162194971Y-82856793D01*
X162200654Y-82856867D01*
X162206258Y-82855904D01*
X162206259Y-82855904D01*
X162403450Y-82822021D01*
X162403453Y-82822020D01*
X162409047Y-82821059D01*
X162607425Y-82747873D01*
X162621867Y-82739281D01*
X162784260Y-82642668D01*
X162784263Y-82642666D01*
X162789144Y-82639762D01*
X162948119Y-82500345D01*
X162951638Y-82495881D01*
X162951641Y-82495878D01*
X163044830Y-82377667D01*
X163079024Y-82334292D01*
X163140111Y-82218185D01*
X163188743Y-82168024D01*
X163256778Y-82152118D01*
X163322613Y-82175519D01*
X163362229Y-82223519D01*
X163434110Y-82377667D01*
X163439508Y-82387017D01*
X163568784Y-82571643D01*
X163575719Y-82579907D01*
X163735091Y-82739279D01*
X163743357Y-82746215D01*
X163927992Y-82875498D01*
X163937324Y-82880886D01*
X164141603Y-82976143D01*
X164151736Y-82979832D01*
X164342779Y-83031022D01*
X164356653Y-83030691D01*
X164360000Y-83022875D01*
X164360000Y-83017806D01*
X164860000Y-83017806D01*
X164863910Y-83031123D01*
X164872326Y-83032333D01*
X165068264Y-82979832D01*
X165078397Y-82976143D01*
X165282667Y-82880890D01*
X165292017Y-82875492D01*
X165476643Y-82746216D01*
X165484907Y-82739281D01*
X165644281Y-82579907D01*
X165651216Y-82571643D01*
X165780492Y-82387017D01*
X165785890Y-82377667D01*
X165881143Y-82173397D01*
X165884832Y-82163264D01*
X165943167Y-81945553D01*
X165945041Y-81934922D01*
X165952667Y-81847761D01*
X165949710Y-81833049D01*
X165938147Y-81830000D01*
X164877830Y-81830000D01*
X164862831Y-81834404D01*
X164861644Y-81835774D01*
X164860000Y-81843332D01*
X164860000Y-83017806D01*
X164360000Y-83017806D01*
X164360000Y-81312170D01*
X164860000Y-81312170D01*
X164864404Y-81327169D01*
X164865774Y-81328356D01*
X164873332Y-81330000D01*
X165936391Y-81330000D01*
X165950790Y-81325772D01*
X165952820Y-81313988D01*
X165945041Y-81225078D01*
X165943167Y-81214447D01*
X165889401Y-81013789D01*
X196955996Y-81013789D01*
X196958482Y-81080000D01*
X196964563Y-81241960D01*
X196964913Y-81251295D01*
X196965990Y-81256430D01*
X196965991Y-81256435D01*
X197012037Y-81475887D01*
X197013719Y-81483904D01*
X197101020Y-81704963D01*
X197103741Y-81709447D01*
X197103743Y-81709451D01*
X197187672Y-81847761D01*
X197224319Y-81908153D01*
X197251754Y-81939769D01*
X197371780Y-82078087D01*
X197380090Y-82087664D01*
X197482686Y-82171787D01*
X197545778Y-82223519D01*
X197563880Y-82238362D01*
X197568441Y-82240958D01*
X197568442Y-82240959D01*
X197765875Y-82353345D01*
X197765880Y-82353347D01*
X197770433Y-82355939D01*
X197993844Y-82437034D01*
X198227725Y-82479326D01*
X198252619Y-82480500D01*
X198419680Y-82480500D01*
X198422296Y-82480278D01*
X198422297Y-82480278D01*
X198591590Y-82465913D01*
X198596823Y-82465469D01*
X198826874Y-82405760D01*
X199043576Y-82308143D01*
X199240732Y-82175409D01*
X199412705Y-82011355D01*
X199554579Y-81820670D01*
X199568430Y-81793427D01*
X199659913Y-81613493D01*
X199659915Y-81613488D01*
X199662295Y-81608807D01*
X199685956Y-81532608D01*
X199731215Y-81386848D01*
X199732775Y-81381824D01*
X199740019Y-81327169D01*
X199763315Y-81151412D01*
X199763315Y-81151408D01*
X199764004Y-81146211D01*
X199756140Y-80936747D01*
X199755284Y-80913949D01*
X199755284Y-80913948D01*
X199755087Y-80908705D01*
X199743041Y-80851290D01*
X199707361Y-80681242D01*
X199707360Y-80681239D01*
X199706281Y-80676096D01*
X199701553Y-80664122D01*
X199644729Y-80520238D01*
X199618980Y-80455037D01*
X199598157Y-80420721D01*
X199498408Y-80256341D01*
X199495681Y-80251847D01*
X199339910Y-80072336D01*
X199156120Y-79921638D01*
X199151558Y-79919041D01*
X198954125Y-79806655D01*
X198954120Y-79806653D01*
X198949567Y-79804061D01*
X198726156Y-79722966D01*
X198492275Y-79680674D01*
X198467381Y-79679500D01*
X198300320Y-79679500D01*
X198297704Y-79679722D01*
X198297703Y-79679722D01*
X198286484Y-79680674D01*
X198123177Y-79694531D01*
X197893126Y-79754240D01*
X197676424Y-79851857D01*
X197479268Y-79984591D01*
X197307295Y-80148645D01*
X197165421Y-80339330D01*
X197163042Y-80344008D01*
X197163042Y-80344009D01*
X197062279Y-80542197D01*
X197057705Y-80551193D01*
X197056146Y-80556213D01*
X197056145Y-80556216D01*
X197000777Y-80734530D01*
X196987225Y-80778176D01*
X196986534Y-80783386D01*
X196986534Y-80783388D01*
X196956790Y-81007800D01*
X196955996Y-81013789D01*
X165889401Y-81013789D01*
X165884832Y-80996736D01*
X165881143Y-80986603D01*
X165785890Y-80782333D01*
X165780492Y-80772983D01*
X165651216Y-80588357D01*
X165644281Y-80580093D01*
X165484909Y-80420721D01*
X165476643Y-80413785D01*
X165292008Y-80284502D01*
X165282676Y-80279114D01*
X165078397Y-80183857D01*
X165068264Y-80180168D01*
X164877221Y-80128978D01*
X164863347Y-80129309D01*
X164860000Y-80137125D01*
X164860000Y-81312170D01*
X164360000Y-81312170D01*
X164360000Y-80142194D01*
X164356090Y-80128877D01*
X164347674Y-80127667D01*
X164151736Y-80180168D01*
X164141603Y-80183857D01*
X163937333Y-80279110D01*
X163927983Y-80284508D01*
X163743357Y-80413784D01*
X163735093Y-80420719D01*
X163575719Y-80580093D01*
X163568784Y-80588357D01*
X163439508Y-80772983D01*
X163434110Y-80782333D01*
X163362105Y-80936747D01*
X163315933Y-80989186D01*
X163248739Y-81008338D01*
X163181858Y-80988122D01*
X163138511Y-80939186D01*
X163097682Y-80856393D01*
X163097680Y-80856389D01*
X163095165Y-80851290D01*
X162968651Y-80681867D01*
X162964481Y-80678012D01*
X162964478Y-80678009D01*
X162832722Y-80556216D01*
X162813381Y-80538337D01*
X162730708Y-80486174D01*
X162639363Y-80428539D01*
X162639361Y-80428538D01*
X162634554Y-80425505D01*
X162438160Y-80347152D01*
X162432579Y-80346042D01*
X162432576Y-80346041D01*
X162334468Y-80326527D01*
X162230775Y-80305901D01*
X162225088Y-80305827D01*
X162225083Y-80305826D01*
X162025034Y-80303207D01*
X162025029Y-80303207D01*
X162019346Y-80303133D01*
X162013742Y-80304096D01*
X162013741Y-80304096D01*
X161816550Y-80337979D01*
X161816547Y-80337980D01*
X161810953Y-80338941D01*
X161612575Y-80412127D01*
X161607697Y-80415029D01*
X161607695Y-80415030D01*
X161435740Y-80517332D01*
X161435737Y-80517334D01*
X161430856Y-80520238D01*
X161271881Y-80659655D01*
X161268362Y-80664119D01*
X161268359Y-80664122D01*
X161250782Y-80686419D01*
X161140976Y-80825708D01*
X161042523Y-81012836D01*
X160979820Y-81214773D01*
X160979711Y-81215692D01*
X160947254Y-81275813D01*
X160886091Y-81309589D01*
X160816376Y-81304937D01*
X160760244Y-81263333D01*
X160739811Y-81222208D01*
X160724810Y-81169019D01*
X160688686Y-81040931D01*
X160595165Y-80851290D01*
X160468651Y-80681867D01*
X160464481Y-80678012D01*
X160464478Y-80678009D01*
X160332722Y-80556216D01*
X160313381Y-80538337D01*
X160230708Y-80486174D01*
X160139363Y-80428539D01*
X160139361Y-80428538D01*
X160134554Y-80425505D01*
X159938160Y-80347152D01*
X159932579Y-80346042D01*
X159932576Y-80346041D01*
X159834468Y-80326527D01*
X159730775Y-80305901D01*
X159725088Y-80305827D01*
X159725083Y-80305826D01*
X159525034Y-80303207D01*
X159525029Y-80303207D01*
X159519346Y-80303133D01*
X159513742Y-80304096D01*
X159513741Y-80304096D01*
X159316550Y-80337979D01*
X159316547Y-80337980D01*
X159310953Y-80338941D01*
X159112575Y-80412127D01*
X159107697Y-80415029D01*
X159107695Y-80415030D01*
X158935740Y-80517332D01*
X158935737Y-80517334D01*
X158930856Y-80520238D01*
X158771881Y-80659655D01*
X158768362Y-80664119D01*
X158768359Y-80664122D01*
X158750782Y-80686419D01*
X158640976Y-80825708D01*
X158542523Y-81012836D01*
X158540837Y-81018267D01*
X158540835Y-81018271D01*
X158502922Y-81140372D01*
X158464243Y-81198559D01*
X158400246Y-81226597D01*
X158331250Y-81215585D01*
X158279160Y-81169019D01*
X158260500Y-81103601D01*
X158260500Y-80812228D01*
X158255497Y-80770887D01*
X158250593Y-80730359D01*
X158250592Y-80730357D01*
X158249636Y-80722453D01*
X158233320Y-80681242D01*
X158197226Y-80590079D01*
X158197225Y-80590078D01*
X158194113Y-80582217D01*
X158170565Y-80551193D01*
X158108032Y-80468810D01*
X158102922Y-80462078D01*
X158051963Y-80423398D01*
X157989518Y-80375999D01*
X157989517Y-80375999D01*
X157982783Y-80370887D01*
X157974922Y-80367775D01*
X157974921Y-80367774D01*
X157849953Y-80318296D01*
X157849951Y-80318296D01*
X157842547Y-80315364D01*
X157834643Y-80314408D01*
X157834641Y-80314407D01*
X157773530Y-80307012D01*
X157752772Y-80304500D01*
X156467228Y-80304500D01*
X156446470Y-80307012D01*
X156385359Y-80314407D01*
X156385357Y-80314408D01*
X156377453Y-80315364D01*
X156370049Y-80318296D01*
X156370047Y-80318296D01*
X156245079Y-80367774D01*
X156245078Y-80367775D01*
X156237217Y-80370887D01*
X156230483Y-80375999D01*
X156230482Y-80375999D01*
X156168037Y-80423398D01*
X156117078Y-80462078D01*
X156111968Y-80468810D01*
X156049436Y-80551193D01*
X156025887Y-80582217D01*
X156022775Y-80590078D01*
X156022774Y-80590079D01*
X155986680Y-80681242D01*
X155970364Y-80722453D01*
X155969408Y-80730357D01*
X155969407Y-80730359D01*
X155964503Y-80770887D01*
X155959500Y-80812228D01*
X155959500Y-82347772D01*
X149370753Y-82347772D01*
X149317438Y-82158733D01*
X149222291Y-81965795D01*
X149093578Y-81793427D01*
X149089408Y-81789572D01*
X149089405Y-81789569D01*
X148992596Y-81700080D01*
X148935608Y-81647401D01*
X148886094Y-81616160D01*
X148758485Y-81535644D01*
X148758484Y-81535643D01*
X148753673Y-81532608D01*
X148748398Y-81530503D01*
X148748393Y-81530501D01*
X148559140Y-81454998D01*
X148559141Y-81454998D01*
X148553864Y-81452893D01*
X148342875Y-81410925D01*
X148337188Y-81410851D01*
X148337183Y-81410850D01*
X148133459Y-81408183D01*
X148133454Y-81408183D01*
X148127770Y-81408109D01*
X148122166Y-81409072D01*
X148122165Y-81409072D01*
X147921357Y-81443577D01*
X147921355Y-81443578D01*
X147915754Y-81444540D01*
X147713928Y-81518997D01*
X147709042Y-81521904D01*
X147555959Y-81612979D01*
X147529050Y-81628988D01*
X147524779Y-81632734D01*
X147524773Y-81632738D01*
X147453688Y-81695079D01*
X147367312Y-81770829D01*
X147363797Y-81775288D01*
X147363794Y-81775291D01*
X147254622Y-81913775D01*
X147234130Y-81939769D01*
X147231484Y-81944798D01*
X147231479Y-81944806D01*
X147169151Y-82063272D01*
X147120516Y-82113436D01*
X147052481Y-82129342D01*
X146986647Y-82105941D01*
X146945698Y-82054981D01*
X146893552Y-81935054D01*
X146888759Y-81926115D01*
X146819363Y-81818843D01*
X146808848Y-81809787D01*
X146799432Y-81814121D01*
X146046160Y-82567393D01*
X146038668Y-82581113D01*
X145320116Y-82581113D01*
X145321332Y-82578887D01*
X145321203Y-82577081D01*
X145317021Y-82570574D01*
X144563303Y-81816856D01*
X144551952Y-81810658D01*
X144539863Y-81820130D01*
X144487581Y-81896772D01*
X144482565Y-81905602D01*
X144412271Y-82057036D01*
X144366190Y-82109556D01*
X144299030Y-82128825D01*
X144232114Y-82108725D01*
X144188586Y-82059671D01*
X144144808Y-81970898D01*
X144144806Y-81970894D01*
X144142291Y-81965795D01*
X144013578Y-81793427D01*
X144009408Y-81789572D01*
X144009405Y-81789569D01*
X143912596Y-81700080D01*
X143855608Y-81647401D01*
X143806094Y-81616160D01*
X143678485Y-81535644D01*
X143678484Y-81535643D01*
X143673673Y-81532608D01*
X143668398Y-81530503D01*
X143668393Y-81530501D01*
X143479140Y-81454998D01*
X143479141Y-81454998D01*
X143473864Y-81452893D01*
X143460702Y-81450275D01*
X144909324Y-81450275D01*
X144915961Y-81462408D01*
X145667393Y-82213840D01*
X145681113Y-82221332D01*
X145682919Y-82221203D01*
X145689426Y-82217021D01*
X146445300Y-81461147D01*
X146452207Y-81448497D01*
X146444588Y-81438041D01*
X146436295Y-81432531D01*
X146247974Y-81328572D01*
X146238723Y-81324415D01*
X146035951Y-81252610D01*
X146026152Y-81250021D01*
X145814378Y-81212298D01*
X145804287Y-81211344D01*
X145589196Y-81208716D01*
X145579071Y-81209425D01*
X145366451Y-81241960D01*
X145356578Y-81244312D01*
X145152119Y-81311139D01*
X145142770Y-81315069D01*
X144951977Y-81414390D01*
X144943384Y-81419801D01*
X144917645Y-81439127D01*
X144909324Y-81450275D01*
X143460702Y-81450275D01*
X143262875Y-81410925D01*
X143257188Y-81410851D01*
X143257183Y-81410850D01*
X143053459Y-81408183D01*
X143053454Y-81408183D01*
X143047770Y-81408109D01*
X143042166Y-81409072D01*
X143042165Y-81409072D01*
X142841357Y-81443577D01*
X142841355Y-81443578D01*
X142835754Y-81444540D01*
X142633928Y-81518997D01*
X142629042Y-81521904D01*
X142475959Y-81612979D01*
X142449050Y-81628988D01*
X142444779Y-81632734D01*
X142444773Y-81632738D01*
X142373688Y-81695079D01*
X142287312Y-81770829D01*
X142283797Y-81775288D01*
X142283794Y-81775291D01*
X142174622Y-81913775D01*
X142154130Y-81939769D01*
X142151485Y-81944797D01*
X142151484Y-81944798D01*
X142123512Y-81997964D01*
X142053966Y-82130150D01*
X142052280Y-82135579D01*
X142052279Y-82135582D01*
X142020365Y-82238362D01*
X141990173Y-82335597D01*
X141989925Y-82337692D01*
X141957284Y-82398152D01*
X141896120Y-82431928D01*
X141826406Y-82427274D01*
X141770274Y-82385669D01*
X141749843Y-82344547D01*
X141737464Y-82300654D01*
X141697438Y-82158733D01*
X141602291Y-81965795D01*
X141473578Y-81793427D01*
X141469408Y-81789572D01*
X141469405Y-81789569D01*
X141372596Y-81700080D01*
X141315608Y-81647401D01*
X141266094Y-81616160D01*
X141138485Y-81535644D01*
X141138484Y-81535643D01*
X141133673Y-81532608D01*
X141128398Y-81530503D01*
X141128393Y-81530501D01*
X140939140Y-81454998D01*
X140939141Y-81454998D01*
X140933864Y-81452893D01*
X140722875Y-81410925D01*
X140717188Y-81410851D01*
X140717183Y-81410850D01*
X140513459Y-81408183D01*
X140513454Y-81408183D01*
X140507770Y-81408109D01*
X140502166Y-81409072D01*
X140502165Y-81409072D01*
X140301357Y-81443577D01*
X140301355Y-81443578D01*
X140295754Y-81444540D01*
X140093928Y-81518997D01*
X140089042Y-81521904D01*
X139935959Y-81612979D01*
X139909050Y-81628988D01*
X139904779Y-81632734D01*
X139904773Y-81632738D01*
X139833688Y-81695079D01*
X139747312Y-81770829D01*
X139743797Y-81775288D01*
X139743794Y-81775291D01*
X139634622Y-81913775D01*
X139614130Y-81939769D01*
X139611485Y-81944797D01*
X139611484Y-81944798D01*
X139583512Y-81997964D01*
X139513966Y-82130150D01*
X139512280Y-82135579D01*
X139512279Y-82135582D01*
X139480365Y-82238362D01*
X139450173Y-82335597D01*
X139449925Y-82337692D01*
X139417284Y-82398152D01*
X139356120Y-82431928D01*
X139286406Y-82427274D01*
X139230274Y-82385669D01*
X139209843Y-82344547D01*
X139197464Y-82300654D01*
X139157438Y-82158733D01*
X139062291Y-81965795D01*
X138933578Y-81793427D01*
X138929408Y-81789572D01*
X138929405Y-81789569D01*
X138832596Y-81700080D01*
X138775608Y-81647401D01*
X138726094Y-81616160D01*
X138598485Y-81535644D01*
X138598484Y-81535643D01*
X138593673Y-81532608D01*
X138588398Y-81530503D01*
X138588393Y-81530501D01*
X138399140Y-81454998D01*
X138399141Y-81454998D01*
X138393864Y-81452893D01*
X138182875Y-81410925D01*
X138177188Y-81410851D01*
X138177183Y-81410850D01*
X137973459Y-81408183D01*
X137973454Y-81408183D01*
X137967770Y-81408109D01*
X137962166Y-81409072D01*
X137962165Y-81409072D01*
X137761357Y-81443577D01*
X137761355Y-81443578D01*
X137755754Y-81444540D01*
X137553928Y-81518997D01*
X137549042Y-81521904D01*
X137395959Y-81612979D01*
X137369050Y-81628988D01*
X137364779Y-81632734D01*
X137364773Y-81632738D01*
X137293688Y-81695079D01*
X137207312Y-81770829D01*
X137203797Y-81775288D01*
X137203794Y-81775291D01*
X137094622Y-81913775D01*
X137074130Y-81939769D01*
X137071485Y-81944797D01*
X137071484Y-81944798D01*
X137043512Y-81997964D01*
X136973966Y-82130150D01*
X136972280Y-82135579D01*
X136972279Y-82135582D01*
X136940365Y-82238362D01*
X136910173Y-82335597D01*
X136909925Y-82337692D01*
X136877284Y-82398152D01*
X136816120Y-82431928D01*
X136746406Y-82427274D01*
X136690274Y-82385669D01*
X136669843Y-82344547D01*
X136657464Y-82300654D01*
X136617438Y-82158733D01*
X136522291Y-81965795D01*
X136393578Y-81793427D01*
X136389408Y-81789572D01*
X136389405Y-81789569D01*
X136292596Y-81700080D01*
X136235608Y-81647401D01*
X136186094Y-81616160D01*
X136058485Y-81535644D01*
X136058484Y-81535643D01*
X136053673Y-81532608D01*
X136048398Y-81530503D01*
X136048393Y-81530501D01*
X135859140Y-81454998D01*
X135859141Y-81454998D01*
X135853864Y-81452893D01*
X135642875Y-81410925D01*
X135637188Y-81410851D01*
X135637183Y-81410850D01*
X135433459Y-81408183D01*
X135433454Y-81408183D01*
X135427770Y-81408109D01*
X135422166Y-81409072D01*
X135422165Y-81409072D01*
X135221357Y-81443577D01*
X135221355Y-81443578D01*
X135215754Y-81444540D01*
X135013928Y-81518997D01*
X135009042Y-81521904D01*
X134855959Y-81612979D01*
X134829050Y-81628988D01*
X134824779Y-81632734D01*
X134824773Y-81632738D01*
X134753688Y-81695079D01*
X134667312Y-81770829D01*
X134663797Y-81775288D01*
X134663794Y-81775291D01*
X134554622Y-81913775D01*
X134534130Y-81939769D01*
X134531485Y-81944797D01*
X134531484Y-81944798D01*
X134503512Y-81997964D01*
X134433966Y-82130150D01*
X134432280Y-82135579D01*
X134432279Y-82135582D01*
X134400365Y-82238362D01*
X134370173Y-82335597D01*
X134369925Y-82337692D01*
X134337284Y-82398152D01*
X134276120Y-82431928D01*
X134206406Y-82427274D01*
X134150274Y-82385669D01*
X134129843Y-82344547D01*
X134117464Y-82300654D01*
X134077438Y-82158733D01*
X133982291Y-81965795D01*
X133853578Y-81793427D01*
X133849408Y-81789572D01*
X133849405Y-81789569D01*
X133752596Y-81700080D01*
X133695608Y-81647401D01*
X133646094Y-81616160D01*
X133518485Y-81535644D01*
X133518484Y-81535643D01*
X133513673Y-81532608D01*
X133508398Y-81530503D01*
X133508393Y-81530501D01*
X133319140Y-81454998D01*
X133319141Y-81454998D01*
X133313864Y-81452893D01*
X133102875Y-81410925D01*
X133097188Y-81410851D01*
X133097183Y-81410850D01*
X132893459Y-81408183D01*
X132893454Y-81408183D01*
X132887770Y-81408109D01*
X132882166Y-81409072D01*
X132882165Y-81409072D01*
X132681357Y-81443577D01*
X132681355Y-81443578D01*
X132675754Y-81444540D01*
X132473928Y-81518997D01*
X132469042Y-81521904D01*
X132315959Y-81612979D01*
X132289050Y-81628988D01*
X132284779Y-81632734D01*
X132284773Y-81632738D01*
X132213688Y-81695079D01*
X132127312Y-81770829D01*
X132123797Y-81775288D01*
X132123794Y-81775291D01*
X132014622Y-81913775D01*
X131994130Y-81939769D01*
X131991485Y-81944797D01*
X131991484Y-81944798D01*
X131963512Y-81997964D01*
X131893966Y-82130150D01*
X131892280Y-82135579D01*
X131892279Y-82135582D01*
X131860365Y-82238362D01*
X131830173Y-82335597D01*
X131829925Y-82337692D01*
X131797284Y-82398152D01*
X131736120Y-82431928D01*
X131666406Y-82427274D01*
X131610274Y-82385669D01*
X131589843Y-82344547D01*
X131577464Y-82300654D01*
X131537438Y-82158733D01*
X131442291Y-81965795D01*
X131313578Y-81793427D01*
X131309408Y-81789572D01*
X131309405Y-81789569D01*
X131212596Y-81700080D01*
X131155608Y-81647401D01*
X131106094Y-81616160D01*
X130978485Y-81535644D01*
X130978484Y-81535643D01*
X130973673Y-81532608D01*
X130968398Y-81530503D01*
X130968393Y-81530501D01*
X130779140Y-81454998D01*
X130779141Y-81454998D01*
X130773864Y-81452893D01*
X130562875Y-81410925D01*
X130557188Y-81410851D01*
X130557183Y-81410850D01*
X130353459Y-81408183D01*
X130353454Y-81408183D01*
X130347770Y-81408109D01*
X130342166Y-81409072D01*
X130342165Y-81409072D01*
X130141357Y-81443577D01*
X130141355Y-81443578D01*
X130135754Y-81444540D01*
X129933928Y-81518997D01*
X129929042Y-81521904D01*
X129775959Y-81612979D01*
X129749050Y-81628988D01*
X129744779Y-81632734D01*
X129744773Y-81632738D01*
X129673688Y-81695079D01*
X129587312Y-81770829D01*
X129583797Y-81775288D01*
X129583794Y-81775291D01*
X129474622Y-81913775D01*
X129454130Y-81939769D01*
X129451485Y-81944797D01*
X129451484Y-81944798D01*
X129423512Y-81997964D01*
X129353966Y-82130150D01*
X129352280Y-82135579D01*
X129352279Y-82135582D01*
X129320365Y-82238362D01*
X129290173Y-82335597D01*
X129289925Y-82337692D01*
X129257284Y-82398152D01*
X129196120Y-82431928D01*
X129126406Y-82427274D01*
X129070274Y-82385669D01*
X129049843Y-82344547D01*
X129037464Y-82300654D01*
X128997438Y-82158733D01*
X128902291Y-81965795D01*
X128773578Y-81793427D01*
X128769408Y-81789572D01*
X128769405Y-81789569D01*
X128672596Y-81700080D01*
X128615608Y-81647401D01*
X128566094Y-81616160D01*
X128438485Y-81535644D01*
X128438484Y-81535643D01*
X128433673Y-81532608D01*
X128428398Y-81530503D01*
X128428393Y-81530501D01*
X128239140Y-81454998D01*
X128239141Y-81454998D01*
X128233864Y-81452893D01*
X128022875Y-81410925D01*
X128017188Y-81410851D01*
X128017183Y-81410850D01*
X127813459Y-81408183D01*
X127813454Y-81408183D01*
X127807770Y-81408109D01*
X127802166Y-81409072D01*
X127802165Y-81409072D01*
X127601357Y-81443577D01*
X127601355Y-81443578D01*
X127595754Y-81444540D01*
X127393928Y-81518997D01*
X127389042Y-81521904D01*
X127235959Y-81612979D01*
X127209050Y-81628988D01*
X127204779Y-81632734D01*
X127204773Y-81632738D01*
X127133688Y-81695079D01*
X127047312Y-81770829D01*
X127043797Y-81775288D01*
X127043794Y-81775291D01*
X126934622Y-81913775D01*
X126914130Y-81939769D01*
X126911485Y-81944797D01*
X126911484Y-81944798D01*
X126883512Y-81997964D01*
X126813966Y-82130150D01*
X126812280Y-82135579D01*
X126812279Y-82135582D01*
X126772922Y-82262333D01*
X126734243Y-82320520D01*
X126670246Y-82348558D01*
X126601250Y-82337546D01*
X126549160Y-82290980D01*
X126530500Y-82225562D01*
X126530500Y-81917228D01*
X126519636Y-81827453D01*
X126516227Y-81818843D01*
X126467226Y-81695079D01*
X126467225Y-81695078D01*
X126464113Y-81687217D01*
X126410178Y-81616160D01*
X126378032Y-81573810D01*
X126372922Y-81567078D01*
X126366190Y-81561968D01*
X126259518Y-81480999D01*
X126259517Y-81480999D01*
X126252783Y-81475887D01*
X126244922Y-81472775D01*
X126244921Y-81472774D01*
X126119953Y-81423296D01*
X126119951Y-81423296D01*
X126112547Y-81420364D01*
X126104643Y-81419408D01*
X126104641Y-81419407D01*
X126043728Y-81412036D01*
X126022772Y-81409500D01*
X124697228Y-81409500D01*
X124676272Y-81412036D01*
X124615359Y-81419407D01*
X124615357Y-81419408D01*
X124607453Y-81420364D01*
X124600049Y-81423296D01*
X124600047Y-81423296D01*
X124475079Y-81472774D01*
X124475078Y-81472775D01*
X124467217Y-81475887D01*
X124460483Y-81480999D01*
X124460482Y-81480999D01*
X124353810Y-81561968D01*
X124347078Y-81567078D01*
X124341968Y-81573810D01*
X124309823Y-81616160D01*
X124255887Y-81687217D01*
X124252775Y-81695078D01*
X124252774Y-81695079D01*
X124203773Y-81818843D01*
X124200364Y-81827453D01*
X124189500Y-81917228D01*
X124189500Y-83242772D01*
X98139219Y-83242772D01*
X96512607Y-81616160D01*
X96498887Y-81608668D01*
X96497081Y-81608797D01*
X96490574Y-81612979D01*
X94788169Y-83315384D01*
X94781168Y-83328206D01*
X93660500Y-83328206D01*
X93660500Y-82026150D01*
X93680185Y-81959111D01*
X93732989Y-81913356D01*
X93802147Y-81903412D01*
X93865703Y-81932437D01*
X93903301Y-81990621D01*
X93958740Y-82175996D01*
X93961305Y-82183005D01*
X94088394Y-82474593D01*
X94091774Y-82481228D01*
X94252978Y-82755444D01*
X94257141Y-82761638D01*
X94409795Y-82961663D01*
X94421138Y-82969991D01*
X94433010Y-82963437D01*
X96145334Y-81251113D01*
X96858668Y-81251113D01*
X96858797Y-81252919D01*
X96862979Y-81259426D01*
X98565264Y-82961711D01*
X98578177Y-82968762D01*
X98588314Y-82961490D01*
X98694277Y-82831335D01*
X98698628Y-82825278D01*
X98868359Y-82556272D01*
X98871952Y-82549738D01*
X99008138Y-82262283D01*
X99010920Y-82255362D01*
X99111581Y-81953642D01*
X99113516Y-81946423D01*
X99177202Y-81634789D01*
X99178253Y-81627406D01*
X99204165Y-81308828D01*
X99204365Y-81304456D01*
X99204912Y-81252208D01*
X99204802Y-81247795D01*
X99185569Y-80928774D01*
X99184671Y-80921356D01*
X99127526Y-80608460D01*
X99125746Y-80601212D01*
X99031424Y-80297445D01*
X99028787Y-80290465D01*
X98898654Y-80000229D01*
X98895192Y-79993607D01*
X98731135Y-79721109D01*
X98726912Y-79714964D01*
X98589635Y-79538941D01*
X98578030Y-79530606D01*
X98566505Y-79537048D01*
X96866160Y-81237393D01*
X96858668Y-81251113D01*
X96145334Y-81251113D01*
X98212231Y-79184216D01*
X98219130Y-79171581D01*
X98211459Y-79161062D01*
X98046675Y-79031156D01*
X98040552Y-79026901D01*
X97768915Y-78861417D01*
X97762317Y-78857924D01*
X97472767Y-78726274D01*
X97465796Y-78723598D01*
X97162528Y-78627686D01*
X97151670Y-78624959D01*
X97152067Y-78623377D01*
X97095679Y-78594630D01*
X97060471Y-78534279D01*
X97063479Y-78464475D01*
X97103750Y-78407377D01*
X97168496Y-78381116D01*
X97180842Y-78380500D01*
X198322861Y-78380500D01*
X198344391Y-78382384D01*
G37*
%TD.AperFunction*%
%TD*%
M02*
