M48
; DRILL file {KiCad (6.0.8)} date Fri Oct 21 18:04:42 2022
; FORMAT={-:-/ absolute / metric / decimal}
; #@! TF.CreationDate,2022-10-21T18:04:42+02:00
; #@! TF.GenerationSoftware,Kicad,Pcbnew,(6.0.8)
; #@! TF.FileFunction,MixedPlating,1,2
FMAT,2
METRIC
; #@! TA.AperFunction,Plated,PTH,ComponentDrill
T1C0.800
; #@! TA.AperFunction,Plated,PTH,ComponentDrill
T2C0.950
; #@! TA.AperFunction,Plated,PTH,ComponentDrill
T3C1.090
; #@! TA.AperFunction,Plated,PTH,ComponentDrill
T4C1.100
; #@! TA.AperFunction,Plated,PTH,ComponentDrill
T5C1.200
; #@! TA.AperFunction,Plated,PTH,ComponentDrill
T6C1.270
; #@! TA.AperFunction,Plated,PTH,ComponentDrill
T7C1.524
; #@! TA.AperFunction,Plated,PTH,ComponentDrill
T8C2.200
; #@! TA.AperFunction,NonPlated,NPTH,ComponentDrill
T9C2.200
%
G90
G05
T1
X110.682Y-91.5
X113.182Y-91.5
X117.0Y-109.0
X117.08Y-97.0
X117.08Y-105.0
X122.16Y-101.0
X122.16Y-112.75
X124.66Y-101.0
X124.66Y-112.75
X127.16Y-109.0
X127.24Y-97.0
X127.24Y-105.0
X131.08Y-97.0
X131.92Y-90.0
X133.36Y-103.0
X133.36Y-105.54
X133.36Y-108.08
X133.36Y-110.62
X140.98Y-103.0
X140.98Y-105.54
X140.98Y-108.08
X140.98Y-110.62
X141.24Y-97.0
X142.08Y-90.0
X146.42Y-97.0
X146.58Y-104.0
X146.66Y-109.5
X156.58Y-97.0
X156.74Y-104.0
X156.82Y-109.5
X170.013Y-108.08
X170.165Y-99.08
X172.513Y-108.08
X172.665Y-99.08
X184.86Y-104.0
X184.915Y-98.58
X184.915Y-109.58
X187.36Y-104.0
X187.415Y-98.58
X187.415Y-109.58
T2
X97.36Y-89.08
X97.36Y-91.58
X97.36Y-94.08
X97.36Y-96.58
X157.11Y-81.58
X159.61Y-81.58
X162.11Y-81.58
X164.61Y-81.58
T3
X125.36Y-82.58
X127.9Y-82.58
X130.44Y-82.58
X132.98Y-82.58
X135.52Y-82.58
X138.06Y-82.58
X140.6Y-82.58
X143.14Y-82.58
X145.68Y-82.58
X148.22Y-82.58
T4
X155.78Y-88.08
X165.94Y-88.08
X193.47Y-101.54
X193.47Y-104.08
X193.47Y-106.62
T5
X172.86Y-83.58
X176.36Y-83.58
X179.86Y-83.58
X183.36Y-83.58
X186.86Y-83.58
X190.36Y-83.58
T6
X106.36Y-107.58
T7
X103.185Y-104.405
X103.185Y-110.755
X109.535Y-104.405
X109.535Y-110.755
T8
X96.5Y-81.25
T9
X96.36Y-113.08
X198.36Y-81.08
X198.36Y-113.08
T0
M30
